<svg width="460" height="460" viewBox="0 0 460 460" xmlns="http://www.w3.org/2000/svg"><g fill="none" fill-rule="evenodd"><path fill="#033671" d="M0 238.78h460V460H0z"/><path fill="#F8E81C" d="M0 0h460v238.78H0z"/><path d="M195.47 420.34V460h25.75l.003-111.196-.002-.585c0-46.68 37.68-84.55 84.28-84.86v-25.75c-33.85.17-64.1 15.55-84.27 39.65v-38.49h-25.75v39.66c-20.29-24.24-50.774-39.66-84.86-39.66C49.528 238.78 0 288.3 0 349.39 0 410.48 49.522 460 110.61 460c34.086 0 64.57-15.418 84.86-39.66zm140.42-156.98v84.274h25.75V263.36H460v-25.752h-98.36v-59.695h-25.75v59.695h-30.394v25.75h30.394zm124.032 194.663c-4.4.533-8.878.807-13.42.807-61.09 0-110.612-49.523-110.612-110.61v-.586h25.753c-.002.195-.002.39-.002.585 0 46.86 38 84.86 84.86 84.86 4.57 0 9.05-.37 13.43-1.06v26zm-349.31-23.774c46.866 0 84.86-38 84.86-84.86 0-46.87-37.994-84.86-84.86-84.86-46.868 0-84.86 37.99-84.86 84.86 0 46.86 37.992 84.86 84.86 84.86z" fill="#FFF"/></g></svg>