<svg viewBox="0 0 60 60" xmlns="http://www.w3.org/2000/svg"><path d="M0 0h60v60H0z"/><path fill="#FFF" d="M21.6 17.5c1.177 0 2.24.1 3.21.31.965.206 1.79.546 2.485 1.014a4.74 4.74 0 0 1 1.605 1.872c.375.77.563 1.737.563 2.88 0 1.234-.28 2.266-.843 3.092-.567.823-1.4 1.498-2.51 2.023 1.514.44 2.635 1.2 3.38 2.29.746 1.1 1.112 2.41 1.112 3.94 0 1.248-.24 2.32-.716 3.22a6.283 6.283 0 0 1-1.946 2.22c-.815.578-1.75 1-2.8 1.27a12.47 12.47 0 0 1-3.214.418H10V17.5h11.6zm-.7 9.915c.96 0 1.753-.228 2.383-.688.623-.453.925-1.203.925-2.23 0-.572-.1-1.044-.302-1.41a2.237 2.237 0 0 0-.835-.853 3.364 3.364 0 0 0-1.19-.432 7.215 7.215 0 0 0-1.39-.12h-5.07v5.733h5.48zm.3 10.446a6.94 6.94 0 0 0 1.518-.15c.484-.1.914-.27 1.276-.52a2.58 2.58 0 0 0 .88-.98c.22-.41.324-.94.324-1.59 0-1.26-.357-2.16-1.067-2.71-.71-.53-1.65-.8-2.82-.8h-5.89v6.76h5.78zm17.125-.08c.732.72 1.792 1.08 3.164 1.08.98 0 1.84-.25 2.55-.744.71-.496 1.14-1.025 1.303-1.575h4.31c-.693 2.14-1.744 3.666-3.177 4.585-1.417.92-3.145 1.38-5.16 1.38-1.4 0-2.665-.223-3.8-.67a8.096 8.096 0 0 1-2.876-1.91 8.766 8.766 0 0 1-1.81-2.96c-.424-1.147-.64-2.415-.64-3.79 0-1.33.224-2.57.66-3.717.443-1.15 1.06-2.143 1.865-2.977A8.824 8.824 0 0 1 37.6 24.5c1.12-.48 2.35-.726 3.715-.726 1.508 0 2.83.29 3.96.88a7.885 7.885 0 0 1 2.778 2.356c.726.982 1.243 2.11 1.565 3.372.32 1.26.433 2.575.34 3.953H37.11c0 1.406.478 2.736 1.213 3.45zm5.622-9.33c-.582-.64-1.567-.99-2.768-.99-.79 0-1.43.13-1.95.4a3.94 3.94 0 0 0-1.24.98 3.5 3.5 0 0 0-.66 1.25c-.128.43-.2.824-.226 1.17h7.96c-.115-1.245-.54-2.165-1.126-2.812zm-7.835-9.296h9.974v2.42h-9.974z"/></svg>