<svg width="100%" height="100%" viewBox="0 0 60 60" id="behance" version="1.1" xmlns="http://www.w3.org/2000/svg" xmlns:xlink="http://www.w3.org/1999/xlink">
    <rect width="60" height="60" fill="#000" />
    <path fill="#FFFFFF" d="M21.6,17.5c1.177,0,2.239,0.101,3.21,0.311c0.965,0.205,1.789,0.545,2.485,1.013 c0.685,0.467,1.222,1.089,1.605,1.872c0.375,0.771,0.563,1.737,0.563,2.879c0,1.235-0.281,2.267-0.843,3.093 c-0.567,0.823-1.399,1.498-2.511,2.023c1.515,0.434,2.636,1.198,3.38,2.285c0.747,1.095,1.113,2.404,1.113,3.939 c0,1.244-0.239,2.316-0.716,3.218c-0.481,0.911-1.138,1.65-1.946,2.222c-0.815,0.575-1.751,0.997-2.799,1.271 c-1.037,0.276-2.113,0.414-3.215,0.414H10V17.5H21.6z M20.899,27.415c0.96,0,1.754-0.228,2.384-0.688 c0.623-0.453,0.925-1.203,0.925-2.23c0-0.572-0.1-1.044-0.302-1.41c-0.209-0.366-0.485-0.652-0.835-0.853 c-0.347-0.21-0.738-0.354-1.192-0.432c-0.446-0.088-0.914-0.121-1.393-0.121h-5.068v5.734H20.899z M21.199,37.861 c0.535,0,1.042-0.047,1.519-0.154c0.484-0.105,0.914-0.273,1.276-0.521c0.362-0.237,0.663-0.563,0.88-0.979 c0.219-0.412,0.324-0.945,0.324-1.591c0-1.266-0.357-2.162-1.067-2.709c-0.71-0.537-1.659-0.805-2.825-0.805h-5.889v6.758 H21.199z" />
    <path fill="#FFFFFF" d="M38.325,37.779c0.732,0.715,1.792,1.074,3.164,1.074c0.987,0,1.84-0.249,2.556-0.745 c0.709-0.496,1.14-1.025,1.307-1.575h4.31c-0.693,2.139-1.744,3.666-3.177,4.585c-1.417,0.923-3.145,1.383-5.159,1.383 c-1.403,0-2.666-0.226-3.8-0.673c-1.133-0.452-2.08-1.085-2.877-1.91c-0.776-0.829-1.379-1.81-1.809-2.961 c-0.425-1.146-0.64-2.414-0.64-3.788c0-1.329,0.223-2.57,0.658-3.718c0.444-1.15,1.059-2.144,1.866-2.978 c0.809-0.837,1.769-1.498,2.887-1.98c1.118-0.481,2.35-0.725,3.715-0.725c1.507,0,2.828,0.29,3.959,0.88 c1.128,0.581,2.052,1.369,2.778,2.354c0.726,0.983,1.243,2.109,1.565,3.373c0.32,1.26,0.433,2.577,0.34,3.955H37.113 C37.113,35.736,37.59,37.066,38.325,37.779z M43.947,28.443c-0.582-0.641-1.567-0.988-2.768-0.988 c-0.782,0-1.429,0.13-1.947,0.398c-0.506,0.264-0.921,0.592-1.239,0.979c-0.316,0.394-0.531,0.809-0.656,1.253 c-0.126,0.432-0.201,0.824-0.224,1.17h7.961C44.958,30.01,44.531,29.09,43.947,28.443z" />
    <rect x="36.112" y="19.146" fill="#FFFFFF" width="9.974" height="2.422" />
</svg>
