<svg xmlns="http://www.w3.org/2000/svg" xmlns:xlink="http://www.w3.org/1999/xlink" viewBox="0 0 600 300" preserveAspectRatio="xMaxYMax meet"><symbol id="a"><path fill="#FFF" d="M558.007 177.84h-12.944c.616-4.07.937-8.238.937-12.48 0-45.663-37.017-82.68-82.68-82.68a82.95 82.95 0 0 0-18.596 2.1C427.658 35.44 380.794 0 325.65 0c-66.165 0-120.412 51.013-125.564 115.853-8.87-3.78-18.628-5.873-28.876-5.873-38.74 0-70.497 29.886-73.48 67.86H36.354C16.274 177.84 0 195.825 0 218.01s16.275 40.17 36.353 40.17h521.654c20.077 0 36.353-17.985 36.353-40.17s-16.276-40.17-36.353-40.17z"/></symbol><use xlink:href="#a" transform="matrix(.2 0 0 .2 4 130)" opacity=".5"><animate attributeName="x" dur="53s" keySplines="0.5 0 0.5 1;" from="-600" to="2941" repeatCount="indefinite"/></use><use xlink:href="#a" transform="matrix(-.4 0 0 .5 560 2.5)" opacity=".4"><animate attributeName="x" dur="71s" keySplines="0.5 0 0.5 1;" from="-600" to="2134" repeatCount="indefinite"/></use><use xlink:href="#a" transform="matrix(-.25 0 0 .25 600 137.5)" opacity=".45"><animate attributeName="x" dur="77s" keySplines="0.5 0 0.5 1;" from="-600" to="2500" repeatCount="indefinite"/></use><use xlink:href="#a" transform="translate(-49) scale(.35)" opacity=".475"><animate attributeName="x" dur="63s" keySplines="0.5 0 0.5 1;" from="-600" to="2345" repeatCount="indefinite"/></use></svg>