<svg id="deloitte" width="200" height="200" version="1.1" xmlns="http://www.w3.org/2000/svg" xmlns:xlink="http://www.w3.org/1999/xlink">
    <rect fill="#254087" width="200" height="200" x="0" y="0"></rect>
    <path transform="translate(15,20)" d="M 0,162 L 46,162 C 114,162 140,121 140,83 C 140,30 106,0 45,0 C 28,0 10,0 0,1 L 0,162 z M 52,130 C 47,130 41,131 39,131 C 39,131 38,32 38,32 C 41,32 46,32 52,32 C 76,32 99,47 99,82 C 99,121 69,131 52,130" style="fill:#fff;fill-rule:evenodd;stroke:none" id="path3463" />
    <circle cx="165" cy="162" r="20" fill="#96cb3c"></circle>
</svg>
