<svg width="200" height="200" viewBox="0 0 200 200" xmlns="http://www.w3.org/2000/svg"><g fill="none" fill-rule="evenodd"><path fill="#041E41" d="M0 0h200v200H0z"/><path d="M42.224 122.177v6.926c-.162.05-.323.097-.485.145-.35-1.232-.71-2.464-1.06-3.698 1.5-.674.27-2.59 1.535-3.373z" fill="#F5C400"/><path d="M19.23 57.265c-1.45 1.656-1.247 3.694-1.255 5.66-.03 8.636-.136 17.275.046 25.907.08 3.604-1.12 5.86-4.82 6.937-2.83.82-5.5 2.09-7.21 5.08v4.27c.857 5.11 1.42 10.42 6.406 13.14 4.92 2.684 6.12 6.546 5.587 11.595-.265 2.517-.02 5.086.018 7.63.028 1.824-.13 3.716 1.24 5.24h163.67V57.26H19.23zm158.038 83.498c-24.776-.018-49.553-.012-74.33-.012-25.772 0-51.547-.08-77.318.1-3.87.03-4.94-1.11-4.65-4.81.322-4.1.125-8.25.055-12.38-.03-1.79.496-2.615 2.45-2.38 3.94.48 7.958-.265 12.606 1.09-2.76-7.663-8.2-11.9-14.19-15.654-1.22-.35-2.38-.797-3.22-2.13 1.73-.45 2.95.386 4.177 1.188 9.44 3.448 15.065 10.336 17.85 19.785.63.67.985 1.494 1.16 2.404-.392-1.99-.035-3.886.376-5.777.007-11.58 4.995-21.244 11.68-30.37-7.414 3.69-11.142 10.34-14.62 17.815-2.435-4.044-4.955-7.64-8.573-10.214-1.266-.904-2.643-2.116-4.06-2.255-5.59-.55-5.895-3.96-5.704-8.527.342-8.244.316-16.522 0-24.768-.15-3.87 1.08-4.705 4.773-4.695 47.273.123 94.55.08 141.822.08 3.56 0 7.125.11 10.677-.04 2.462-.104 3.167.886 3.162 3.25-.06 25.06-.09 50.12.02 75.183.012 3.39-1.92 3.12-4.14 3.12z" fill="#FED502"/><path d="M173.077 114.234c0 4.7-.14 9.407.056 14.098.107 2.532-.455 3.47-3.223 3.383-3.375-.106-6.3-.627-7.79-3.984-.715-1.61-1.188-1.32-2.398-.44-18.646 13.517-43.137 2.447-45.776-20.535-.826-7.196-.593-14.23 1.904-21.02 4.016-10.92 12.035-17.076 23.525-18.286 10.075-1.06 19.673.23 27.2 8.055 3.132 3.255 4.946 7.185 5.94 11.6.463 2.05-.137 2.485-2.006 2.49-5.8.01-11.05.45-15.37-5.59-5.47-7.65-19.43-5.454-23.9 3.26-4.268 8.32-4.206 17.08-.027 25.444 3.09 6.18 8.78 8.184 15.413 7.696 5.627-.412 9.53-3.32 11.773-8.5.86-1.987.88-3.22-1.874-3.05-1.835.11-3.735.09-5.53-.26-4.425-.867-7.426-7.05-5.468-10.87.505-.994 1.306-.94 2.14-.94 7.69-.01 15.382.042 23.07-.047 1.97-.023 2.376.822 2.35 2.55-.07 4.983-.025 9.97-.023 14.953zM36.577 98.66c-3.13-1.99-4.656-4.482-4.433-8.39.34-5.955.185-11.946.042-17.917-.058-2.45.45-3.568 3.235-3.515 8.54.165 17.08-.14 25.61.118 9.728.297 17.12 4.97 21.81 13.423 6.068 10.93 6.25 22.35 1.06 33.58-4.48 9.69-12.5 14.88-23.184 15.57-4.392.283-8.82-.02-13.223.12-2.987.09-2.687-1.26-1.523-3.028 1.363-2.065 3.495-3.31 5.466-4.687 4.19-2.93 8.53-5.678 11.805-9.716 6.535-8.054 6.22-23.5-.59-31.048-1.403-1.56-3.19-1.148-4.78-.907-10.043 1.52-17.85 6.066-21.283 16.39zm56.097-26.79c-.053-2.938.846-3.826 3.655-3.15 2.05.493 4.21.564 6.24 1.127 3.7 1.027 5.803 3.602 5.82 7.456.07 17.34.02 34.682.09 52.02.01 1.966-.8 2.508-2.53 2.303-.14-.017-.286 0-.43-.003-4.1-.077-9.442 1.383-11.96-.653-2.65-2.146-.7-7.708-.794-11.77-.15-6.393-.04-12.79-.04-19.188 0-9.38.104-18.764-.06-28.142z" fill="#FEFEFE"/></g></svg>