<?xml version="1.0" encoding="UTF-8" standalone="no"?>
<svg width="460px" height="460px" viewBox="0 0 460 460" version="1.1" xmlns="http://www.w3.org/2000/svg" xmlns:xlink="http://www.w3.org/1999/xlink" xmlns:sketch="http://www.bohemiancoding.com/sketch/ns">
    <!-- Generator: Sketch 3.1.1 (8761) - http://www.bohemiancoding.com/sketch -->
    <title>Slice 2</title>
    <desc>Created with Sketch.</desc>
    <defs></defs>
    <g id="Page-1" stroke="none" stroke-width="1" fill="none" fill-rule="evenodd" sketch:type="MSPage">
        <g id="dye" sketch:type="MSLayerGroup">
            <rect id="Rectangle-path" fill="#00ACC1" sketch:type="MSShapeGroup" x="0" y="0" width="460" height="460"></rect>
            <g id="Group" transform="translate(156.687500, 130.093750)" stroke="#FFFFFF" stroke-width="10" sketch:type="MSShapeGroup">
                <path d="M72.2854063,0.23790625 C72.2854063,0.23790625 68.1475625,1.22978125 61.8513125,2.9483125" id="Shape"></path>
                <path d="M49.3946563,6.5305625 C46.4125625,7.43403125 43.2895938,8.41584375 40.126375,9.461625" id="Shape" stroke-dasharray="4.5096,18.0383"></path>
                <path d="M33.991125,11.5582187 C10.0402187,20.0315625 -12.6485625,31.6868125 8.18871875,40.84225 C41.0298437,55.271875 144.607469,50.0544687 129.35775,75.276125" id="Shape" stroke-dasharray="27.0575,18.0383,4.5096,18.0383"></path>
                <path d="M125.204812,80.2355 C123.058625,82.2889688 120.262687,84.5099063 116.751594,86.9148438" id="Shape"></path>
            </g>
            <g id="Drone_1_" transform="translate(119.312500, 35.937500)" sketch:type="MSShapeGroup">
                <path d="M205.014813,35.026125 C200.424156,32.3710625 190.695156,27.8709687 185.541719,26.6375938 C182.951344,26.015875 181.703594,21.9721875 180.564375,19.6944688 C179.944094,18.45175 183.468844,14.6200938 182.641562,12.3416563 C178.513781,4.42821875 164.382437,1.77028125 158.286,0.80428125 C152.292344,-0.14159375 145.426844,0.037375 140.473937,-0.01940625 C133.023375,-0.0991875 110.686781,1.27003125 110.686781,1.27003125 C110.686781,1.27003125 88.351625,-0.0991875 80.9003437,-0.01940625 C75.9481562,0.037375 69.0805,-0.14159375 63.0875625,0.80428125 C56.9925625,1.77028125 42.8612187,4.42821875 38.7334375,12.3416563 C37.904,14.6200938 41.4301875,18.45175 40.8091875,19.6944688 C39.6706875,21.9721875 38.4229375,26.015875 35.834,26.6375938 C30.6798437,27.8709687 20.950125,32.3710625 16.3601875,35.026125 C11.6760937,37.73725 1.0335625,46.1114062 0.2659375,56.5706562 C0.0071875,60.0918125 6.16471875,70.3915 8.49921875,73.671875 C13.4226562,80.5955937 31.535875,85.43925 39.9617812,86.4843125 C53.2924375,88.1324062 80.0622812,82.5678437 90.13125,80.04 C93.7465625,79.1315 103.989469,73.6618125 105.406125,70.4705625 C106.663219,70.07525 110.686781,69.830875 110.686781,69.830875 C110.686781,69.830875 114.7125,70.07525 115.969594,70.4705625 C117.385531,73.6625312 127.629875,79.1322187 131.24375,80.04 C141.312719,82.5678437 168.083281,88.1324062 181.413219,86.4843125 C189.838406,85.43925 207.953781,80.5955937 212.8765,73.671875 C215.211,70.3915 221.367094,60.0910937 221.109781,56.5706562 C220.341437,46.112125 209.697469,37.73725 205.014813,35.026125 L205.014813,35.026125 Z M101.212219,9.65425 C101.212219,9.65425 102.755375,15.4631875 80.1995625,19.6003125 C63.6251875,22.6413437 47.6064062,15.4581562 47.6064062,15.4581562 C47.6064062,15.4581562 63.6244687,3.58153125 101.212219,9.65425 L101.212219,9.65425 Z M83.7954687,65.1712187 C56.2112812,71.8742812 51.4761562,70.4712812 37.3821875,68.2970625 C20.7323437,65.7268125 13.5024375,59.386 13.5024375,59.386 C13.5024375,59.386 18.3274062,47.7688438 35.4710313,38.9526563 C54.8082813,29.0065938 78.542125,26.5024688 106.436813,37.832125 C106.436813,37.8314063 110.686781,54.40075 83.7954687,65.1712187 L83.7954687,65.1712187 Z M120.162781,9.65425 C157.750531,3.58153125 173.768594,15.4581563 173.768594,15.4581563 C173.768594,15.4581563 157.750531,22.6413438 141.176156,19.6003125 C118.619625,15.4631875 120.162781,9.65425 120.162781,9.65425 L120.162781,9.65425 Z M183.992094,68.2963437 C169.900281,70.4705625 165.163719,71.8735625 137.578812,65.1705 C110.686781,54.4000313 114.938187,37.8306875 114.938187,37.8306875 C142.832875,26.5010312 166.566,29.0044375 185.902531,38.9512188 C203.046875,47.768125 207.870406,59.3845625 207.870406,59.3845625 C207.870406,59.3845625 200.6405,65.7260937 183.992094,68.2963437 L183.992094,68.2963437 Z" id="Shape" fill="#FFFFFF"></path>
                <path d="M56.2486562,51.5954688 L104.205094,33.9199688" id="Shape" stroke="#FFFFFF"></path>
                <path d="M76.8753437,13.3306562 L107.641437,21.0787812" id="Shape" stroke="#FFFFFF" stroke-width="0.75"></path>
                <path d="M165.173062,50.7387188 L117.217344,33.0625" id="Shape" stroke="#FFFFFF"></path>
                <path d="M144.545656,12.468875 L113.784594,20.2220313" id="Shape" stroke="#FFFFFF" stroke-width="0.75"></path>
                <path d="M96.5892188,41.9555938 C97.8513437,47.457625 88.3092188,58.55225 68.4027187,63.0954688 C48.5005312,67.6329375 25.774375,63.9004688 24.5172812,58.3977187 C23.2609063,52.8949687 36.3464687,41.8003437 56.2486562,37.2578437 C76.1508438,32.7153437 95.3371562,36.452125 96.5892188,41.9555938 L96.5892188,41.9555938 Z" id="Shape" fill-opacity="0.3" fill="#FFFFFF"></path>
                <path d="M96.786875,11.2779063 C96.9097813,13.0905938 88.72825,16.4888438 79.3895313,17.1429062 C70.0500938,17.787625 54.9398125,15.5429688 54.817625,13.7345937 C54.6860938,11.9276563 66.6374688,9.041875 75.9812188,8.3878125 C85.315625,7.74309375 96.6596563,9.4659375 96.786875,11.2779063 L96.786875,11.2779063 Z" id="Shape" fill-opacity="0.3" fill="#FFFFFF"></path>
                <path d="M125.087656,42.5147812 C123.828406,48.0175312 133.370531,59.1121562 153.273437,63.655375 C173.175625,68.1928437 195.906094,64.460375 197.163187,58.957625 C198.413813,53.4541562 185.328969,42.3595312 165.426781,37.81775 C145.524594,33.2745313 126.342594,37.01275 125.087656,42.5147812 L125.087656,42.5147812 Z" id="Shape" fill-opacity="0.3" fill="#FFFFFF"></path>
                <path d="M124.977687,11.8529062 C124.852625,13.664875 133.032719,17.0638437 142.371437,17.7179062 C151.710156,18.3669375 166.820437,16.1222812 166.944062,14.3095937 C167.074875,12.5019375 155.128531,9.61184375 145.784781,8.96640625 C136.448937,8.317375 125.106344,10.0402188 124.977687,11.8529062 L124.977687,11.8529062 Z" id="Shape" fill-opacity="0.3" fill="#FFFFFF"></path>
                <path d="M62.1280312,46.4219063 C62.0719687,45.870625 61.2195312,45.471 59.94375,45.2690313 C59.4355937,45.1561875 58.903,45.1137813 58.3488438,45.1188125 C57.5675625,45.100125 56.7100937,45.1281563 55.8159687,45.2273438 C52.4356875,45.5895938 49.7856562,46.7194687 49.8941875,47.7415313 C49.9365937,48.1275 50.3599375,48.4430313 51.0520937,48.6636875 C52.6340625,49.953125 55.2790625,52.1985 55.156875,52.7965 C54.9822188,53.65325 55.8253125,58.97775 55.8253125,58.97775 C55.9237813,59.8912813 57.698375,60.4418438 59.7885,60.2154375 C61.878625,59.9890313 63.4979688,59.0719063 63.3987813,58.1634063 C63.3987812,58.1619687 65.564375,50.0041563 62.1280312,46.4219063 L62.1280312,46.4219063 Z" id="Shape" fill="#FFFFFF"></path>
                <path d="M76.1321563,10.9206875 C76.1084375,10.7129687 75.7835625,10.5584375 75.2940938,10.4829688 C75.0964375,10.4405625 74.8894375,10.421875 74.6824375,10.421875 C74.3812813,10.4168438 74.0520938,10.4312188 73.7078125,10.4642813 C72.4133438,10.6051563 71.3963125,11.0385625 71.4394375,11.4288438 C71.4538125,11.57475 71.6176875,11.6976562 71.8814688,11.78175 C72.4888125,12.27625 73.505125,13.1380313 73.4584063,13.36875 C73.3922813,13.6986563 73.712125,15.7363125 73.712125,15.7363125 C73.7509375,16.0899375 74.428,16.30125 75.233,16.2164375 C76.0372813,16.1273125 76.6546875,15.7787188 76.6165938,15.4258125 C76.6165937,15.4250937 77.449625,12.2949375 76.1321563,10.9206875 L76.1321563,10.9206875 Z" id="Shape" fill="#FFFFFF"></path>
                <path d="M163.274844,46.4219063 C163.330906,45.870625 164.184781,45.471 165.460563,45.2690313 C165.968719,45.1561875 166.504188,45.1137813 167.061219,45.1188125 C167.838188,45.100125 168.6935,45.1281563 169.591938,45.2273438 C172.972219,45.5895938 175.617219,46.7194687 175.510125,47.7415313 C175.467,48.1275 175.043656,48.4430313 174.352937,48.6636875 C172.770969,49.953125 170.125969,52.1985 170.247437,52.7965 C170.420656,53.65325 169.578281,58.97775 169.578281,58.97775 C169.479094,59.8912813 167.705219,60.4418438 165.615094,60.2154375 C163.524969,59.98975 161.905625,59.0719063 162.009844,58.1634063 C162.010562,58.1619687 159.840656,50.0041563 163.274844,46.4219063 L163.274844,46.4219063 Z" id="Shape" fill="#FFFFFF"></path>
                <path d="M143.990781,10.9206875 C144.009469,10.7129687 144.337938,10.5584375 144.827406,10.4829688 C145.022188,10.4405625 145.223438,10.421875 145.4405,10.421875 C145.737344,10.4168438 146.067969,10.4312188 146.410094,10.4642813 C147.710313,10.6051563 148.722312,11.0385625 148.679188,11.4288438 C148.66625,11.57475 148.500219,11.6976562 148.237156,11.78175 C147.629812,12.27625 146.617094,13.1380313 146.664531,13.36875 C146.729938,13.6986563 146.407219,15.7363125 146.407219,15.7363125 C146.369844,16.0899375 145.686313,16.30125 144.884906,16.2164375 C144.085656,16.1273125 143.463219,15.7787188 143.50275,15.4258125 C143.501313,15.4250937 142.672594,12.2949375 143.990781,10.9206875 L143.990781,10.9206875 Z" id="Shape" fill="#FFFFFF"></path>
                <path d="M120.406437,20.6173438 L116.050094,0.43771875 L110.686781,0.43771875 L105.325625,0.43771875 L100.967125,20.6173438 L97.9074062,36.193375 L104.031156,51.1390625 L106.530969,70.009125 L110.686781,70.009125 L114.843312,70.009125 L117.344562,51.1390625 L123.468312,36.193375 L120.406437,20.6173438 Z" id="Shape" fill="#FFFFFF"></path>
            </g>
            <path d="M229.692375,323.039313 C256.203469,323.039313 277.676125,301.507 277.676125,275.054844 C277.676125,247.771813 256.833813,227.070375 229.692375,227.070375 C203.181281,227.070375 181.707906,248.54375 181.707906,275.054844 C181.707906,301.507 203.181281,323.039313 229.692375,323.039313 L229.692375,323.039313 Z M229.692375,347.031187 C197.723094,347.031187 133.724156,363.044937 133.724156,395.015656 L133.724156,419.00825 L325.661313,419.00825 L325.661313,395.015656 C325.661313,363.044937 261.663094,347.031187 229.692375,347.031187 L229.692375,347.031187 Z" id="Shape" fill="#FFFFFF" sketch:type="MSShapeGroup"></path>
        </g>
    </g>
</svg>