<svg width="460" height="460" viewBox="0 0 460 460" xmlns="http://www.w3.org/2000/svg"><title>Slice 2</title><g fill="none" fill-rule="evenodd"><path fill="#00ACC1" d="M0 0h460v460H0z"/><g stroke="#FFF" stroke-width="10"><path d="M228.973 130.332s-4.138.992-10.434 2.71"/><path d="M206.082 136.624a388.406 388.406 0 0 0-9.268 2.93" stroke-dasharray="4.5096,18.0383"/><path d="M190.68 141.652c-23.952 8.473-46.64 20.13-25.804 29.284 32.84 14.43 136.42 9.212 121.17 34.434" stroke-dasharray="27.0575,18.0383,4.5096,18.0383"/><path d="M281.892 210.33c-2.146 2.053-4.942 4.274-8.453 6.68"/></g><path d="M324.327 70.964c-4.59-2.655-14.32-7.156-19.473-8.39-2.59-.62-3.838-4.664-4.977-6.942-.62-1.243 2.904-5.074 2.077-7.353-4.128-7.92-18.26-10.58-24.355-11.54-6-.95-12.86-.77-17.82-.83-7.45-.08-29.79 1.29-29.79 1.29s-22.336-1.37-29.787-1.29c-4.95.056-11.82-.12-17.813.823-6.094.966-20.225 3.624-24.353 11.537-.83 2.28 2.697 6.11 2.076 7.353-1.14 2.277-2.388 6.32-4.976 6.942-5.153 1.232-14.882 5.733-19.472 8.39-4.682 2.71-15.325 11.083-16.093 21.542-.258 3.52 5.9 13.82 8.234 17.1 4.923 6.924 23.036 11.77 31.462 12.813 13.33 1.648 40.1-3.917 50.17-6.444 3.614-.91 13.857-6.38 15.274-9.57 1.255-.395 5.28-.64 5.28-.64s4.024.245 5.28.64c1.416 3.192 11.66 8.662 15.274 9.57 10.07 2.527 36.84 8.092 50.17 6.444 8.427-1.046 26.54-5.89 31.465-12.814 2.336-3.28 8.49-13.58 8.234-17.1-.77-10.46-11.413-18.834-16.096-21.545zM220.525 45.592s1.543 5.81-21.013 9.946c-16.574 3.04-32.593-4.142-32.593-4.142s16.01-11.877 53.6-5.804zm-17.417 55.517c-27.584 6.7-32.32 5.3-46.413 3.12-16.65-2.57-23.88-8.91-23.88-8.91s4.825-11.62 21.97-20.44c19.336-9.946 43.07-12.45 70.964-1.12 0 0 4.25 16.568-22.65 27.34zm36.367-55.52c37.588-6.08 53.606 5.8 53.606 5.8s-16.01 7.18-32.59 4.14c-22.55-4.138-21.01-9.947-21.01-9.947zm63.83 58.64c-14.092 2.17-18.83 3.572-46.414-3.13-26.89-10.77-22.64-27.34-22.64-27.34 27.9-11.33 51.63-8.827 70.97 1.12 17.148 8.82 21.97 20.433 21.97 20.433s-7.23 6.342-23.88 8.912z" fill="#FFF"/><path d="M175.56 87.533l47.958-17.676" stroke="#FFF"/><path d="M196.188 49.268l30.766 7.748" stroke="#FFF" stroke-width=".75"/><path d="M284.486 86.676L236.53 69" stroke="#FFF"/><path d="M263.858 48.406l-30.76 7.754" stroke="#FFF" stroke-width=".75"/><path d="M215.902 77.893c1.262 5.502-8.28 16.597-28.187 21.14-19.902 4.537-42.628.805-43.885-4.698-1.257-5.503 11.83-16.597 31.73-21.14 19.903-4.542 39.09-.805 40.342 4.698zm.198-30.678c.122 1.813-8.06 5.21-17.398 5.865-9.34.645-24.45-1.6-24.572-3.408-.13-1.807 11.82-4.693 21.164-5.347 9.334-.644 20.678 1.078 20.805 2.89zm28.3 31.237c-1.26 5.503 8.283 16.598 28.186 21.14 19.902 4.538 42.633.806 43.89-4.697 1.25-5.503-11.835-16.598-31.737-21.14-19.91-4.543-39.09-.805-40.34 4.697zm-.11-30.662c-.125 1.812 8.055 5.21 17.394 5.865 9.34.65 24.45-1.595 24.573-3.408.13-1.808-11.816-4.698-21.16-5.343-9.336-.65-20.678 1.074-20.807 2.886z" fill-opacity=".3" fill="#FFF"/><path d="M181.44 82.36c-.056-.552-.908-.952-2.184-1.153a7.052 7.052 0 0 0-1.595-.15c-.78-.02-1.63.01-2.53.108-3.38.362-6.03 1.492-5.92 2.514.04.38.47.7 1.16.92 1.58 1.29 4.23 3.53 4.108 4.13-.174.852.67 6.18.67 6.18.097.91 1.872 1.46 3.962 1.24 2.09-.23 3.71-1.15 3.61-2.058 0 0 2.167-8.16-1.27-11.74zm14.005-35.502c-.024-.208-.35-.362-.838-.438a2.93 2.93 0 0 0-.612-.06c-.3-.006-.63.01-.975.042-1.294.14-2.31.574-2.268.964.014.146.178.27.442.353.607.49 1.624 1.35 1.577 1.58-.06.33.26 2.37.26 2.37.04.35.72.56 1.52.48.81-.09 1.42-.44 1.388-.79 0 0 .833-3.13-.484-4.51zm87.142 35.502c.056-.552.91-.952 2.186-1.153a7.087 7.087 0 0 1 1.6-.15c.778-.02 1.633.01 2.53.108 3.382.362 6.027 1.492 5.92 2.514-.043.38-.467.7-1.158.92-1.582 1.29-4.227 3.53-4.105 4.13.173.852-.67 6.18-.67 6.18-.098.91-1.872 1.46-3.962 1.24-2.09-.23-3.71-1.15-3.606-2.058 0 0-2.17-8.16 1.265-11.74zm-19.284-35.502c.02-.208.347-.362.837-.438.195-.042.396-.06.613-.06.297-.006.627.01.97.042 1.3.14 2.312.574 2.27.964-.014.146-.18.27-.443.353-.608.49-1.62 1.35-1.573 1.58.065.33-.257 2.37-.257 2.37-.038.35-.72.56-1.523.48-.8-.09-1.42-.44-1.382-.79 0 0-.83-3.13.488-4.51zm-23.583 9.697l-4.357-20.18h-10.726l-4.358 20.18-3.06 15.576 6.12 14.95 2.5 18.87h8.31l2.5-18.87 6.12-14.94-3.06-15.575zM229.692 323.04c26.51 0 47.984-21.533 47.984-47.985 0-27.283-20.842-47.985-47.984-47.985-26.51 0-47.984 21.474-47.984 47.985 0 26.452 21.473 47.984 47.984 47.984zm0 23.99c-31.97 0-95.968 16.015-95.968 47.986v23.992H325.66v-23.992c0-31.97-63.997-47.985-95.968-47.985z" fill="#FFF"/></g></svg>