<svg width="460" height="460" xmlns="http://www.w3.org/2000/svg" xmlns:xlink="http://www.w3.org/1999/xlink"><defs><path id="a" d="M0 0h460v460H0z"/></defs><clipPath id="b"><use xlink:href="#a" overflow="visible"/></clipPath><path clip-path="url(#b)" fill="#333" d="M0 0h460v460H0z"/><circle clip-path="url(#b)" fill="none" stroke="#EFEFEF" stroke-width="4" stroke-miterlimit="10" cx="230" cy="230" r="183"/><circle clip-path="url(#b)" fill="#44AAE8" cx="168" cy="152" r="24"/><circle clip-path="url(#b)" fill="#61BC2B" cx="456" cy="149" r="24"/><circle clip-path="url(#b)" fill="#44AAE8" cx="144" cy="7" r="24"/><circle clip-path="url(#b)" fill="#E8E6E8" cx="35" cy="136" r="24"/><circle clip-path="url(#b)" fill="#C1E6F8" cx="424" cy="345" r="16"/><circle clip-path="url(#b)" fill="#44AAE8" cx="240" cy="176" r="16"/><circle clip-path="url(#b)" fill="#C1E6F8" cx="384" cy="240" r="16"/><circle clip-path="url(#b)" fill="#44AAE8" cx="112" cy="336" r="16"/><circle clip-path="url(#b)" fill="#C1E6F8" cx="256" cy="72" r="16"/><circle clip-path="url(#b)" fill="#44AAE8" cx="128" cy="112" r="16"/><circle clip-path="url(#b)" fill="#ABDCF6" cx="304" cy="368" r="16"/><circle clip-path="url(#b)" fill="#C13229" cx="27" cy="429" r="16"/><circle clip-path="url(#b)" fill="#F1CF30" cx="59" cy="376" r="16"/><circle clip-path="url(#b)" fill="#E9467C" cx="352" cy="413" r="16"/><circle clip-path="url(#b)" fill="#ABDCF6" cx="144" cy="208" r="16"/><circle clip-path="url(#b)" fill="#C1E6F8" cx="288" cy="256" r="16"/><circle clip-path="url(#b)" fill="#F2CE31" cx="368" cy="40" r="16"/><circle clip-path="url(#b)" fill="#44AAE8" cx="224" cy="304" r="16"/><circle clip-path="url(#b)" fill="#44AAE8" cx="160" cy="289" r="32"/><circle clip-path="url(#b)" fill="#44AAE8" cx="352" cy="160" r="32"/><circle clip-path="url(#b)" fill="#E6AAAB" cx="3" cy="368" r="32"/><circle clip-path="url(#b)" fill="#E8E6E8" cx="120" cy="452" r="32"/><circle clip-path="url(#b)" fill="#C23329" cx="67" cy="56" r="32"/><circle clip-path="url(#b)" fill="#44AAE8" cx="400" cy="452" r="32"/><circle clip-path="url(#b)" fill="#44AAE8" cx="240" cy="368" r="32"/><circle clip-path="url(#b)" fill="#ABDCF6" cx="224" cy="112" r="32"/><circle clip-path="url(#b)" fill="#44AAE8" cx="304" cy="112" r="32"/><circle clip-path="url(#b)" fill="#44AAE8" cx="424" cy="15" r="32"/><circle clip-path="url(#b)" fill="#44AAE8" cx="280" cy="312" r="24"/><circle clip-path="url(#b)" fill="#57BBF0" cx="160" cy="361" r="24"/><circle clip-path="url(#b)" fill="#ABDCF6" cx="88" cy="280" r="24"/><circle clip-path="url(#b)" fill="#44AAE8" cx="328" cy="232" r="24"/><circle clip-path="url(#b)" fill="#C1E6F8" cx="344" cy="329" r="24"/><circle clip-path="url(#b)" fill="#EB5C33" cx="413" cy="96" r="24"/><circle clip-path="url(#b)" fill="#44AAE8" cx="296" cy="184" r="24"/><circle clip-path="url(#b)" fill="#E9467C" cx="320" cy="7" r="24"/><circle clip-path="url(#b)" fill="#99D789" cy="281" r="24"/><circle clip-path="url(#b)" fill="#F2CE31" cx="308" cy="460" r="24"/><circle clip-path="url(#b)" fill="#57BBF0" cx="88" cy="200" r="24"/><circle clip-path="url(#b)" fill="#44AAE8" cx="344" cy="280" r="8"/><circle clip-path="url(#b)" fill="#ABDCF6" cx="136" cy="248" r="8"/><circle clip-path="url(#b)" fill="#44AAE8" cx="184" cy="248" r="8"/><circle clip-path="url(#b)" fill="#44AAE8" cx="232" cy="265" r="8"/><circle clip-path="url(#b)" fill="#44AAE8" cx="184" cy="200" r="8"/><circle clip-path="url(#b)" fill="#F2CE31" cx="432" cy="282" r="8"/><circle clip-path="url(#b)" fill="#E6AAAB" cx="437" cy="400" r="8"/><circle clip-path="url(#b)" fill="#44AAE8" cx="240" cy="444" r="8"/><circle clip-path="url(#b)" fill="#61BC2B" cx="181" cy="436" r="8"/><circle clip-path="url(#b)" fill="#E9467C" cx="432" cy="219" r="8"/><circle clip-path="url(#b)" fill="#E6AAAB" cx="264" cy="23" r="8"/><circle clip-path="url(#b)" fill="#F2CE31" cx="216" cy="24" r="8"/><circle clip-path="url(#b)" fill="#E8E7E6" cx="120" cy="47" r="8"/><circle clip-path="url(#b)" fill="#61BC2B" cx="11" cy="31" r="8"/><circle clip-path="url(#b)" fill="#C1E6F8" cx="104" cy="152" r="8"/><circle clip-path="url(#b)" fill="#44AAE8" cx="192" cy="329" r="8"/><circle clip-path="url(#b)" fill="#44AAE8" cx="19" cy="218" r="8"/><circle clip-path="url(#b)" fill="#44AAE8" cx="43" cy="322" r="8"/><circle clip-path="url(#b)" fill="#44AAE8" cx="72" cy="421" r="8"/><circle clip-path="url(#b)" fill="#57BBF0" cx="312" cy="296" r="8"/><circle clip-path="url(#b)" fill="#44AAE8" cx="264" cy="136" r="8"/><circle clip-path="url(#b)" fill="#57BBF0" cx="181" cy="72" r="8"/><circle clip-path="url(#b)" fill="#57BBF0" cx="376" cy="296" r="8"/><text transform="translate(192 240)" fill="#EFEFEF" font-family="'Trebuchet MS'" font-size="36.776">YOU</text></svg>