<?xml version="1.0" encoding="utf-8"?>
<svg version="1.1" id="Layer_1" xmlns="http://www.w3.org/2000/svg" xmlns:xlink="http://www.w3.org/1999/xlink" x="0px" y="0px"
	 viewBox="0 0 135 135" xml:space="preserve">
<style type="text/css">
	.st0{fill-rule:evenodd;clip-rule:evenodd;fill:#FFFFFF;}
	.st1{fill:#FFFFFF;}
</style>
    <rect x="0" y="0" width="100%" height="100%" fill="#151515"></rect>
<g transform="scale(0.9) translate(6.75,6.75)">
	<path class="st0" d="M67.5,8.6C34.2,8.6,7.1,35.6,7.1,69c0,26.7,17.3,49.3,41.3,57.3c3,0.6,4.1-1.3,4.1-2.9c0-1.4-0.1-6.2-0.1-11.2
		c-16.8,3.7-20.3-7.1-20.3-7.1c-2.7-7-6.7-8.8-6.7-8.8c-5.5-3.7,0.4-3.7,0.4-3.7c6.1,0.4,9.3,6.2,9.3,6.2c5.4,9.2,14.1,6.6,17.6,5
		c0.5-3.9,2.1-6.6,3.8-8.1C43.1,94.2,29,89,29,65.8c0-6.6,2.4-12,6.2-16.2c-0.6-1.5-2.7-7.7,0.6-16c0,0,5.1-1.6,16.6,6.2
		c4.8-1.3,10-2,15.1-2c5.1,0,10.3,0.7,15.1,2c11.5-7.8,16.6-6.2,16.6-6.2c3.3,8.3,1.2,14.5,0.6,16c3.9,4.2,6.2,9.6,6.2,16.2
		c0,23.2-14.1,28.3-27.6,29.8c2.2,1.9,4.1,5.5,4.1,11.2c0,8.1-0.1,14.6-0.1,16.6c0,1.6,1.1,3.5,4.1,2.9c24-8,41.3-30.6,41.3-57.3
		C127.9,35.6,100.9,8.6,67.5,8.6z"/>
	<path class="st1" d="M30,95.3c-0.1,0.3-0.6,0.4-1,0.2c-0.4-0.2-0.7-0.6-0.5-0.9c0.1-0.3,0.6-0.4,1-0.2C29.9,94.6,30.1,95,30,95.3
		L30,95.3z M29.2,94.8"/>
	<path class="st1" d="M32.4,98c-0.3,0.3-0.9,0.1-1.2-0.3c-0.4-0.4-0.5-1-0.2-1.3c0.3-0.3,0.8-0.1,1.2,0.3
		C32.7,97.2,32.7,97.8,32.4,98L32.4,98z M31.9,97.4"/>
	<path class="st1" d="M34.8,101.5c-0.4,0.3-1,0-1.3-0.5c-0.4-0.5-0.4-1.2,0-1.4c0.4-0.3,1,0,1.3,0.5
		C35.2,100.6,35.2,101.2,34.8,101.5L34.8,101.5z M34.8,101.5"/>
	<path class="st1" d="M38.1,104.9c-0.3,0.4-1,0.3-1.6-0.2c-0.5-0.5-0.7-1.2-0.3-1.5c0.3-0.4,1-0.3,1.6,0.2
		C38.3,103.8,38.4,104.5,38.1,104.9L38.1,104.9z M38.1,104.9"/>
	<path class="st1" d="M42.6,106.8c-0.1,0.5-0.8,0.7-1.5,0.5c-0.7-0.2-1.1-0.8-1-1.2c0.1-0.5,0.8-0.7,1.5-0.5
		C42.3,105.8,42.7,106.3,42.6,106.8L42.6,106.8z M42.6,106.8"/>
	<path class="st1" d="M47.5,107.2c0,0.5-0.6,0.9-1.3,0.9c-0.7,0-1.3-0.4-1.3-0.9c0-0.5,0.6-0.9,1.3-0.9
		C46.9,106.3,47.5,106.7,47.5,107.2L47.5,107.2z M47.5,107.2"/>
	<path class="st1" d="M52.1,106.4c0.1,0.5-0.4,1-1.1,1.1c-0.7,0.1-1.3-0.2-1.4-0.7c-0.1-0.5,0.4-1,1.1-1.1
		C51.4,105.6,52,105.9,52.1,106.4L52.1,106.4z M52.1,106.4"/>
</g>
</svg>
