<?xml version="1.0" encoding="UTF-8" standalone="no"?>
<svg width="460px" height="460px" viewBox="0 0 460 460" version="1.1" xmlns="http://www.w3.org/2000/svg" xmlns:xlink="http://www.w3.org/1999/xlink">
    <g id="Page-1" stroke="none" stroke-width="1" fill="none">
        <g id="hc">
            <rect id="Rectangle-path" fill="#5A3E1D" x="0" y="0" width="460" height="460"></rect>
            <g id="Group" transform="translate(10.000000, 10.000000)">
                <g id="Shape">
                    <path d="M422.222222,348.148148 C422.222222,389.058519 389.058519,422.222222 348.148148,422.222222 L92.5925926,422.222222 C51.6822222,422.222222 18.5185185,389.058519 18.5185185,348.148148 L18.5185185,92.5925926 C18.5185185,51.6822222 51.6822222,18.5185185 92.5925926,18.5185185 L348.148148,18.5185185 C389.058519,18.5185185 422.222222,51.6822222 422.222222,92.5925926 L422.222222,348.148148 L422.222222,348.148148 Z" fill="#8A5C29"></path>
                    <path d="M347.700741,37.037037 C378.256296,37.037037 402.962963,61.742963 402.962963,92.2985185 L402.962963,347.700741 C402.962963,378.256296 378.256296,402.962963 347.700741,402.962963 L92.2985185,402.962963 C61.742963,402.962963 37.037037,378.256296 37.037037,347.700741 L37.037037,92.2985185 C37.037037,61.742963 61.742963,37.037037 92.2985185,37.037037 L347.407407,37.037037 L347.700741,37.037037 Z M347.700741,0 L92.2985185,0 C41.242963,0 0,41.242963 0,92.2985185 L0,347.700741 C0,398.757037 41.242963,440 92.2985185,440 L347.700741,440 C398.757037,440 440,398.757037 440,347.700741 L440,92.2985185 C440,41.242963 398.757037,0 347.700741,0 L347.700741,0 L347.700741,0 Z" fill="#5A3E1D"></path>
                    <path d="M347.700741,37.037037 C378.256296,37.037037 402.962963,61.742963 402.962963,92.2985185 L402.962963,347.700741 C402.962963,378.256296 378.256296,402.962963 347.700741,402.962963 L92.2985185,402.962963 C61.742963,402.962963 37.037037,378.256296 37.037037,347.700741 L37.037037,92.2985185 C37.037037,61.742963 61.742963,37.037037 92.2985185,37.037037 L347.407407,37.037037 L347.700741,37.037037 Z M347.700741,9.62962963 L92.2985185,9.62962963 C46.5525926,9.62962963 9.62962963,46.5525926 9.62962963,92.2985185 L9.62962963,347.700741 C9.62962963,393.446667 46.5525926,430.37037 92.2985185,430.37037 L347.700741,430.37037 C393.446667,430.37037 430.37037,393.446667 430.37037,347.700741 L430.37037,92.2985185 C430.37037,46.5525926 393.446667,9.62962963 347.700741,9.62962963 L347.700741,9.62962963 L347.700741,9.62962963 Z" fill="#FFFFFF"></path>
                    <path d="M403.703704,348.148148 C403.703704,378.831111 378.831111,403.703704 348.148148,403.703704 L92.5925926,403.703704 C61.9103704,403.703704 37.037037,378.831111 37.037037,348.148148 L37.037037,92.5925926 C37.037037,61.9103704 61.9103704,37.037037 92.5925926,37.037037 L348.148148,37.037037 C378.831111,37.037037 403.703704,61.9103704 403.703704,92.5925926 L403.703704,348.148148 L403.703704,348.148148 Z" stroke="#5A3E1D" stroke-width="11.4"></path>
                </g>
                <g id="XMLID_1_" transform="translate(82.222222, 71.851852)">
                    <path d="M173.644444,292.223704 C124.223704,292.223704 82.3881481,279.625185 52.6592593,255.78963 C20.5192593,230.021481 3.53111111,192.938519 3.53111111,148.551111 C3.53111111,68.8851852 68.3444444,4.07259259 148.011111,4.07259259 C216.392593,4.07259259 272.025185,59.7051852 272.025185,128.085926 C272.025185,172.702222 244.731852,211.063704 205.962963,227.34963 C208.782222,232.548889 210.382222,238.502963 210.382222,244.832593 L210.382222,255.486667 C210.382222,275.775556 193.934074,292.223704 173.644444,292.223704 L173.644444,292.223704 Z" id="Shape" fill="#FFFFFF"></path>
                    <path d="M173.644444,288.52 C134.951111,288.431852 95.2355556,280.761481 62.7777778,258.706667 C32.2318519,237.95037 13.0348148,204.86963 8.4237037,168.417037 C4.07333333,134.025185 11.7933333,99.3251852 30.962963,70.4037037 C48.9992593,43.1918519 76.7192593,22.9755556 107.92,13.5903704 C140.408889,3.81777778 175.925926,6.26074074 205.85037,22.6140741 C234.731111,38.397037 256.020741,66.0118519 264.448148,97.7518519 C271.065185,122.673333 269.306667,149.588148 258.146667,172.937778 C247.106667,196.036296 227.57037,214.154815 204.093333,224.152593 C202.172593,224.97037 201.923704,227.608889 202.764444,229.22 C206.019259,235.46 206.677778,241.835556 206.677778,248.723704 C206.677778,254.048148 206.834815,259.225185 205.454074,264.426667 C201.665185,278.701481 188.155556,288.320741 173.644444,288.52 C168.871852,288.585926 168.865185,295.993333 173.644444,295.927407 C191.128889,295.687407 206.200741,284.706667 212.018519,268.268148 C214.256296,261.945185 214.085926,255.316296 214.085926,248.722222 C214.085926,240.487407 213.028889,232.897778 209.161481,225.48 C208.718519,227.168889 208.275556,228.858519 207.832593,230.547407 C240.131852,216.791852 264.425926,188.026667 272.7,153.924444 C280.740741,120.781481 272.681481,84.5362963 253.740741,56.5244444 C235.348148,29.3237037 206.535556,9.98444444 174.45037,3.12814815 C141.567407,-3.89925926 106.302963,2.5962963 76.9548148,18.5437037 C48.437037,34.0392593 25.4859259,59.2777778 12.3851852,88.9192593 C-1.89555556,121.231852 -3.93481481,158.505926 5.85851852,192.394815 C15.3651852,225.29037 37.7,252.664444 66.942963,270.142963 C98.8333333,289.203704 136.934815,295.844444 173.644444,295.928889 C178.421481,295.938519 178.420741,288.531111 173.644444,288.52 L173.644444,288.52 Z" id="Shape" fill="#5A3E1D"></path>
                </g>
                <g transform="translate(118.518519, 108.888889)" id="Shape">
                    <path d="M3.97555556,111.511852 C3.97555556,178.474815 53.8333333,218.452593 137.344444,218.452593 L137.344444,207.797778 C60.5074074,207.797778 14.6296296,171.802222 14.6296296,111.511852 C14.6296296,57.977037 58.1762963,14.4311111 111.71037,14.4311111 C153.961481,14.4311111 188.332593,48.8022222 188.332593,91.0533333 C188.332593,124.248889 161.318519,151.26 128.125185,151.26 C102.153333,151.26 81.022963,130.128148 81.022963,104.157778 C81.022963,83.9466667 97.4422222,67.5014815 117.627407,67.5014815 C133.198519,67.5014815 145.865926,80.1688889 145.865926,95.7385185 L156.526667,95.7385185 C156.526667,74.2888889 139.077037,56.8407407 117.627407,56.8407407 C91.5688889,56.8407407 70.3674074,78.0674074 70.3674074,104.157778 C70.3674074,136.008148 96.2748148,161.92 128.125185,161.92 C167.199259,161.92 198.987407,130.128148 198.987407,91.0533333 C198.987407,42.9281481 159.839259,3.77037037 111.71037,3.77037037 C52.302963,3.77037037 3.97555556,52.1037037 3.97555556,111.511852 L3.97555556,111.511852 Z" fill="#8A5C29"></path>
                    <path d="M0.271851852,111.511852 C0.368148148,139.543704 9.54592593,166.708889 29.7955556,186.592593 C51.6296296,208.02963 82.1962963,217.496296 111.942963,220.824444 C120.374074,221.767407 128.863704,222.137037 137.343704,222.156296 C139.362963,222.160741 141.047407,220.468148 141.047407,218.452593 L141.047407,207.797778 C141.047407,205.775556 139.362963,204.099259 137.343704,204.094074 C106.005185,204.019259 72.0266667,198.31037 47.2837037,177.603704 C25.377037,159.27037 16.462963,131.216296 18.68,103.254074 C21.3111111,70.0711111 42.8577778,40.757037 72.6866667,26.6651852 C87.7244444,19.5607407 105.525185,16.4955556 122.031852,18.8348148 C138.474074,21.1651852 153.537037,29.2740741 164.937778,41.2637037 C188.005185,65.5222222 192.508889,106.143704 168.056296,130.985926 C156.414074,142.814074 139.491852,148.892593 122.998519,147.279259 C106.53037,145.668889 92.32,133.453333 86.9985185,118.044444 C81.0844444,100.92 87.3259259,82.3081481 103.915556,74.1874074 C111.717037,70.3681481 121.411852,70.0666667 129.151852,74.0837037 C137.216296,78.2688889 141.999259,86.7859259 142.160741,95.7385185 C142.197037,97.757037 143.817778,99.4422222 145.864444,99.4422222 L156.525185,99.4422222 C158.523704,99.4422222 160.255556,97.7577778 160.228889,95.7385185 C160.01037,79.0525926 150.32963,63.8207407 135.071111,56.897037 C119.737037,49.9392593 101.294074,53.1303704 87.8644444,62.7837037 C58.9192593,83.5896296 61.7437037,125.793333 86.0688889,148.942222 C111.353333,173.002963 151.01037,169.082222 176.538519,147.71037 C203.156296,125.425926 208.673333,87.762963 195.88,56.5814815 C183.182963,25.6362963 154.096296,4.27185185 121.002963,0.557037037 C87.9859259,-3.14888889 54.057037,10.8407407 31.2533333,34.4740741 C11.4,55.0503704 0.407407407,82.9940741 0.271851852,111.511852 C0.248888889,116.28963 7.6562963,116.287407 7.67925926,111.511852 C7.83777778,78.1511111 24.0044444,46.5251852 51.0933333,26.9874074 C77.9674074,7.60444444 115.288148,0.971851852 146.034815,14.8311111 C176.74,28.6718519 196.435556,60.5688889 195.215556,94.177037 C193.97037,128.451111 165.15037,156.423704 131.248889,158.148148 C114.412593,159.004444 98.4562963,152.094815 87.2851852,139.546667 C76.3014815,127.20963 71.4407407,109.128148 75.5,93.06 C79.6051852,76.8118519 93.2703704,64.6740741 109.468889,61.3007407 C126.383704,57.7792593 142.980741,66.4037037 150.072593,82.0325926 C152.006667,86.2948148 152.761481,91.0977778 152.822222,95.7385185 C154.057037,94.5037037 155.291111,93.2696296 156.525926,92.0348148 L145.865185,92.0348148 C147.1,93.2696296 148.334074,94.5037037 149.568889,95.7385185 C149.257037,78.4762963 135.84963,64.7488889 118.66,63.8162963 C102.040741,62.9148148 86.1133333,74.1244444 80.1422222,89.3740741 C73.9496296,105.19037 78.4911111,123.079259 88.677037,136.111111 C99.0059259,149.325926 115.748148,155.803704 132.238519,154.825185 C166.488889,152.792593 192.688889,122.834074 192.006667,88.9651852 C191.326667,55.2333333 168.391852,25.4207407 136.697778,14.7096296 C104.905926,3.96592593 68.3385185,15.097037 43.9822222,36.9385185 C19.4066667,58.9755556 7.89555556,92.2511111 11.7081481,124.79037 C14.7444444,150.702222 27.9459259,173.288889 49.2392593,188.385185 C74.4792593,206.279259 107.071111,211.42963 137.342963,211.501481 C136.108148,210.266667 134.874074,209.032593 133.639259,207.797778 L133.639259,218.452593 C134.874074,217.217778 136.108148,215.983704 137.342963,214.748889 C105.381481,214.677778 71.9748148,209.018519 45.4392593,190.105185 C22.9385185,174.068148 10.2874074,148.721481 8.06,121.485185 C7.78888889,118.167407 7.68962963,114.838519 7.67777778,111.511852 C7.66296296,106.735556 0.255555556,106.734074 0.271851852,111.511852 L0.271851852,111.511852 Z" fill="#5A3E1D"></path>
                </g>
            </g>
        </g>
    </g>
</svg>