<svg width="460" height="460" viewBox="0 0 460 460" xmlns="http://www.w3.org/2000/svg"><g fill="none"><path fill="#5A3E1D" d="M0 0h460v460H0z"/><path d="M432.222 358.148c0 40.91-33.163 74.074-74.074 74.074H102.593c-40.91 0-74.074-33.163-74.074-74.074V102.593c0-40.91 33.16-74.074 74.07-74.074h255.55c40.91 0 74.072 33.16 74.072 74.07v255.55z" fill="#8A5C29"/><path d="M357.7 47.037c30.556 0 55.263 24.706 55.263 55.262v255.4c0 30.55-24.707 55.26-55.262 55.26H102.3c-30.557 0-55.263-24.71-55.263-55.26V102.3c0-30.557 24.706-55.263 55.262-55.263h255.4zm0-37.037H102.3C51.242 10 10 51.243 10 102.3v255.4c0 51.057 41.243 92.3 92.3 92.3h255.4c51.057 0 92.3-41.243 92.3-92.3V102.3c0-51.057-41.243-92.3-92.3-92.3z" fill="#5A3E1D"/><path d="M357.7 47.037c30.556 0 55.263 24.706 55.263 55.262v255.4c0 30.55-24.707 55.26-55.262 55.26H102.3c-30.557 0-55.263-24.71-55.263-55.26V102.3c0-30.557 24.706-55.263 55.262-55.263h255.4zm0-27.407H102.3c-45.747 0-82.67 36.923-82.67 82.67v255.4c0 45.747 36.923 82.67 82.67 82.67h255.4c45.747 0 82.67-36.923 82.67-82.67V102.3c0-45.747-36.923-82.67-82.67-82.67z" fill="#FFF"/><path d="M413.704 358.148c0 30.683-24.873 55.556-55.556 55.556H102.593c-30.683 0-55.556-24.873-55.556-55.556V102.593c0-30.683 24.873-55.556 55.556-55.556h255.555c30.683 0 55.556 24.873 55.556 55.556v255.555z" stroke="#5A3E1D" stroke-width="11.4"/><path d="M265.867 374.076c-49.42 0-91.257-12.6-120.986-36.435-32.14-25.76-49.12-62.85-49.12-107.23 0-79.663 64.817-144.48 144.48-144.48 68.385 0 124.017 55.637 124.017 124.018 0 44.616-27.293 82.978-66.062 99.263a36.562 36.562 0 0 1 4.42 17.484v10.654c0 20.29-16.45 36.738-36.738 36.738z" fill="#FFF"/><path d="M265.867 370.372c-38.694-.088-78.41-7.76-110.867-29.813-30.546-20.76-49.743-53.84-54.354-90.29-4.35-34.4 3.37-69.1 22.54-98.02 18.035-27.21 45.755-47.43 76.956-56.817 32.49-9.77 68.006-7.33 97.93 9.024 28.88 15.783 50.17 43.4 58.598 75.14 6.617 24.92 4.86 51.834-6.3 75.184-11.04 23.097-30.577 41.216-54.054 51.213-1.92.818-2.17 3.457-1.33 5.068 3.255 6.24 3.914 12.617 3.914 19.506 0 5.324.157 10.5-1.224 15.703-3.79 14.272-17.298 23.892-31.81 24.09-4.772.067-4.78 7.474 0 7.408 17.485-.24 32.557-11.22 38.375-27.66 2.24-6.324 2.07-12.953 2.07-19.547 0-8.233-1.05-15.822-4.92-23.24l-1.33 5.067c32.3-13.757 56.597-42.52 64.87-76.625 8.04-33.146-.02-69.39-18.96-97.4-18.39-27.2-47.203-46.54-79.29-53.4-32.88-7.026-68.146-.53-97.494 15.417-28.52 15.493-51.47 40.732-64.57 70.373-14.28 32.314-16.32 69.59-6.526 103.477 9.506 32.895 31.84 60.27 61.084 77.75 31.89 19.06 69.99 25.7 106.7 25.784 4.778.01 4.777-7.397 0-7.41z" fill="#5A3E1D"/><path d="M132.494 230.4c0 66.964 49.858 106.94 133.37 106.94v-10.653c-76.838 0-122.716-35.996-122.716-96.286 0-53.53 43.547-97.08 97.08-97.08 42.252 0 76.623 34.37 76.623 76.63 0 33.197-27.01 60.208-60.2 60.208-25.97 0-47.1-21.132-47.1-47.102 0-20.21 16.42-36.656 36.606-36.656 15.57 0 28.238 12.67 28.238 28.237h10.66c0-21.45-17.447-38.896-38.897-38.896-26.06 0-47.26 21.228-47.26 47.32 0 31.85 25.905 57.76 57.756 57.76 39.074 0 70.86-31.795 70.86-70.87 0-48.125-39.15-87.283-87.276-87.283-59.41 0-107.735 48.333-107.735 107.74z" fill="#8A5C29"/><path d="M128.79 230.4c.097 28.033 9.274 55.198 29.524 75.08 21.834 21.44 52.4 30.905 82.147 34.233 8.44.943 16.93 1.313 25.41 1.332 2.02.005 3.705-1.688 3.705-3.704v-10.65c0-2.02-1.685-3.7-3.704-3.7-31.34-.072-65.317-5.78-90.06-26.49-21.906-18.33-30.82-46.39-28.603-74.35 2.63-33.18 24.177-62.494 54.006-76.59 15.038-7.1 32.84-10.17 49.345-7.83 16.444 2.33 31.507 10.44 42.907 22.43 23.07 24.26 27.57 64.88 3.12 89.72-11.642 11.83-28.565 17.91-45.06 16.297-16.466-1.61-30.676-13.826-36-29.235-5.912-17.124.33-35.736 16.92-43.857 7.8-3.82 17.495-4.12 25.235-.102 8.064 4.186 12.85 12.703 13.01 21.655.035 2.02 1.655 3.705 3.702 3.705h10.66c2 0 3.73-1.685 3.704-3.705-.218-16.686-9.9-31.917-25.157-38.84-15.335-6.96-33.778-3.77-47.208 5.886-28.946 20.808-26.12 63.01-1.797 86.16 25.285 24.06 64.942 20.14 90.47-1.23 26.618-22.285 32.135-59.95 19.342-91.13-12.7-30.945-41.787-52.31-74.88-56.024-33.018-3.708-66.946 10.282-89.75 33.915-19.853 20.577-30.846 48.52-30.98 77.04-.025 4.78 7.383 4.775 7.406 0 .16-33.36 16.327-64.987 43.416-84.525 26.875-19.384 64.196-26.016 94.94-12.157 30.71 13.84 50.403 45.738 49.183 79.346-1.246 34.27-30.066 62.244-63.968 63.97-16.836.854-32.792-6.055-43.963-18.6-10.985-12.34-15.846-30.42-11.786-46.49 4.102-16.25 17.77-28.387 33.965-31.76 16.916-3.52 33.513 5.103 40.605 20.73 1.933 4.264 2.69 9.067 2.75 13.707a4310.69 4310.69 0 0 0 3.702-3.702h-10.66l3.703 3.703c-.31-17.263-13.72-30.99-30.905-31.923-16.62-.9-32.55 10.308-38.52 25.558-6.193 15.817-1.65 33.706 8.535 46.738 10.327 13.216 27.07 19.694 43.56 18.715 34.25-2.033 60.45-31.99 59.77-65.86-.68-33.732-23.617-63.544-55.31-74.255-31.793-10.743-68.36.388-92.716 22.23-24.578 22.035-36.09 55.31-32.276 87.85 3.032 25.91 16.233 48.5 37.53 63.594 25.24 17.893 57.83 23.044 88.1 23.115l-3.703-3.705v10.655l3.703-3.7c-31.96-.07-65.367-5.73-91.9-24.646-22.5-16.038-35.154-41.385-37.38-68.62-.27-3.32-.37-6.648-.384-9.974-.017-4.774-7.424-4.775-7.408 0z" fill="#5A3E1D"/></g></svg>