<svg xmlns="http://www.w3.org/2000/svg" width="600" height="300" viewBox="0 0 600 300"><path fill="#50A3CF" d="M137.97 203.952l.62 2.598c.582 2.45 1.182 4.898 1.75 7.353.587 2.545.305 5.256-.02 7.846a7.227 7.227 0 0 0 1.227-1.36c1.95 4.54 2.977 9.66 3.985 14.68 36.385-5.306 74.623-10.537 113.49-15.35a6.99 6.99 0 0 1-1.85-1.37c-.483-.496-.937-1.09-1.39-1.817-2.42-3.92-1.292-9.6-3.884-13.743-2.985-4.8-9.38-7.784-9.833-13.42 2.935-1.19 5.416-3.5 6.797-6.362-2.108-3.86-7.917-4.91-11.447-2.25-.615.465-1.21 1.05-1.967 1.23-1.382.333-2.663-.735-3.68-1.714-1.312-1.26-2.744-3.022-2.018-4.686.434-1.006 1.513-1.55 2.26-2.35 1.613-1.73 1.32-4.87-.586-6.28-5.124-3.78-5.537 1.695-10.015-5.666-.49-.776-4.17-7.44-6.14-10.668-4.127.907-7.88 3.347-11.43 5.736-16.096 10.8-31.79 22.133-47.34 33.71-5.012 3.74-9.147 6.24-12.98 7.623a32.056 32.056 0 0 1-5.56 6.255zm80.962-53.718c3.503.043 6.823 1.253 9.967 2.988-3.15-1.735-6.47-2.945-9.97-2.988zM3.64 257.404a6781.902 6781.902 0 0 1 44.764-7.387l.21-.887c.327-1.368.22-3.087.687-4.344a4.19 4.19 0 0 1 2 1.348c-1.94-6.185 1.2-13.325 2.65-19.4l2.52-10.577c-.11.452.344 1.44.448 1.878l1.24 5.214c.584 2.45 1.184 4.89 1.75 7.35.59 2.54.307 5.25-.02 7.84a7.193 7.193 0 0 0 1.228-1.357c1.396 3.25 2.318 6.8 3.1 10.394 5.09-.81 10.24-1.624 15.46-2.44l.517-2.167c.16.67.327 1.34.488 2.008a6283.45 6283.45 0 0 1 47.11-7.192c.09-.313.155-.543.17-.604.37-1.55.738-3.102 1.107-4.653.326-1.367.22-3.087.687-4.34a4.19 4.19 0 0 1 2 1.343c-1.945-6.185 1.2-13.325 2.646-19.4l.954-4.012a33.727 33.727 0 0 1-10.343 4.95c-9.42 2.636-19.805 1.13-28.41-3.52-6.22-3.363-11.78-8.67-13.592-15.503-2.28.966-4.084 2.972-4.81 5.342-2.724-1.38-6.03-1.553-8.896-.454a45.35 45.35 0 0 0 1.29-14.32c-2.982 1.714-5.98 3.42-8.973 5.13-1.796-5.81-7.666-9.154-12.8-12.41a105.192 105.192 0 0 1-16.903-13.32 39.58 39.58 0 0 0-1.28 1.31A172.798 172.798 0 0 0 0 207.89v35.85c.188 1.484.14 3.006 0 4.514v1.858a7.18 7.18 0 0 0 .995-1.13c1.138 2.652 1.956 5.507 2.646 8.42z"/><path fill="#FFF" d="M61.6 187.652c2.995-1.714 5.99-3.418 8.976-5.132.333 4.8-.1 9.65-1.29 14.317 2.863-1.1 6.17-.928 8.894.454a8.627 8.627 0 0 1 4.81-5.34c1.816 6.84 7.374 12.14 13.596 15.51 8.603 4.65 18.99 6.15 28.41 3.52a33.738 33.738 0 0 0 10.344-4.95l1.562-6.563c-.107.45.343 1.44.447 1.878l.62 2.617c2.11-1.84 4-3.94 5.56-6.256-8.8 3.177-16.08.484-29.02-6.685a568.038 568.038 0 0 0-66.3-31.295c-3.27-1.29-6.83-2.57-10.238-1.705-2.37.604-4.317 2.167-6.08 3.91a104.985 104.985 0 0 0 16.9 13.32c5.134 3.257 11.003 6.605 12.8 12.412zm157.332-37.418zm12.494 16.728c1.906 1.412 2.2 4.548.585 6.282-.74.796-1.82 1.34-2.25 2.35-.725 1.663.707 3.428 2.018 4.687 1.02.98 2.3 2.05 3.68 1.72.757-.18 1.353-.762 1.968-1.23 3.53-2.66 9.34-1.61 11.448 2.25-1.38 2.86-3.862 5.17-6.796 6.36.455 5.64 6.85 8.62 9.834 13.42 2.594 4.15 1.464 9.82 3.885 13.75.455.727.91 1.32 1.393 1.815a6.952 6.952 0 0 0 1.85 1.37c11.16-1.38 22.37-2.73 33.605-4.035.88-3.376 1.964-6.7 2.703-9.806.17-.72.343-1.44.515-2.16a301069.936 301069.936 0 0 1-58.84-44.98c-2.157-1.647-4.412-3.324-6.77-4.75a39.124 39.124 0 0 0-1.335-.774c-3.144-1.736-6.464-2.946-9.967-2.99a15.53 15.53 0 0 0-1.342.04c-.786.06-1.552.17-2.31.354 1.967 3.228 5.648 9.89 6.133 10.67 4.477 7.36 4.89 1.883 10.014 5.664zm71.942 47.498c1.892-.216 3.784-.43 5.676-.642l-6.587-5.036c.16.682.325 1.362.483 2.044.275 1.19.4 2.406.428 3.633z"/><path fill="#50A3CF" d="M456.408 165.066c8.182 2.39 15.38 9.517 22.746 13.516-7.366-4-14.564-11.126-22.746-13.516z"/><path fill="#50A3CF" d="M504.188 181.768l2.517-10.578c-.107.452.343 1.44.447 1.878l1.24 5.214c.584 2.45 1.183 4.898 1.75 7.353.588 2.545.306 5.256-.02 7.846a7.227 7.227 0 0 0 1.228-1.35c.76 1.77 1.37 3.63 1.904 5.54 30.19-1.067 58.862-1.28 85.273-.433V127.4c-6.876-5.475-10.962-14.293-10.648-23.083.03-.857.11-1.734.31-2.56h-.01c-2.74-.03-5.21 1.52-7.49 3.044a399.156 399.156 0 0 0-77.09 67.31c-2.978 3.37-6.08 6.92-10.31 8.44a14.61 14.61 0 0 1-2.48.658c-.08.28-.17.575-.27.867-2.158 6.14-9.58 9.136-16.035 8.3-3.934-.506-11.195-2.734-12.466-7.23-.634-2.22 2.39-4.497 1.344-6.544-1.382.947-2.754 1.896-4.125 2.843-5.52-3.52-10.24-8.29-13.668-13.864a11.33 11.33 0 0 1-.515-.917h-.01c-10.437 2.106-20.19 10.385-28.228 18.21-7.26 7.044-14.59 14.202-20.67 22.23 35.974-3.126 71.24-5.54 104.81-6.96-.41-5.41 1.99-11.263 3.203-16.366z"/><path d="M93.625 299.37c.04.202.086.418.13.63h49.1c.705-2.967 1.41-5.934 2.117-8.9a6216.698 6216.698 0 0 0-51.457 7.73c.036.18.076.36.11.54zm437.85-46.314c3.11 7.92 4.286 17.048 6.25 25.305a23.35 23.35 0 0 1-2.385 1.35 23.187 23.187 0 0 1-9.103 2.39l.14 7.11-.004.01c-.462 1.27-2.26 1.266-2.712-.01l.14-7.1a23.224 23.224 0 0 1-7.9-1.838 23.306 23.306 0 0 1-3.58-1.9c-.253-.166 1.177-4.944 1.26-5.305L515 267.12c.417-1.75.28-3.945.877-5.55a5.354 5.354 0 0 1 2.555 1.72c-.987-3.14-.94-6.474-.418-9.84-41.025 1.337-84.947 4.285-129.854 8.307a3432.39 3432.39 0 0 0-56.47 5.544c-59.026 6.27-118.362 13.98-173.796 21.94a1006.48 1006.48 0 0 1 2.656 10.77h347l1.08-4.54c.36 1.513.727 3.027 1.092 4.54h69.76l4.91-20.63 6.29-26.424c-18.75-.45-38.566-.39-59.195.11z" fill="#95C94C"/><path fill="#95C94C" d="M529.75 253.098l-.32.01-.043.345c.13-.11.24-.238.364-.355z"/><path fill="#217439" d="M136.573 212.522h.658l.47 23.7c2.6-.382 5.22-.764 7.84-1.146-1.01-5.023-2.035-10.146-3.984-14.685-.35.51-.764.96-1.23 1.36.327-2.59.61-5.3.02-7.84-.566-2.453-1.166-4.9-1.75-7.352l-.62-2.597a33.755 33.755 0 0 1-2.63 2.07c-.32 1.338-.636 2.676-.954 4.014-1.445 6.075-4.59 13.216-2.645 19.4a4.19 4.19 0 0 0-2-1.35c-.466 1.258-.36 2.978-.686 4.346l-1.107 4.65c-.013.06-.08.29-.17.608 2.765-.41 5.538-.823 8.325-1.234l.47-23.934z"/><path fill="#217439" d="M137.35 201.336c-.105-.438-.556-1.426-.448-1.878l-1.562 6.565c.912-.646 1.79-1.34 2.632-2.072l-.623-2.61z"/><path fill="#4F3018" d="M137.23 212.522h-.658l-.472 23.936 1.597-.235-.467-23.7z"/><path fill="#217439" d="M59.878 238.446c.326-2.59.608-5.3.02-7.846-.566-2.454-1.166-4.9-1.75-7.353l-1.24-5.214c-.104-.438-.555-1.426-.447-1.878l-2.51 10.578c-1.442 6.074-4.59 13.215-2.643 19.4a4.193 4.193 0 0 0-2-1.35c-.465 1.258-.36 2.977-.684 4.345l-.21.887c2.43-.393 4.877-.787 7.34-1.182l.388-19.614h.66l.383 19.38c2.33-.377 4.672-.75 7.032-1.127-.782-3.596-1.705-7.145-3.1-10.394a7.11 7.11 0 0 1-1.228 1.36z"/><path fill="#4F3018" d="M56.79 229.22h-.658l-.387 19.615 1.427-.228-.382-19.386z"/><path fill="#217439" d="M0 243.74v4.513c.14-1.508.188-3.03 0-4.514zm.995 5.24A7.12 7.12 0 0 1 0 250.11v7.907c1.206-.204 2.42-.41 3.64-.614-.69-2.914-1.507-5.77-2.645-8.422z"/><path fill="#A7CF49" d="M136.1 236.693l-.15 7.703c.634.033 1.27.033 1.905 0l-.157-7.938c-.532.08-1.067.157-1.597.235z"/><path fill="#217439" d="M80.182 242.877l-.515 2.166 1.003-.157c-.16-.67-.33-1.34-.488-2.01zm13.335 55.953c-2.53.39-5.044.78-7.547 1.17h7.786c-.044-.21-.092-.428-.13-.63-.035-.18-.075-.36-.11-.54z"/><path fill="#217439" d="M80.67 244.885l-1.003.157-11.94 50.17c-.356 1.5-.846 3.134-1.27 4.787h12.488l.7-35.56h1.05L81.4 300h4.572c2.502-.39 5.017-.78 7.547-1.17-3.48-18.092-8.53-36.02-12.85-53.945z"/><path fill="#4F3018" d="M79.646 264.445l-.7 35.555h2.452l-.7-35.555z"/><path fill="#217439" d="M507.534 300h2.173c-.365-1.513-.733-3.027-1.093-4.54l-1.08 4.54zm87.306-64.593l-4.173 17.54c-2.096 8.808-4.192 17.616-6.29 26.424-1.635 6.88-3.27 13.76-4.908 20.63h13.93l.4-20.52.232-11.97h1.56l.237 12 .406 20.5h2.282v-49.55a1287.552 1287.552 0 0 1-3.69-15.05z"/><path fill="#4F3018" d="M593.807 279.478L593.402 300h2.844l-.404-20.498c-.678-.01-1.357-.015-2.035-.024z"/><path fill="#4F3018" d="M595.605 267.508h-1.562l-.236 11.97c.68.01 1.357.014 2.035.024l-.237-11.994z"/><path fill="#217439" d="M157.88 289.23c-2.147-8.53-4.355-17.042-6.38-25.556l-6.527 27.425-2.118 8.9h7.818l.192-9.76.1-5h1.05l.094 4.82.19 9.93h8.23a988.684 988.684 0 0 0-2.66-10.77z"/><path fill="#4F3018" d="M150.865 290.243l-.192 9.757h1.632l-.196-9.937-1.25.18z"/><path fill="#4F3018" d="M150.964 285.243l-.1 5 1.245-.18-.1-4.82h-1.05z"/><path fill="#217439" d="M304.484 219.12a9.2 9.2 0 0 1-1.57 1.733c.09-.713.175-1.434.25-2.158.143-1.408.237-2.83.204-4.237-.03-1.227-.153-2.444-.428-3.633-.158-.682-.322-1.362-.483-2.044-.58-2.45-1.17-4.9-1.753-7.35l-1.585-6.66c-.14-.56-.71-1.82-.58-2.4-.9 3.79-1.804 7.577-2.705 11.36-.17.72-.34 1.44-.514 2.16-.74 3.106-1.822 6.43-2.7 9.807a60.995 60.995 0 0 0-.8 3.45c-.78 3.938-1.035 7.87.12 11.54a5.353 5.353 0 0 0-2.555-1.724c-.594 1.604-.46 3.803-.875 5.55l-1.414 5.95c-.087.36-1.518 5.137-1.263 5.303a23.2 23.2 0 0 0 11.49 3.74l.603-30.6.077-3.83.117-6.01h.84l.118 5.884.08 3.906.605 30.65a23.183 23.183 0 0 0 11.49-3.74c-2.077-8.72-3.245-18.43-6.772-26.64z"/><path fill="#4F3018" d="M297.33 249.5l-.14 7.103c.452 1.273 2.25 1.28 2.712.01l.003-.01-.14-7.103c-.81.043-1.624.043-2.436 0zm1.638-40.438h-.84l-.12 6.008c.36-.04.717-.083 1.076-.124l-.116-5.884z"/><path fill="#4F3018" d="M297.933 218.902l-.604 30.6c.81.04 1.62.04 2.43 0l-.608-30.648-1.228.048z"/><path fill="#4F3018" d="M299.16 218.854l-.076-3.907-1.076.124-.076 3.84 1.23-.05z"/><path fill="#217439" d="M531.474 253.056l-1.723.042c-.12.117-.23.244-.36.354l.04-.346c.4-3.204.71-6.542-.01-9.68-.725-3.14-1.49-6.267-2.236-9.398l-1.586-6.665c-.132-.56-.71-1.822-.57-2.4l-3.22 13.52c-1.11 4.68-3.005 9.853-3.797 14.956-.522 3.36-.57 6.69.42 9.84a5.35 5.35 0 0 0-2.556-1.73c-.596 1.603-.46 3.8-.877 5.55-.474 1.98-.945 3.964-1.417 5.946-.088.36-1.518 5.14-1.264 5.305 1.15.75 2.35 1.375 3.58 1.9a23.177 23.177 0 0 0 7.91 1.84l.04-2.097.53-26.76.23-11.583h.84l.228 11.55.53 26.733.04 2.156a23.195 23.195 0 0 0 9.105-2.395 23.35 23.35 0 0 0 2.382-1.35c-1.964-8.256-3.142-17.385-6.25-25.304z"/><path fill="#217439" d="M530.956 251.72c-.35.5-.763.956-1.205 1.378l1.73-.042c-.172-.445-.33-.9-.52-1.336z"/><path fill="#4F3018" d="M523.8 282.1l-.14 7.103c.453 1.272 2.25 1.278 2.713.01l.004-.01-.14-7.104c-.812.04-1.624.04-2.436 0z"/><path fill="#4F3018" d="M523.843 280.003l-.042 2.096c.82.04 1.63.04 2.44 0l-.04-2.16-2.35.06z"/><path fill="#4F3018" d="M525.667 253.208c-.433.012-.863.022-1.297.035l-.527 26.76c.784-.022 1.568-.04 2.352-.06l-.528-26.735z"/><path fill="#4F3018" d="M525.44 241.66h-.842l-.23 11.583 1.298-.035-.227-11.547z"/><path fill="#217439" d="M513.255 197.66c-.533-1.907-1.145-3.77-1.904-5.537a7.19 7.19 0 0 1-1.22 1.356c.327-2.59.61-5.31.02-7.85-.565-2.46-1.164-4.9-1.75-7.36l-1.24-5.214c-.102-.438-.553-1.426-.445-1.878l-2.517 10.577c-1.214 5.106-3.617 10.96-3.204 16.37.08 1.03.248 2.044.56 3.033a4.198 4.198 0 0 0-2-1.347c-.466 1.258-.36 2.977-.686 4.345l-1.108 4.65c-.068.282-1.188 4.02-.99 4.15a18.15 18.15 0 0 0 8.99 2.926l.354-17.965.27-13.672h.656l.27 13.625.353 18.013a18.145 18.145 0 0 0 8.985-2.926c-1.177-4.94-1.99-10.29-3.392-15.306z"/><path fill="#4F3018" d="M505.643 221.45c.354.995 1.76 1 2.122.007l.003-.007-.11-5.558a18.36 18.36 0 0 1-1.905 0l-.11 5.558zm1.39-37.196h-.656l-.27 13.673 1.196-.047-.27-13.626z"/><path fill="#4F3018" d="M506.107 197.927l-.354 17.966c.635.033 1.27.033 1.906 0l-.36-18.013c-.4.015-.8.03-1.2.047z"/><path fill="#FFF" d="M459.263 179.435c1.37-.947 2.743-1.896 4.125-2.843 1.05 2.047-1.978 4.325-1.342 6.543 1.27 4.497 8.532 6.726 12.466 7.23 6.454.837 13.877-2.158 16.035-8.3.1-.29.19-.584.272-.866-2.23.37-4.4.16-6.53-.45-1.73-.498-3.44-1.25-5.14-2.17-7.37-4-14.568-11.13-22.75-13.52-3.82-1.12-7.615-1.16-11.327-.416.162.324.333.626.515.92 3.43 5.575 8.15 10.345 13.666 13.864zM598.528 127.4v-20.12c-.836-.628-1.672-1.257-2.51-1.885-2.34-1.765-4.89-3.6-7.825-3.64-.2.827-.282 1.704-.312 2.56-.31 8.792 3.78 17.61 10.65 23.085z"/><path d="M136.1 236.458a6327.026 6327.026 0 0 0-55.43 8.427c4.325 17.927 9.367 35.854 12.847 53.945a6210.34 6210.34 0 0 1 51.457-7.73l6.526-27.426c2.026 8.514 4.233 17.027 6.38 25.556 55.436-7.963 114.772-15.67 173.797-21.943a3421.5 3421.5 0 0 1 56.47-5.543c44.907-4.022 88.83-6.97 129.855-8.306.792-5.103 2.686-10.276 3.8-14.955l3.217-13.52c-.14.577.43 1.84.57 2.4l1.58 6.664c.742 3.132 1.51 6.26 2.233 9.397.725 3.14.413 6.477.017 9.68.107 0 .215-.005.32-.008a9.185 9.185 0 0 0 1.207-1.378c.187.436.343.892.52 1.336 20.63-.498 40.443-.558 59.192-.11l4.17-17.54c1.194 5.018 2.43 10.034 3.69 15.05v-53.23c-26.41-.85-55.083-.635-85.273.433 1.405 5.017 2.217 10.363 3.394 15.308a18.148 18.148 0 0 1-8.987 2.926l.108 5.56-.002.01c-.36.998-1.767.99-2.12-.002l.11-5.56a18.15 18.15 0 0 1-8.99-2.924c-.198-.13.92-3.87.99-4.15l1.104-4.653c.326-1.37.22-3.087.687-4.344a4.19 4.19 0 0 1 2 1.348 13.59 13.59 0 0 1-.56-3.03c-33.566 1.42-68.83 3.832-104.81 6.96-28.76 2.5-57.97 5.452-87.13 8.722-1.89.21-3.784.427-5.675.64.033 1.41-.06 2.83-.205 4.24a91.705 91.705 0 0 1-.25 2.157 9.227 9.227 0 0 0 1.57-1.734c3.527 8.212 4.695 17.92 6.77 26.64a23.19 23.19 0 0 1-11.49 3.74l.14 7.104v.01c-.464 1.27-2.26 1.264-2.715-.01l.14-7.103a23.186 23.186 0 0 1-11.49-3.74c-.253-.163 1.177-4.94 1.263-5.3l1.412-5.95c.417-1.75.28-3.946.877-5.552a5.348 5.348 0 0 1 2.552 1.723c-1.155-3.67-.9-7.6-.12-11.537.23-1.153.5-2.305.8-3.45a4484.573 4484.573 0 0 0-33.607 4.034c-38.868 4.813-77.106 10.044-113.49 15.35-2.622.38-5.234.763-7.835 1.146M64.2 247.485l-15.8 2.534a6859.907 6859.907 0 0 0-48.405 8V300H66.45c.424-1.653.914-3.286 1.27-4.786l11.94-50.17c-5.22.816-10.372 1.63-15.46 2.44z" fill="#A7CF49"/></svg>