<?xml version="1.0" encoding="utf-8"?>
<!-- Generator: Adobe Illustrator 16.0.0, SVG Export Plug-In . SVG Version: 6.00 Build 0)  -->
<!DOCTYPE svg PUBLIC "-//W3C//DTD SVG 1.1//EN" "http://www.w3.org/Graphics/SVG/1.1/DTD/svg11.dtd">
<svg version="1.1" id="Objects" xmlns="http://www.w3.org/2000/svg" xmlns:xlink="http://www.w3.org/1999/xlink" x="0px" y="0px"
	 width="600px" height="300px" viewBox="0 0 600 300" enable-background="new 0 0 600 300" xml:space="preserve">
<path fill="#50A3CF" d="M137.971,203.952c0.206,0.866,0.412,1.732,0.618,2.598c0.583,2.451,1.183,4.898,1.75,7.353
	c0.588,2.545,0.306,5.256-0.02,7.846c0.464-0.397,0.878-0.854,1.228-1.356c1.949,4.54,2.977,9.662,3.985,14.685
	c36.385-5.305,74.623-10.536,113.491-15.35c-0.647-0.329-1.263-0.77-1.85-1.371c-0.484-0.494-0.938-1.089-1.392-1.815
	c-2.42-3.922-1.291-9.599-3.883-13.743c-2.985-4.799-9.379-7.784-9.833-13.42c2.935-1.19,5.416-3.499,6.797-6.362
	c-2.108-3.862-7.917-4.911-11.447-2.249c-0.615,0.464-1.21,1.049-1.967,1.23c-1.382,0.332-2.663-0.736-3.681-1.715
	c-1.311-1.26-2.743-3.024-2.017-4.688c0.434-1.008,1.513-1.553,2.259-2.349c1.614-1.734,1.321-4.871-0.585-6.282
	c-5.124-3.781-5.537,1.694-10.015-5.667c-0.484-0.776-4.166-7.441-6.132-10.668c-4.125,0.908-7.877,3.348-11.427,5.737
	c-16.096,10.799-31.789,22.132-47.34,33.708c-5.012,3.741-9.147,6.241-12.98,7.623C141.971,200.011,140.088,202.111,137.971,203.952
	z"/>
<path fill="#50A3CF" d="M218.932,150.234c3.503,0.043,6.823,1.253,9.967,2.988C225.755,151.487,222.435,150.277,218.932,150.234z"/>
<path fill="#50A3CF" d="M3.641,257.403c14.085-2.372,29.051-4.848,44.763-7.386c0.071-0.296,0.141-0.591,0.211-0.887
	c0.326-1.368,0.219-3.087,0.686-4.344c0.779,0.24,1.483,0.716,1.998,1.348c-1.945-6.185,1.2-13.325,2.646-19.399
	c0.839-3.526,1.678-7.052,2.517-10.578c-0.108,0.452,0.343,1.44,0.447,1.878c0.414,1.738,0.827,3.477,1.241,5.214
	c0.583,2.451,1.183,4.898,1.75,7.353c0.588,2.545,0.306,5.256-0.021,7.846c0.465-0.397,0.878-0.854,1.228-1.356
	c1.395,3.249,2.317,6.798,3.1,10.394c5.088-0.81,10.241-1.624,15.461-2.441c0.171-0.722,0.343-1.444,0.515-2.166
	c0.159,0.669,0.327,1.339,0.488,2.008c15.205-2.38,30.946-4.789,47.107-7.194c0.089-0.315,0.155-0.545,0.17-0.606
	c0.369-1.551,0.738-3.102,1.107-4.653c0.325-1.368,0.219-3.088,0.686-4.344c0.779,0.24,1.484,0.716,1.999,1.348
	c-1.946-6.185,1.2-13.325,2.645-19.399c0.318-1.338,0.637-2.675,0.955-4.013c-3.134,2.22-6.649,3.914-10.344,4.951
	c-9.419,2.632-19.808,1.129-28.41-3.52c-6.223-3.367-11.78-8.671-13.595-15.507c-2.279,0.968-4.084,2.974-4.811,5.344
	c-2.723-1.382-6.031-1.553-8.895-0.454c1.19-4.668,1.624-9.519,1.291-14.317c-2.985,1.714-5.98,3.418-8.976,5.132
	c-1.795-5.808-7.665-9.155-12.798-12.412c-6.071-3.852-11.75-8.318-16.903-13.32c-0.434,0.424-0.867,0.867-1.281,1.311
	C18.15,176.387,7.775,191.519,0,207.89v35.85c0.188,1.484,0.14,3.006,0,4.514v1.858c0.367-0.344,0.707-0.716,0.995-1.129
	C2.133,251.634,2.951,254.489,3.641,257.403z"/>
<path fill="#FFFFFF" d="M61.6,187.652c2.995-1.714,5.991-3.418,8.976-5.132c0.333,4.799-0.101,9.649-1.291,14.317
	c2.864-1.099,6.172-0.928,8.895,0.454c0.726-2.37,2.531-4.376,4.811-5.344c1.815,6.836,7.373,12.14,13.595,15.507
	c8.603,4.648,18.991,6.151,28.41,3.52c3.694-1.037,7.21-2.731,10.344-4.951c0.521-2.188,1.042-4.377,1.562-6.565
	c-0.107,0.452,0.343,1.44,0.447,1.878c0.208,0.872,0.415,1.744,0.623,2.616c2.117-1.841,4-3.94,5.561-6.256
	c-8.794,3.176-16.076,0.483-29.015-6.686c-21.391-11.848-43.559-22.303-66.301-31.297c-3.268-1.291-6.828-2.571-10.236-1.704
	c-2.37,0.605-4.317,2.168-6.082,3.912c5.153,5.001,10.832,9.468,16.903,13.32C53.935,178.497,59.804,181.845,61.6,187.652z"/>
<path fill="#FFFFFF" d="M218.932,150.234c-0.445-0.006-0.893,0.007-1.343,0.041c-0.787,0.06-1.553,0.171-2.309,0.353
	c0.756-0.181,1.522-0.292,2.31-0.353C218.04,150.242,218.487,150.228,218.932,150.234z"/>
<path fill="#FFFFFF" d="M231.426,166.962c1.906,1.412,2.199,4.548,0.585,6.282c-0.747,0.796-1.826,1.341-2.259,2.349
	c-0.726,1.664,0.706,3.429,2.017,4.688c1.019,0.979,2.299,2.047,3.681,1.715c0.756-0.182,1.352-0.767,1.967-1.23
	c3.53-2.662,9.339-1.613,11.447,2.249c-1.382,2.863-3.863,5.172-6.797,6.362c0.454,5.636,6.848,8.621,9.833,13.42
	c2.592,4.145,1.462,9.821,3.883,13.743c0.454,0.727,0.908,1.321,1.392,1.815c0.586,0.602,1.203,1.042,1.85,1.371
	c11.161-1.382,22.372-2.73,33.606-4.036c0.879-3.376,1.962-6.701,2.701-9.806c0.171-0.72,0.342-1.439,0.514-2.158
	c-19.616-14.994-39.232-29.988-58.841-44.982c-2.156-1.645-4.411-3.322-6.768-4.748c-0.442-0.268-0.888-0.526-1.336-0.774
	c-3.144-1.735-6.464-2.945-9.967-2.988c-0.444-0.006-0.892,0.008-1.343,0.041c-0.787,0.06-1.553,0.171-2.31,0.353
	c1.966,3.227,5.647,9.892,6.132,10.668C225.889,168.656,226.302,163.181,231.426,166.962z"/>
<path fill="#FFFFFF" d="M303.368,214.459c1.892-0.215,3.784-0.429,5.676-0.641c-2.196-1.678-4.391-3.357-6.587-5.036
	c0.161,0.682,0.325,1.362,0.483,2.044C303.215,212.015,303.339,213.232,303.368,214.459z"/>
<path fill="#50A3CF" d="M456.408,165.066c8.182,2.39,15.38,9.517,22.746,13.516C471.788,174.583,464.59,167.456,456.408,165.066z"/>
<path fill="#50A3CF" d="M504.188,181.768c0.839-3.526,1.678-7.052,2.517-10.578c-0.107,0.452,0.343,1.44,0.447,1.878
	c0.413,1.738,0.827,3.477,1.24,5.214c0.584,2.451,1.183,4.898,1.75,7.353c0.588,2.545,0.306,5.256-0.02,7.846
	c0.464-0.397,0.878-0.854,1.228-1.356c0.759,1.769,1.371,3.63,1.904,5.536c30.189-1.068,58.862-1.282,85.273-0.434V127.4
	c-6.876-5.475-10.962-14.293-10.648-23.083c0.03-0.857,0.111-1.734,0.312-2.561h-0.01c-2.733-0.03-5.204,1.522-7.483,3.045
	c-28.45,19.006-54.43,41.693-77.092,67.304c-2.976,3.368-6.081,6.917-10.308,8.439c-0.837,0.303-1.664,0.514-2.48,0.655
	c-0.081,0.282-0.172,0.575-0.272,0.867c-2.158,6.141-9.581,9.136-16.035,8.299c-3.934-0.505-11.195-2.733-12.466-7.23
	c-0.636-2.218,2.391-4.496,1.342-6.543c-1.382,0.947-2.754,1.896-4.125,2.843c-5.517-3.519-10.237-8.288-13.666-13.864
	c-0.182-0.292-0.353-0.595-0.515-0.918h-0.01c-10.438,2.107-20.19,10.386-28.229,18.21c-7.259,7.045-14.587,14.203-20.669,22.231
	c35.976-3.126,71.243-5.54,104.81-6.959C500.571,192.726,502.974,186.871,504.188,181.768z"/>
<g>
	<path fill="#95C94C" d="M93.625,299.37c0.039,0.202,0.086,0.418,0.13,0.63h49.099c0.706-2.967,1.412-5.934,2.118-8.9
		c-17.637,2.573-34.837,5.163-51.457,7.73C93.551,299.01,93.591,299.189,93.625,299.37z"/>
	<path fill="#95C94C" d="M531.474,253.056c3.11,7.919,4.287,17.048,6.251,25.305c-0.772,0.504-1.572,0.944-2.385,1.348
		c-2.876,1.428-5.974,2.227-9.103,2.391l0.14,7.104l-0.004,0.01c-0.462,1.269-2.26,1.263-2.712-0.01l0.14-7.104
		c-2.7-0.142-5.375-0.756-7.908-1.838c-1.232-0.527-2.433-1.151-3.581-1.9c-0.254-0.166,1.176-4.944,1.262-5.305
		c0.472-1.982,0.943-3.965,1.415-5.947c0.417-1.749,0.281-3.946,0.877-5.552c0.996,0.307,1.896,0.914,2.555,1.722
		c-0.988-3.141-0.941-6.475-0.419-9.84c-41.026,1.336-84.948,4.284-129.855,8.306c-18.7,1.675-37.568,3.534-56.47,5.543
		c-59.026,6.272-118.362,13.98-173.796,21.943c0.903,3.586,1.793,7.176,2.656,10.77h53.206h293.793c0.36-1.513,0.72-3.027,1.08-4.54
		c0.36,1.513,0.728,3.027,1.093,4.54h69.762c1.636-6.876,3.272-13.752,4.909-20.629c2.096-8.809,4.192-17.617,6.289-26.425
		C571.918,252.498,552.103,252.558,531.474,253.056z"/>
</g>
<path fill="#95C94C" d="M529.751,253.098c-0.107,0.003-0.215,0.006-0.322,0.009c-0.014,0.115-0.027,0.231-0.042,0.346
	C529.516,253.342,529.628,253.215,529.751,253.098z"/>
<path fill="#217439" d="M136.573,212.522h0.658l0.467,23.701c2.601-0.383,5.213-0.765,7.834-1.147
	c-1.008-5.023-2.036-10.146-3.985-14.685c-0.35,0.502-0.764,0.959-1.228,1.356c0.326-2.59,0.608-5.301,0.02-7.846
	c-0.567-2.454-1.167-4.901-1.75-7.353c-0.206-0.866-0.412-1.732-0.618-2.598c-0.842,0.733-1.72,1.425-2.632,2.072
	c-0.318,1.337-0.637,2.675-0.955,4.013c-1.445,6.074-4.591,13.215-2.645,19.399c-0.515-0.632-1.219-1.107-1.999-1.348
	c-0.466,1.256-0.36,2.976-0.686,4.344c-0.37,1.552-0.738,3.103-1.107,4.653c-0.015,0.062-0.081,0.292-0.17,0.606
	c2.763-0.411,5.536-0.822,8.323-1.233L136.573,212.522z"/>
<path fill="#217439" d="M137.349,201.336c-0.104-0.438-0.555-1.426-0.447-1.878c-0.521,2.188-1.042,4.377-1.562,6.565
	c0.912-0.646,1.79-1.339,2.632-2.072C137.764,203.08,137.556,202.208,137.349,201.336z"/>
<path fill="#4F3018" d="M137.23,212.522h-0.658l-0.472,23.936c0.531-0.078,1.065-0.157,1.597-0.235L137.23,212.522z"/>
<path fill="#217439" d="M59.878,238.446c0.326-2.59,0.608-5.301,0.021-7.846c-0.567-2.454-1.167-4.901-1.75-7.353
	c-0.414-1.737-0.827-3.476-1.241-5.214c-0.104-0.438-0.555-1.426-0.447-1.878c-0.839,3.526-1.678,7.052-2.517,10.578
	c-1.445,6.074-4.591,13.215-2.646,19.399c-0.515-0.632-1.219-1.107-1.998-1.348c-0.467,1.257-0.36,2.976-0.686,4.344
	c-0.07,0.296-0.141,0.591-0.211,0.887c2.43-0.393,4.878-0.787,7.342-1.182l0.387-19.614h0.658l0.382,19.386
	c2.33-0.373,4.674-0.748,7.034-1.123c-0.782-3.596-1.705-7.145-3.1-10.394C60.757,237.592,60.343,238.049,59.878,238.446z"/>
<path fill="#4F3018" d="M56.79,229.221h-0.658l-0.387,19.614c0.474-0.076,0.952-0.152,1.427-0.228L56.79,229.221z"/>
<path fill="#217439" d="M0,243.739v4.514C0.14,246.745,0.188,245.223,0,243.739z"/>
<path fill="#217439" d="M0.995,248.981c-0.288,0.413-0.627,0.786-0.995,1.129v7.907c1.206-0.204,2.421-0.409,3.641-0.614
	C2.951,254.489,2.133,251.634,0.995,248.981z"/>
<path fill="#A7CF49" d="M136.101,236.693l-0.152,7.703c0.635,0.033,1.271,0.033,1.906,0l-0.157-7.938
	C137.166,236.537,136.631,236.615,136.101,236.693z"/>
<path fill="#217439" d="M80.182,242.877c-0.172,0.722-0.344,1.444-0.515,2.166c0.335-0.052,0.667-0.105,1.003-0.157
	C80.509,244.216,80.341,243.546,80.182,242.877z"/>
<path fill="#217439" d="M93.517,298.83c-2.53,0.391-5.044,0.781-7.547,1.17h7.786c-0.044-0.211-0.092-0.428-0.13-0.63
	C93.591,299.189,93.551,299.01,93.517,298.83z"/>
<path fill="#217439" d="M80.67,244.885c-0.336,0.052-0.668,0.105-1.003,0.157c-3.98,16.724-7.959,33.448-11.939,50.171
	c-0.357,1.5-0.847,3.133-1.27,4.786h12.487l0.701-35.555h1.05L81.398,300h4.572c2.502-0.39,5.017-0.78,7.547-1.17
	C90.037,280.738,84.994,262.811,80.67,244.885z"/>
<polygon fill="#4F3018" points="79.646,264.445 78.945,300 81.398,300 80.697,264.445 "/>
<path fill="#217439" d="M507.534,300h2.173c-0.365-1.513-0.733-3.027-1.093-4.54C508.254,296.973,507.894,298.487,507.534,300z"/>
<path fill="#217439" d="M594.84,235.407c-1.391,5.846-2.782,11.692-4.173,17.539c-2.096,8.809-4.192,17.617-6.289,26.425
	c-1.636,6.876-3.272,13.752-4.909,20.629h13.933l0.404-20.522l0.236-11.97h1.562l0.236,11.994L596.246,300h2.282v-20.448v-26.385
	v-2.71C597.271,245.44,596.033,240.424,594.84,235.407z"/>
<path fill="#4F3018" d="M593.807,279.478L593.402,300h2.844l-0.404-20.498C595.164,279.492,594.485,279.487,593.807,279.478z"/>
<path fill="#4F3018" d="M595.605,267.508h-1.562l-0.236,11.97c0.679,0.009,1.357,0.014,2.035,0.024L595.605,267.508z"/>
<path fill="#217439" d="M157.88,289.23c-2.147-8.529-4.355-17.042-6.381-25.556c-2.175,9.142-4.351,18.283-6.526,27.425
	c-0.706,2.967-1.412,5.934-2.118,8.9h7.818l0.192-9.757l0.099-5h1.05l0.095,4.82l0.196,9.937h8.231
	C159.673,296.406,158.783,292.817,157.88,289.23z"/>
<path fill="#4F3018" d="M150.865,290.243L150.673,300h1.632l-0.196-9.937C151.695,290.123,151.279,290.183,150.865,290.243z"/>
<path fill="#4F3018" d="M150.964,285.243l-0.099,5c0.414-0.06,0.83-0.12,1.244-0.18l-0.095-4.82H150.964z"/>
<path fill="#217439" d="M304.484,219.12c-0.447,0.642-0.976,1.226-1.569,1.733c0.09-0.713,0.174-1.434,0.248-2.158
	c0.144-1.408,0.238-2.829,0.205-4.237c-0.029-1.227-0.153-2.444-0.428-3.633c-0.158-0.682-0.322-1.362-0.483-2.044
	c-0.579-2.452-1.17-4.902-1.753-7.354c-0.528-2.222-1.057-4.442-1.585-6.664c-0.133-0.56-0.709-1.822-0.571-2.4
	c-0.901,3.787-1.803,7.575-2.704,11.362c-0.171,0.719-0.342,1.438-0.514,2.158c-0.739,3.105-1.822,6.43-2.701,9.806
	c-0.298,1.147-0.569,2.298-0.798,3.451c-0.782,3.937-1.036,7.869,0.118,11.538c-0.658-0.809-1.559-1.415-2.554-1.723
	c-0.596,1.605-0.46,3.804-0.877,5.552c-0.472,1.983-0.943,3.966-1.415,5.948c-0.086,0.359-1.517,5.138-1.262,5.304
	c3.505,2.29,7.476,3.529,11.488,3.74l0.604-30.599l0.076-3.831l0.119-6.008h0.841l0.116,5.884l0.077,3.907l0.604,30.647
	c4.013-0.21,7.983-1.449,11.489-3.74C309.179,237.041,308.011,227.332,304.484,219.12z"/>
<path fill="#4F3018" d="M297.329,249.5l-0.14,7.103c0.453,1.273,2.251,1.279,2.713,0.01l0.003-0.01l-0.14-7.103
	C298.954,249.543,298.141,249.543,297.329,249.5z"/>
<path fill="#4F3018" d="M298.968,209.062h-0.841l-0.119,6.008c0.359-0.041,0.717-0.083,1.076-0.124L298.968,209.062z"/>
<path fill="#4F3018" d="M297.933,218.902l-0.604,30.599c0.812,0.042,1.625,0.042,2.436,0l-0.604-30.647
	C298.751,218.87,298.342,218.886,297.933,218.902z"/>
<path fill="#4F3018" d="M299.161,218.854l-0.077-3.907c-0.359,0.042-0.717,0.083-1.076,0.124l-0.076,3.831
	C298.342,218.886,298.751,218.87,299.161,218.854z"/>
<path fill="#217439" d="M531.474,253.056c-0.574,0.014-1.147,0.028-1.723,0.042c-0.123,0.117-0.235,0.244-0.364,0.354
	c0.015-0.115,0.028-0.23,0.042-0.346c0.396-3.204,0.708-6.542-0.017-9.681c-0.725-3.138-1.491-6.266-2.236-9.397
	c-0.528-2.222-1.058-4.443-1.586-6.665c-0.133-0.559-0.709-1.822-0.571-2.4c-1.072,4.507-2.145,9.014-3.218,13.521
	c-1.113,4.679-3.007,9.852-3.799,14.955c-0.522,3.365-0.569,6.699,0.419,9.84c-0.658-0.808-1.559-1.415-2.555-1.722
	c-0.596,1.605-0.46,3.803-0.877,5.552c-0.472,1.982-0.943,3.965-1.415,5.947c-0.086,0.36-1.516,5.139-1.262,5.305
	c1.147,0.75,2.349,1.374,3.581,1.9c2.533,1.083,5.208,1.697,7.908,1.838l0.042-2.096l0.527-26.76l0.229-11.582h0.841l0.228,11.547
	l0.527,26.734l0.042,2.157c3.128-0.164,6.226-0.963,9.103-2.391c0.813-0.404,1.613-0.844,2.385-1.348
	C535.761,270.104,534.583,260.975,531.474,253.056z"/>
<path fill="#217439" d="M530.956,251.72c-0.35,0.501-0.763,0.956-1.205,1.378c0.575-0.014,1.149-0.028,1.723-0.042
	C531.299,252.611,531.143,252.156,530.956,251.72z"/>
<path fill="#4F3018" d="M523.801,282.099l-0.14,7.104c0.452,1.272,2.25,1.278,2.712,0.01l0.004-0.01l-0.14-7.104
	C525.425,282.142,524.613,282.142,523.801,282.099z"/>
<path fill="#4F3018" d="M523.843,280.003l-0.042,2.096c0.812,0.042,1.624,0.042,2.436,0l-0.042-2.157
	C525.411,279.964,524.626,279.98,523.843,280.003z"/>
<path fill="#4F3018" d="M525.667,253.208c-0.433,0.012-0.863,0.022-1.297,0.035l-0.527,26.76c0.784-0.022,1.568-0.039,2.352-0.061
	L525.667,253.208z"/>
<path fill="#4F3018" d="M525.439,241.661h-0.841l-0.229,11.582c0.434-0.012,0.864-0.023,1.297-0.035L525.439,241.661z"/>
<path fill="#217439" d="M513.255,197.659c-0.533-1.906-1.145-3.768-1.904-5.536c-0.35,0.502-0.764,0.959-1.228,1.356
	c0.325-2.59,0.607-5.301,0.02-7.846c-0.567-2.454-1.166-4.901-1.75-7.353c-0.413-1.737-0.827-3.476-1.24-5.214
	c-0.104-0.438-0.555-1.426-0.447-1.878c-0.839,3.526-1.678,7.052-2.517,10.578c-1.214,5.104-3.617,10.958-3.204,16.368
	c0.079,1.029,0.248,2.043,0.559,3.032c-0.515-0.632-1.22-1.107-1.998-1.348c-0.467,1.257-0.36,2.976-0.687,4.344
	c-0.369,1.552-0.737,3.103-1.106,4.653c-0.067,0.282-1.187,4.021-0.988,4.15c2.743,1.792,5.849,2.761,8.989,2.926l0.354-17.966
	l0.27-13.673h0.657l0.269,13.625l0.355,18.013c3.139-0.165,6.246-1.134,8.988-2.926C515.47,208.022,514.658,202.676,513.255,197.659
	z"/>
<path fill="#4F3018" d="M505.643,221.45c0.354,0.995,1.761,1,2.122,0.007l0.003-0.007l-0.109-5.558
	c-0.635,0.033-1.271,0.033-1.906,0L505.643,221.45z"/>
<path fill="#4F3018" d="M507.034,184.254h-0.657l-0.27,13.673c0.399-0.016,0.798-0.032,1.196-0.047L507.034,184.254z"/>
<path fill="#4F3018" d="M506.107,197.927l-0.354,17.966c0.635,0.033,1.271,0.033,1.906,0l-0.355-18.013
	C506.905,197.895,506.506,197.911,506.107,197.927z"/>
<path fill="#FFFFFF" d="M459.263,179.435c1.371-0.947,2.743-1.896,4.125-2.843c1.049,2.047-1.978,4.325-1.342,6.543
	c1.271,4.497,8.532,6.726,12.466,7.23c6.454,0.837,13.877-2.158,16.035-8.299c0.101-0.292,0.191-0.585,0.272-0.867
	c-2.228,0.371-4.394,0.162-6.525-0.445c-1.731-0.493-3.44-1.25-5.14-2.172c-7.366-3.999-14.563-11.126-22.746-13.516
	c-3.822-1.119-7.614-1.16-11.326-0.414c0.162,0.323,0.333,0.625,0.515,0.918C449.025,171.146,453.746,175.916,459.263,179.435z"/>
<path fill="#FFFFFF" d="M598.528,127.4v-20.12c-0.836-0.628-1.672-1.257-2.509-1.885c-2.34-1.765-4.891-3.6-7.826-3.64
	c-0.201,0.827-0.282,1.704-0.312,2.561C587.566,113.107,591.652,121.925,598.528,127.4z"/>
<g>
	<path fill="#A7CF49" d="M136.101,236.458c-2.787,0.411-5.56,0.822-8.323,1.233c-16.161,2.405-31.902,4.814-47.107,7.194
		c4.324,17.926,9.366,35.853,12.846,53.944c16.62-2.567,33.819-5.157,51.457-7.73c2.175-9.142,4.351-18.283,6.526-27.425
		c2.026,8.514,4.233,17.027,6.381,25.556c55.435-7.963,114.771-15.671,173.796-21.943c18.902-2.009,37.771-3.868,56.47-5.543
		c44.907-4.022,88.83-6.97,129.855-8.306c0.792-5.103,2.686-10.276,3.799-14.955c1.073-4.507,2.146-9.014,3.218-13.521
		c-0.138,0.578,0.438,1.842,0.571,2.4c0.528,2.222,1.058,4.443,1.586,6.665c0.745,3.132,1.512,6.26,2.236,9.397
		c0.725,3.139,0.413,6.477,0.017,9.681c0.107-0.002,0.215-0.006,0.322-0.009c0.442-0.422,0.855-0.876,1.205-1.378
		c0.187,0.436,0.343,0.892,0.518,1.336c20.629-0.498,40.444-0.558,59.193-0.11c1.391-5.846,2.782-11.692,4.173-17.539
		c1.193,5.017,2.431,10.033,3.688,15.05v-53.232c-26.411-0.849-55.083-0.634-85.273,0.434c1.403,5.017,2.215,10.363,3.392,15.308
		c-2.743,1.792-5.849,2.761-8.988,2.926l0.109,5.558l-0.003,0.007c-0.361,0.993-1.768,0.988-2.122-0.007l0.11-5.558
		c-3.14-0.165-6.246-1.134-8.989-2.926c-0.198-0.13,0.921-3.868,0.988-4.15c0.369-1.551,0.737-3.102,1.106-4.653
		c0.326-1.368,0.22-3.087,0.687-4.344c0.778,0.24,1.483,0.716,1.998,1.348c-0.311-0.988-0.48-2.003-0.559-3.032
		c-33.567,1.419-68.833,3.833-104.81,6.959c-28.761,2.5-57.972,5.454-87.13,8.724c-1.893,0.212-3.785,0.426-5.676,0.641
		c0.033,1.408-0.061,2.829-0.205,4.237c-0.074,0.724-0.158,1.445-0.248,2.158c0.594-0.508,1.122-1.092,1.569-1.733
		c3.526,8.212,4.694,17.921,6.77,26.641c-3.505,2.291-7.476,3.529-11.489,3.74l0.14,7.103l-0.003,0.01
		c-0.462,1.27-2.26,1.264-2.713-0.01l0.14-7.103c-4.013-0.21-7.983-1.45-11.488-3.74c-0.254-0.166,1.176-4.944,1.262-5.304
		c0.472-1.982,0.943-3.965,1.415-5.948c0.417-1.748,0.281-3.946,0.877-5.552c0.996,0.308,1.896,0.914,2.554,1.723
		c-1.154-3.669-0.9-7.601-0.118-11.538c0.229-1.152,0.5-2.304,0.798-3.451c-11.234,1.305-22.445,2.654-33.606,4.036
		c-38.868,4.814-77.106,10.045-113.491,15.35c-2.621,0.382-5.233,0.764-7.834,1.147"/>
	<path fill="#A7CF49" d="M64.206,247.484l-15.803,2.533c-15.712,2.539-30.677,5.014-44.763,7.386
		c-1.22,0.206-2.435,0.411-3.641,0.614v14.391V300h66.458c0.423-1.653,0.913-3.286,1.27-4.786
		c3.979-16.724,7.959-33.448,11.939-50.171C74.447,245.86,69.294,246.674,64.206,247.484z"/>
</g>
</svg>
