<svg width="100%" height="100%" viewBox="0 0 36 36" id="linkedin" version="1.1" xmlns="http://www.w3.org/2000/svg" xmlns:xlink="http://www.w3.org/1999/xlink">
    <rect fill="#007BB6" width="36" height="36" />
    <path fill="#FFFFFF" d="M5.334,13.496h5.345v17.18H5.334V13.496z M8.008,4.956c1.708,0,3.095,1.387,3.095,3.096 s-1.387,3.097-3.095,3.097c-1.715,0-3.098-1.387-3.098-3.097C4.91,6.343,6.293,4.956,8.008,4.956" />
    <path fill="#FFFFFF" d="M14.028,13.496h5.118v2.349h0.073c0.712-1.351,2.454-2.775,5.052-2.775c5.406,0,6.404,3.557,6.404,8.184 v9.422h-5.338v-8.354c0-1.992-0.034-4.555-2.774-4.555c-2.778,0-3.202,2.17-3.202,4.413v8.497h-5.333V13.496z" />
</svg>
