<svg version="1.1" xmlns="http://www.w3.org/2000/svg" xmlns:xlink="http://www.w3.org/1999/xlink" width="100%" height="100%" viewBox="0 0 600 300" preserveAspectRatio="xMaxYMax meet"><defs><g id="wing"><rect width="50" height="20" x="10" y="10" stroke="#efefef" stroke-width="2" fill="#4F5A8F" /><line x1="10" x2="60" y1="20" y2="20" stroke="#efefef" stroke-width="2" /><line x1="20" x2="20" y1="10" y2="30" stroke="#efefef" stroke-width="2" /><line x1="30" x2="30" y1="10" y2="30" stroke="#efefef" stroke-width="2" /><line x1="40" x2="40" y1="10" y2="30" stroke="#efefef" stroke-width="2" /><line x1="50" x2="50" y1="10" y2="30" stroke="#efefef" stroke-width="2" /></g><symbol id="satellite"><rect width="50" height="5" x="50" y="17.5" fill="#efefef" /><use xlink:href="#wing" /><polygon points="10,1 20,1 25,6 25,16 20,21 10,21 5,16 5,6" fill="#efefef" transform="translate(65)" /><rect width="20" height="20" x="5" y="10" fill="#efefef" transform="translate(65)" /><path stroke="none" d="M0,40 C15,20 30,40 30,40" fill="#efefef" transform="translate(65)" /><use xlink:href="#wing" x="90" /><path d="M77.5,40 82.5,40 80,50" fill="#efefef" /><circle cx="80" cy="50" r="1" fill="#efefef" /></symbol><radialGradient id="star-grad" cx="50%" cy="50%" r="50%" fx="50%" fy="50%"><stop offset="0%" stop-color="rgba(225,225,225,1)" /><stop offset="65%" stop-color="rgba(225,225,225,0.2)" /><stop offset="90%" stop-color="rgba(225,225,225,0)" /></radialGradient><circle r="10" cx="10" cy="10" fill="url(#star-grad)" id="star" /></defs><use xlink:href="#star" /><use xlink:href="#star" transform="scale(1.25) translate(200)" /><use xlink:href="#star" transform="scale(.5) translate(1000, 50)" /><use xlink:href="#star" transform="scale(.75) translate(200, 200)" /><use xlink:href="#star" transform="scale(.27) translate(200, 400)" /><use xlink:href="#star" transform="scale(.7) translate(820, 300)" /><use xlink:href="#star" transform="scale(.4) translate(620, 300)" /><use xlink:href="#star" transform="scale(.45) translate(820, 500)" /><g transform="translate(350)"><use xlink:href="#satellite"><animateTransform attributeName="transform" type="rotate" values="20 10 200;5 10 200;20 10 200;" dur="30s" keySplines="0.5 0 0.5 1;" repeatCount="indefinite" /></use></g></svg>