<?xml version="1.0" encoding="UTF-8" standalone="no"?>
<svg width="460px" height="460px" viewBox="0 0 460 460" version="1.1" xmlns="http://www.w3.org/2000/svg" xmlns:xlink="http://www.w3.org/1999/xlink" xmlns:sketch="http://www.bohemiancoding.com/sketch/ns">
    <!-- Generator: Sketch 3.1.1 (8761) - http://www.bohemiancoding.com/sketch -->
    <title>Slice 2</title>
    <desc>Created with Sketch.</desc>
    <defs></defs>
    <g id="Page-1" stroke="none" stroke-width="1" fill="none" fill-rule="evenodd" sketch:type="MSPage">
        <g id="sc" sketch:type="MSLayerGroup">
            <rect id="Rectangle-path" fill="#6A0B00" sketch:type="MSShapeGroup" x="0" y="0" width="460" height="460"></rect>
            <path d="M51.9909524,409.436702 C60.7376455,408.777287 67.4405026,407.771037 72.0976984,406.420399 C72.3064021,405.039787 72.4110582,403.471383 72.4110582,401.715798 C72.4110582,399.960213 72.3660317,398.332473 72.2765873,396.831356 L56.3792063,391.023856 C55.3040476,390.634202 54.4984392,389.920957 53.961164,388.885346 C53.4238889,387.850346 53.0204762,386.492367 52.7521429,384.81141 C52.1546296,381.119787 51.8564815,378.299229 51.8564815,376.347287 C51.8564815,373.256356 51.9307143,371.019973 52.0803968,369.639362 C52.3189153,367.179096 53.8863228,365.512819 56.782619,364.641755 C63.5591005,362.181489 71.5306085,360.155532 80.6959259,358.563883 L83.4279365,369.413644 L77.695582,370.223537 C72.0228571,371.064628 67.3060317,371.965053 63.5444974,372.924814 C63.4246296,373.705346 63.3656085,374.725665 63.3656085,375.986383 C63.3656085,378.568378 63.4252381,380.593723 63.5444974,382.064255 L80.0692063,389.358191 C81.8897354,390.138723 83.1145767,391.504043 83.7412963,393.454761 C83.9201852,394.025479 84.0096296,394.430426 84.0096296,394.670213 C84.0096296,394.91 83.9871164,395.428112 83.9426984,396.223324 C83.8982804,397.018537 83.8307407,398.076782 83.7412963,399.396835 C83.5015608,402.93859 83.2040212,405.977527 82.8456349,408.513032 C82.4872487,411.049761 81.6141005,412.775372 80.2261905,413.690479 C78.837672,414.606197 77.1510053,415.416702 75.165582,416.121995 C73.1795503,416.827287 71.0377513,417.465293 68.7389683,418.035399 C65.0066402,418.905851 60.0658995,419.790984 53.9161376,420.69141 L51.9909524,409.436702 L51.9909524,409.436702 Z" id="Shape" fill="#FFFFFF" sketch:type="MSShapeGroup"></path>
            <path d="M93.6830159,354.421436 L104.78873,352.350824 L105.10209,384.810186 L103.71418,418.665452 L94.2653175,419.475957 L93.6830159,354.421436 L93.6830159,354.421436 Z" id="Shape" fill="#FFFFFF" sketch:type="MSShapeGroup"></path>
            <path d="M127.941455,373.600745 C128.090529,376.692287 128.16537,379.288963 128.16537,381.388936 C128.16537,383.490133 128.120344,385.951622 128.030899,388.772181 L127.000767,418.665452 L117.46246,419.475957 L116.566799,375.04008 L127.941455,373.600745 L127.941455,373.600745 Z M128.299841,350.910266 C128.628413,352.080452 128.792698,353.394388 128.792698,354.849016 C128.792698,356.305479 128.747672,357.536223 128.658228,358.540638 C128.568783,359.546888 128.463519,360.484628 128.344868,361.35508 C128.046111,363.245851 127.702328,364.536543 127.314735,365.226543 L117.01463,364.77633 C117.52209,362.136223 117.77582,357.918537 117.77582,352.125718 L128.299841,350.910266 L128.299841,350.910266 Z" id="Shape" fill="#FFFFFF" sketch:type="MSShapeGroup"></path>
            <path d="M172.5,373.105266 L172.236534,352.350824 L161.851852,354.286862 L161.851852,372.745585 C157.592593,373.316303 152.725476,374.186144 147.919815,375.356941 L143.439074,376.437819 C142.244656,376.85867 141.496852,377.849016 141.198704,379.408856 C139.974471,385.862314 139.361746,392.764761 139.361746,400.118032 C139.361746,404.500266 139.630079,408.642713 140.167963,412.542926 C140.495926,414.854548 141.391587,416.15992 142.854339,416.459654 C145.242566,417.120293 147.787169,417.735665 150.489974,418.305771 C159.574974,420.222234 164.744497,420.885931 171.206402,421.907473 L171.435185,412.200372 L172.5,373.105266 L172.5,373.105266 Z M150.287963,398.046809 C150.287963,394.535027 150.720582,390.093457 151.587037,384.720878 C154.751058,383.520718 158.140212,382.78484 161.752672,382.51508 L161.787963,410.383617 C157.548175,409.757234 153.831058,409.021968 150.646349,408.177207 C150.406614,406.436303 150.287963,403.059096 150.287963,398.046809 L150.287963,398.046809 Z" id="Shape" fill="#FFFFFF" sketch:type="MSShapeGroup"></path>
            <path d="M183.919074,388.682261 C183.919074,384.660931 184.33709,382.334628 185.173122,381.703963 C186.008545,381.07391 186.948624,380.436516 187.993968,379.790559 C189.038704,379.145824 190.188095,378.507819 191.442143,377.877154 C192.69619,377.247101 194.001958,376.647021 195.360661,376.076915 C196.718757,375.506809 198.054339,374.996037 199.368624,374.545824 C202.174259,373.586064 204.272249,373.105878 205.660159,373.105878 C207.048677,373.105878 208.174947,373.173165 209.041402,373.308351 C209.907249,373.443537 210.698254,373.661303 211.415026,373.961037 C213.056667,374.651649 213.982143,375.656676 214.191455,376.97734 C215.176561,383.250957 215.669418,390.724122 215.669418,399.397447 L215.669418,402.053457 L194.21918,402.32383 L194.21918,408.175984 C196.547778,408.746702 199.324206,409.272154 202.548466,409.751729 L210.251032,411.012447 C212.221243,411.312793 214.236481,411.658404 216.296746,412.047447 L213.654788,421.906862 C205.444153,420.61617 196.727275,418.530266 187.50172,415.649761 C185.381825,414.959149 184.292063,413.713723 184.232434,411.912872 L183.919074,388.682261 L183.919074,388.682261 Z M205.593836,392.373883 C205.593836,389.553324 205.309683,386.581676 204.743201,383.46016 C203.548783,383.46016 202.593492,383.520718 201.877328,383.64 C201.160556,383.760505 200.444392,383.925665 199.727619,384.135479 C199.010847,384.345904 198.278862,384.585691 197.533492,384.856064 C195.771376,385.486117 194.607381,386.026862 194.040291,386.476463 L194.040291,394.580293 L205.593836,393.319574 L205.593836,392.373883 L205.593836,392.373883 Z" id="Shape" fill="#FFFFFF" sketch:type="MSShapeGroup"></path>
            <path d="M232.396138,415.762314 C231.156693,415.327394 230.387593,414.997074 230.089444,414.771968 C229.791296,414.546862 229.521138,414.253856 229.283836,413.893564 C227.939735,411.852926 226.969841,405.790346 226.372328,395.705824 C226.222646,393.454761 226.149021,391.248963 226.149021,389.087819 C226.149021,386.927287 226.194048,384.923351 226.283492,383.077846 C226.372937,381.23234 226.491587,379.484096 226.64127,377.833112 C226.97045,374.112128 227.268598,371.875745 227.53754,371.125186 L228.074815,369.414255 C228.55246,367.973697 229.642222,366.908112 231.344101,366.2175 C232.090688,365.917766 233.059974,365.572154 234.254392,365.1825 L238.195423,363.831862 C239.658175,363.381649 241.180556,362.930824 242.763783,362.481223 L247.332143,361.130585 C250.40672,360.260133 253.003042,359.599495 255.123545,359.149894 L257.542196,370.089574 C256.795608,370.270027 255.885344,370.46516 254.811402,370.674973 L243.883968,372.746197 L240.79418,373.37625 C239.89791,373.586676 239.226772,373.751835 238.778942,373.871729 C237.943519,377.233644 237.524894,382.110745 237.524894,388.503644 C237.524894,396.847872 238.032354,402.999761 239.047275,406.961755 C240.301931,407.262101 241.659418,407.562447 243.122169,407.862181 L252.347725,409.753564 L256.691561,410.563457 L254.184074,420.963617 C251.49709,420.482819 249.049233,419.973271 246.839894,419.432527 C238.449153,417.42125 233.634974,416.197846 232.396138,415.762314 L232.396138,415.762314 Z" id="Shape" fill="#FFFFFF" sketch:type="MSShapeGroup"></path>
            <path d="M277.827831,373.600745 C277.976296,376.692287 278.051138,379.288963 278.051138,381.388936 C278.051138,383.490133 278.00672,385.951622 277.916667,388.772181 L276.887143,418.665452 L267.348228,419.475957 L266.452566,375.04008 L277.827831,373.600745 L277.827831,373.600745 Z M278.185608,350.910266 C278.513571,352.080452 278.678466,353.394388 278.678466,354.849016 C278.678466,356.305479 278.633439,357.536223 278.543386,358.540638 C278.45455,359.546888 278.349286,360.484628 278.230026,361.35508 C277.93127,363.245851 277.587487,364.536543 277.200503,365.226543 L266.900397,364.77633 C267.407249,362.136223 267.661587,357.918537 267.661587,352.125718 L278.185608,350.910266 L278.185608,350.910266 Z" id="Shape" fill="#FFFFFF" sketch:type="MSShapeGroup"></path>
            <path d="M290.142566,375.62609 L299.681481,374.410638 L301.24828,381.254362 L309.130344,374.410638 L320.146005,374.410638 C320.713095,374.410638 321.504101,374.84617 322.51963,375.716622 C324.221508,377.127819 325.072143,378.387926 325.072143,379.498777 L323.504735,418.756596 L313.517989,419.566489 L313.339101,384.81141 C312.980714,384.691516 312.488466,384.630957 311.861138,384.630957 C311.23381,384.630957 310.65881,384.661543 310.136746,384.720878 C309.614683,384.781436 309.054894,384.871356 308.457381,384.990638 C307.053651,385.231649 305.904868,385.51609 305.009206,385.845798 L301.695503,387.06125 L300.486481,418.30516 L290.948175,419.025745 L290.142566,375.62609 L290.142566,375.62609 Z" id="Shape" fill="#FFFFFF" sketch:type="MSShapeGroup"></path>
            <path d="M339.805529,416.550186 C338.16328,416.009441 337.207989,414.764628 336.939656,412.81391 C336.342143,408.672074 336.043386,404.883191 336.043386,401.446037 C336.043386,398.009495 336.081111,395.458085 336.155952,393.79242 C336.230185,392.126144 336.342143,390.513697 336.491825,388.952633 C337.029101,382.440452 337.760476,378.628324 338.685952,377.518085 C339.162989,376.918005 339.946693,376.45984 341.036455,376.144814 C342.126217,375.829176 343.588968,375.499468 345.425317,375.154468 C347.261667,374.81008 349.202063,374.479149 351.247116,374.164122 C353.291561,373.848484 355.306799,373.55609 357.292831,373.285718 C359.278254,373.015957 360.972222,372.77617 362.375952,372.565133 L363.94336,382.695532 L360.495185,383.055213 C354.105688,383.715851 350.030794,384.270665 348.269286,384.721489 C347.79164,386.582899 347.463069,389.194255 347.28418,392.554947 C347.104683,395.916862 347.015847,398.378351 347.015847,399.938191 C347.015847,403.810266 347.164921,406.706676 347.463069,408.62742 L364.570079,411.824176 L361.927513,421.503138 C359.479656,421.112261 357.180873,420.692633 355.031164,420.24242 L349.612778,419.116888 C344.715847,418.035399 341.447169,417.180239 339.805529,416.550186 L339.805529,416.550186 Z" id="Shape" fill="#FFFFFF" sketch:type="MSShapeGroup"></path>
            <path d="M395.514815,393.679867 C395.514815,389.387553 395.335926,386.250745 394.97754,384.270053 L391.842725,384.270053 C390.052011,384.270053 388.662884,384.450505 387.677778,384.810798 C386.095159,385.350931 384.826508,385.845798 383.871217,386.296622 L383.199471,418.125931 L373.481667,418.666064 C373.392222,407.111011 373.227328,398.377128 372.98881,392.464415 C372.630423,384.511064 372.450926,377.637979 372.450926,371.84516 C372.450926,367.943723 372.525159,362.165585 372.674841,354.511968 L383.377751,352.260904 L383.870608,380.758883 L390.990873,374.410638 L400.932593,374.410638 C402.036958,374.410638 403.051878,374.831489 403.977963,375.671968 C405.619603,377.202447 406.470847,378.553085 406.530476,379.723271 C406.590106,380.894069 406.619921,382.08016 406.619921,383.279707 L406.619921,386.791489 C406.619921,390.813431 406.559683,393.694548 406.440423,395.435452 L405.052513,420.241809 L395.110794,421.907473 L395.514815,393.679867 L395.514815,393.679867 Z" id="Shape" fill="#FFFFFF" sketch:type="MSShapeGroup"></path>
            <path d="M369.124444,283.464601 C368.75754,283.509867 368.397937,283.64383 368.083968,283.887287 L359.901323,290.248378 C359.587354,290.491835 359.368307,290.809309 359.232011,291.154309 C358.964894,291.83391 359.042169,292.630957 359.519206,293.251223 C359.938439,293.797473 360.56881,294.082527 361.205265,294.082527 C361.659788,294.082527 362.118571,293.936941 362.506164,293.635372 L370.68881,287.274282 C371.619153,286.550638 371.790741,285.206117 371.070926,284.271436 C370.594497,283.651782 369.846693,283.375293 369.124444,283.464601 L369.124444,283.464601 Z" id="Shape" sketch:type="MSShapeGroup"></path>
            <path d="M293.983201,237.104309 L333.663069,206.254947 C335.137381,205.108617 337.207381,205.152048 338.631799,206.36016 L357.531349,222.376356 L376.655423,66.3696809 L82.9265608,66.3696809 L108.580688,256.609043 L299.955291,256.609043 L292.84963,241.995479 C292.025767,240.301064 292.499762,238.257979 293.983201,237.104309 L293.983201,237.104309 Z M249.915079,227.127447 C249.521402,227.127447 249.120423,227.055266 248.731614,226.90234 C247.055291,226.244761 246.226561,224.345426 246.880661,222.660186 C253.011561,206.867261 265.243545,191.284761 281.322857,178.784016 C297.402778,166.28266 315.480899,158.30117 332.225873,156.308856 C334.003201,156.091702 335.632672,157.379947 335.84381,159.176516 C336.054947,160.973085 334.778386,162.601436 332.991323,162.814309 C300.684841,166.657633 264.779286,194.573271 252.950714,225.042154 C252.449339,226.335904 251.218413,227.127447 249.915079,227.127447 L249.915079,227.127447 Z M270.370476,224.852527 C269.976799,224.852527 269.575212,224.780346 269.187011,224.62742 C267.510688,223.96984 266.681958,222.070505 267.336058,220.385266 C271.477884,209.717181 279.723201,199.204468 290.55328,190.784388 C301.384577,182.363697 313.578836,176.985612 324.890212,175.64109 C326.677884,175.426995 328.297011,176.712181 328.508148,178.50875 C328.719894,180.305319 327.442116,181.93367 325.655661,182.145931 C304.56746,184.65391 281.128148,202.876516 273.40672,222.766622 C272.903519,224.061596 271.673201,224.852527 270.370476,224.852527 L270.370476,224.852527 Z M289.726984,221.088112 C288.050661,220.430532 287.221931,218.531197 287.876032,216.845957 C292.149286,205.835319 304.642302,196.123324 316.315714,194.735372 C318.102778,194.519441 319.722513,195.806463 319.933651,197.603032 C320.144788,199.399601 318.867619,201.027952 317.081164,201.240213 C307.901243,202.331489 297.307249,210.568059 293.946693,219.22609 C293.444709,220.520452 292.213783,221.311995 290.911058,221.311995 C290.516772,221.313218 290.116402,221.241037 289.726984,221.088112 L289.726984,221.088112 Z" id="Shape" sketch:type="MSShapeGroup"></path>
            <path d="M356.376481,231.797793 L335.975847,214.509867 L301.37119,241.413138 L308.75918,256.609043 L314.113069,267.619681 L331.930159,304.262473 L389.276825,259.678564 L366.371746,240.268032 L356.376481,231.797793 Z" id="Shape" sketch:type="MSShapeGroup"></path>
            <path d="M293.946693,219.227314 C297.307249,210.569282 307.901852,202.332101 317.081164,201.241436 C318.868228,201.029176 320.145397,199.400824 319.933651,197.604255 C319.721905,195.807686 318.102169,194.520053 316.315714,194.736596 C304.641693,196.123936 292.149286,205.835931 287.876032,216.847181 C287.221931,218.53242 288.050661,220.431144 289.726984,221.089335 C290.116402,221.242261 290.516772,221.314441 290.91045,221.314441 C292.213783,221.313218 293.444709,220.521676 293.946693,219.227314 L293.946693,219.227314 Z" id="Shape" fill="#FFFFFF" sketch:type="MSShapeGroup"></path>
            <path d="M325.655053,182.146543 C327.442116,181.934282 328.719286,180.305319 328.50754,178.509362 C328.295794,176.712793 326.677275,175.426995 324.889603,175.641702 C313.578228,176.986835 301.383968,182.36492 290.552672,190.785 C279.722593,199.20508 271.476667,209.717793 267.33545,220.385878 C266.681349,222.071117 267.510079,223.970452 269.186402,224.628032 C269.575212,224.780957 269.97619,224.853138 270.369868,224.853138 C271.673201,224.853138 272.90291,224.061596 273.405503,222.767846 C281.12754,202.877128 304.566852,184.654521 325.655053,182.146543 L325.655053,182.146543 Z" id="Shape" fill="#FFFFFF" sketch:type="MSShapeGroup"></path>
            <path d="M332.991931,162.814309 C334.779603,162.601436 336.056164,160.973085 335.844418,159.176516 C335.632672,157.379947 334.00381,156.091702 332.226481,156.308856 C315.480899,158.30117 297.403386,166.28266 281.323466,178.784016 C265.243545,191.285372 253.012169,206.867261 246.88127,222.660186 C246.227169,224.345426 247.055899,226.244761 248.732222,226.90234 C249.12164,227.055266 249.522011,227.127447 249.915688,227.127447 C251.219021,227.127447 252.449339,226.335904 252.951323,225.042154 C264.779286,194.57266 300.68545,166.657633 332.991931,162.814309 L332.991931,162.814309 Z" id="Shape" fill="#FFFFFF" sketch:type="MSShapeGroup"></path>
            <path d="M407.161455,264.434548 L367.526614,230.846596 L387.692989,66.3696809 L389.417989,66.3696809 C393.618228,66.3696809 397.02381,62.9465957 397.02381,58.7234043 C397.02381,54.5002128 393.618228,51.0771277 389.417989,51.0771277 L69.973545,51.0771277 C65.7726984,51.0771277 62.3677249,54.5002128 62.3677249,58.7234043 C62.3677249,62.9465957 65.7726984,66.3696809 69.973545,66.3696809 L71.8713492,66.3696809 L97.6952381,257.832447 L96.1375661,257.832447 C93.4493651,257.832447 91.2698413,260.023564 91.2698413,262.726064 C91.2698413,265.428564 93.4493651,267.619681 96.1375661,267.619681 L99.015,267.619681 L214.78836,267.619681 L214.78836,308.940771 L178.141693,328.273617 C176.653995,329.058431 176.08082,330.907606 176.861481,332.403218 C177.40545,333.445559 178.462963,334.041356 179.558201,334.041356 C180.03463,334.041356 180.51836,333.928191 180.969233,333.690851 L221.070159,312.535745 C221.394471,312.36508 221.666455,312.136303 221.898889,311.878777 C222.176349,312.401782 222.606534,312.851383 223.168757,313.147447 L263.269074,334.302553 C263.719947,334.540505 264.203677,334.653059 264.680106,334.653059 C265.774735,334.653059 266.832249,334.057261 267.376825,333.01492 C268.157487,331.519309 267.584312,329.670133 266.096614,328.885319 L226.957672,308.237926 L226.957672,267.619681 L305.308571,267.619681 L332.139471,322.801941 C332.661534,323.87609 333.636905,324.656622 334.794815,324.928218 C335.092354,324.997952 335.392937,325.032207 335.69291,325.032207 C336.560582,325.032207 337.413042,324.744707 338.112778,324.201516 L407.033069,270.62008 C407.978624,269.885426 408.542063,268.759894 408.567619,267.558511 C408.591958,266.357128 408.07537,265.208963 407.161455,264.434548 L407.161455,264.434548 Z M108.580688,256.609043 L82.9265608,66.3696809 L376.656032,66.3696809 L357.531349,222.376356 L338.631799,206.36016 C337.207381,205.152048 335.137381,205.109229 333.663069,206.254947 L293.983201,237.104309 C292.499762,238.257979 292.025767,240.301064 292.84963,241.995479 L299.955291,256.609043 L108.580688,256.609043 L108.580688,256.609043 Z M370.689418,287.274894 L362.506772,293.635984 C362.11918,293.937553 361.660397,294.083138 361.205873,294.083138 C360.56881,294.083138 359.939048,293.797473 359.519815,293.251835 C359.042778,292.631569 358.965503,291.835133 359.232619,291.15492 C359.368915,290.80992 359.587963,290.492447 359.901931,290.248989 L368.084577,283.887899 C368.398545,283.644441 368.758148,283.510479 369.125053,283.465213 C369.847302,283.375904 370.595106,283.652394 371.071534,284.272048 C371.790741,285.206729 371.619762,286.55125 370.689418,287.274894 L370.689418,287.274894 Z M331.930159,304.262473 L314.113069,267.619681 L308.75918,256.609043 L301.370582,241.413138 L335.975238,214.509867 L356.375873,231.797793 L366.371138,240.268032 L389.276217,259.677952 L331.930159,304.262473 L331.930159,304.262473 Z" id="Shape" fill="#FFFFFF" sketch:type="MSShapeGroup"></path>
        </g>
    </g>
</svg>