<svg width="460" height="460" viewBox="0 0 460 460" xmlns="http://www.w3.org/2000/svg"><title>Slice 2</title><g fill="none" fill-rule="evenodd"><path fill="#6A0B00" d="M0 0h460v460H0z"/><path d="M51.99 409.437c8.748-.66 15.45-1.666 20.108-3.017.208-1.38.313-2.95.313-4.704a82.44 82.44 0 0 0-.13-4.885l-15.9-5.8c-1.07-.39-1.88-1.1-2.42-2.14-.53-1.03-.94-2.39-1.2-4.07-.597-3.69-.896-6.51-.896-8.463 0-3.09.075-5.327.224-6.71.24-2.46 1.807-4.125 4.704-4.996 6.777-2.46 14.75-4.486 23.914-6.08l2.73 10.85-5.73.81c-5.674.84-10.39 1.74-14.153 2.7-.12.78-.177 1.8-.177 3.06 0 2.585.06 4.61.177 6.08l16.524 7.295c1.82.78 3.047 2.144 3.67 4.095.18.57.27.973.27 1.213s-.02.76-.065 1.554a283.77 283.77 0 0 1-.204 3.174c-.237 3.546-.535 6.58-.893 9.12-.36 2.537-1.233 4.26-2.62 5.177-1.39.92-3.076 1.73-5.06 2.435a68.478 68.478 0 0 1-6.428 1.913c-3.735.87-8.676 1.757-14.826 2.657l-1.926-11.26zm41.693-55.017l11.106-2.07.31 32.46-1.39 33.855-9.45.81-.58-65.054zm34.257 19.18c.15 3.092.225 5.69.225 7.79 0 2.1-.045 4.562-.134 7.382L127 418.665l-9.538.81-.895-44.435 11.374-1.44zm.36-22.69c.328 1.17.493 2.484.493 3.94 0 1.455-.045 2.686-.135 3.69a60.613 60.613 0 0 1-.313 2.815c-.3 1.89-.643 3.182-1.03 3.872l-10.3-.45c.507-2.64.76-6.858.76-12.65l10.525-1.217zm44.2 22.195l-.263-20.754-10.385 1.94v18.46c-4.26.57-9.127 1.44-13.932 2.61l-4.48 1.08c-1.195.42-1.943 1.41-2.24 2.97-1.226 6.46-1.838 13.36-1.838 20.71 0 4.38.268 8.53.806 12.43.328 2.31 1.224 3.618 2.686 3.918 2.39.66 4.933 1.277 7.636 1.847 9.085 1.916 14.254 2.58 20.716 3.6l.23-9.706 1.064-39.095zm-22.212 24.942c0-3.512.433-7.954 1.3-13.326 3.163-1.2 6.552-1.93 10.165-2.2l.035 27.87c-4.24-.63-7.957-1.36-11.142-2.21-.24-1.74-.358-5.12-.358-10.13zm33.632-9.365c0-4.02.417-6.347 1.253-6.978a36.957 36.957 0 0 1 2.82-1.913 45.496 45.496 0 0 1 3.45-1.91c1.253-.63 2.56-1.23 3.918-1.8a63.68 63.68 0 0 1 4.01-1.53c2.81-.96 4.91-1.44 6.29-1.44 1.39 0 2.52.07 3.38.2a10.22 10.22 0 0 1 2.38.66c1.64.69 2.57 1.697 2.78 3.017.987 6.274 1.48 13.747 1.48 22.42v2.656l-21.45.27v5.853c2.328.57 5.104 1.096 8.328 1.576l7.704 1.26c1.97.3 3.986.646 6.047 1.035l-2.64 9.86c-8.21-1.29-16.93-3.38-26.155-6.26-2.12-.69-3.21-1.934-3.27-3.735l-.313-23.23zm21.674 3.692c0-2.82-.284-5.792-.85-8.914-1.195 0-2.15.06-2.867.18a18.77 18.77 0 0 0-2.15.495c-.716.21-1.448.45-2.194.72-1.762.63-2.926 1.172-3.493 1.62v8.105l11.554-1.26v-.946zm26.802 23.388c-1.24-.435-2.008-.765-2.307-.99a3.497 3.497 0 0 1-.81-.878c-1.35-2.04-2.32-8.104-2.91-18.188a99.74 99.74 0 0 1-.23-6.618c0-2.16.045-4.165.134-6.01.09-1.846.21-3.594.36-5.245.33-3.72.63-5.957.897-6.708l.538-1.71c.477-1.44 1.567-2.507 3.27-3.198a47.26 47.26 0 0 1 2.91-1.034l3.94-1.35a220.49 220.49 0 0 1 4.57-1.352l4.567-1.35c3.076-.87 5.67-1.53 7.793-1.98l2.42 10.94a64.58 64.58 0 0 1-2.73.59l-10.926 2.07-3.09.63a77.76 77.76 0 0 0-2.015.5c-.837 3.36-1.256 8.24-1.256 14.63 0 8.346.508 14.498 1.523 18.46 1.253.3 2.61.6 4.073.9l9.225 1.89 4.343.81-2.51 10.4a119.91 119.91 0 0 1-7.343-1.53c-8.39-2.013-13.203-3.236-14.442-3.672zm45.432-42.162c.148 3.092.223 5.69.223 7.79a235 235 0 0 1-.13 7.382l-1.03 29.893-9.54.81-.89-44.435 11.377-1.44zm.358-22.69c.328 1.17.492 2.484.492 3.94 0 1.455-.045 2.686-.135 3.69a58.992 58.992 0 0 1-.313 2.815c-.3 1.89-.643 3.182-1.03 3.872l-10.3-.45c.507-2.64.762-6.858.762-12.65l10.524-1.217zm11.957 24.716l9.538-1.215 1.57 6.85 7.88-6.84h11.02c.57 0 1.36.436 2.38 1.307 1.702 1.41 2.552 2.67 2.552 3.78l-1.567 39.26-9.987.81-.18-34.757c-.357-.12-.85-.18-1.477-.18-.626 0-1.2.03-1.723.09a20.3 20.3 0 0 0-1.68.27c-1.404.24-2.553.525-3.45.855l-3.313 1.215-1.21 31.244-9.54.72-.807-43.4zm49.663 40.924c-1.643-.54-2.598-1.785-2.866-3.736-.598-4.142-.897-7.93-.897-11.368 0-3.437.038-5.988.113-7.654a95.03 95.03 0 0 1 .336-4.84c.537-6.512 1.268-10.324 2.194-11.434.477-.6 1.26-1.058 2.35-1.373 1.09-.316 2.553-.646 4.39-.99 1.836-.345 3.776-.676 5.82-.99 2.046-.317 4.06-.61 6.047-.88 1.985-.27 3.68-.51 5.083-.72l1.567 10.13-3.448.36c-6.39.66-10.464 1.216-12.226 1.666-.48 1.87-.81 4.48-.99 7.84-.18 3.36-.27 5.827-.27 7.387 0 3.87.15 6.77.444 8.69l17.107 3.196-2.642 9.68c-2.448-.392-4.747-.81-6.897-1.262l-5.416-1.124c-4.895-1.082-8.164-1.937-9.805-2.567zm55.71-22.87c0-4.292-.18-7.43-.538-9.41h-3.135c-1.79 0-3.18.18-4.165.54-1.583.54-2.85 1.036-3.807 1.487l-.67 31.83-9.71.54c-.09-11.556-.254-20.29-.492-26.203-.36-7.953-.54-14.826-.54-20.62 0-3.9.076-9.678.226-17.332l10.703-2.25.493 28.497 7.12-6.35h9.943c1.102 0 2.12.42 3.043 1.26 1.64 1.53 2.493 2.88 2.55 4.05.06 1.17.09 2.36.09 3.56v3.51c0 4.02-.06 6.9-.18 8.64l-1.385 24.803-9.94 1.665.404-28.227z" fill="#FFF"/><path d="M369.124 283.465c-.366.045-.726.18-1.04.422l-8.183 6.36a2.133 2.133 0 0 0-.66.907c-.266.68-.19 1.477.288 2.097a2.12 2.12 0 0 0 2.987.39l8.183-6.36a2.148 2.148 0 0 0 .38-3 2.116 2.116 0 0 0-1.947-.805zm-75.14-46.36l39.68-30.85a3.938 3.938 0 0 1 4.97.105l18.897 16.016L376.66 66.37H82.928l25.653 190.24h191.38l-7.1-14.615a3.99 3.99 0 0 1 1.134-4.89zm-44.07-9.978a3.22 3.22 0 0 1-1.182-.225 3.28 3.28 0 0 1-1.85-4.242c6.13-15.793 18.362-31.375 34.44-43.876 16.08-12.5 34.16-20.483 50.904-22.475 1.777-.22 3.407 1.07 3.618 2.86a3.272 3.272 0 0 1-2.853 3.635c-32.3 3.844-68.21 31.76-80.04 62.23a3.258 3.258 0 0 1-3.03 2.084zm20.456-2.274c-.393 0-.795-.073-1.183-.226a3.28 3.28 0 0 1-1.85-4.242c4.14-10.668 12.386-21.18 23.216-29.6 10.832-8.42 23.026-13.8 34.337-15.144a3.26 3.26 0 0 1 3.618 2.87 3.27 3.27 0 0 1-2.852 3.64c-21.09 2.51-44.528 20.73-52.25 40.62a3.26 3.26 0 0 1-3.036 2.09zm19.357-3.765a3.28 3.28 0 0 1-1.85-4.242c4.272-11.01 16.765-20.723 28.44-22.11 1.786-.217 3.406 1.07 3.617 2.867a3.27 3.27 0 0 1-2.853 3.637c-9.18 1.09-19.77 9.328-23.13 17.986a3.26 3.26 0 0 1-3.03 2.086c-.393 0-.794-.07-1.183-.224z"/><path d="M356.376 231.798l-20.4-17.288-34.605 26.903 7.39 15.196 5.36 11.01 17.82 36.64 57.347-44.59-22.904-19.41-9.996-8.47z"/><path d="M293.947 219.227c3.36-8.658 13.955-16.895 23.134-17.986a3.27 3.27 0 0 0 2.86-3.63 3.257 3.257 0 0 0-3.62-2.864c-11.67 1.387-24.163 11.1-28.44 22.11a3.28 3.28 0 0 0 1.85 4.24c.39.154.79.226 1.188.226a3.262 3.262 0 0 0 3.038-2.087z" fill="#FFF"/><path d="M325.655 182.147a3.27 3.27 0 0 0 2.853-3.638c-.212-1.8-1.83-3.09-3.618-2.87-11.312 1.34-23.506 6.72-34.337 15.14-10.83 8.42-19.076 18.93-23.218 29.6a3.28 3.28 0 0 0 1.85 4.24c.39.152.79.224 1.185.224a3.26 3.26 0 0 0 3.036-2.085c7.722-19.89 31.16-38.113 52.25-40.62z" fill="#FFF"/><path d="M332.992 162.814a3.27 3.27 0 0 0 2.852-3.637c-.21-1.797-1.84-3.085-3.618-2.868-16.745 1.99-34.823 9.97-50.903 22.47-16.08 12.5-28.31 28.08-34.442 43.87a3.28 3.28 0 0 0 1.86 4.24c.39.155.79.227 1.185.227a3.26 3.26 0 0 0 3.035-2.085c11.83-30.47 47.734-58.384 80.04-62.228z" fill="#FFF"/><path d="M407.16 264.435l-39.633-33.588L387.693 66.37h1.725c4.2 0 7.606-3.423 7.606-7.647 0-4.223-3.406-7.646-7.606-7.646H69.974c-4.2 0-7.606 3.423-7.606 7.646 0 4.224 3.405 7.647 7.606 7.647h1.897L97.7 257.832h-1.56c-2.69 0-4.87 2.192-4.87 4.894 0 2.703 2.18 4.894 4.87 4.894h118.648v41.32l-36.646 19.334a3.067 3.067 0 0 0-1.28 4.13 3.04 3.04 0 0 0 2.696 1.637c.477 0 .96-.11 1.41-.35l40.102-21.15c.324-.17.596-.4.83-.652.276.523.707.97 1.27 1.268l40.1 21.157c.45.238.934.35 1.41.35a3.04 3.04 0 0 0 2.697-1.64 3.067 3.067 0 0 0-1.28-4.13l-39.14-20.646v-40.62h78.352l26.83 55.183a3.96 3.96 0 0 0 3.55 2.23c.87 0 1.72-.288 2.42-.83l68.92-53.583a3.988 3.988 0 0 0 .13-6.185zm-298.58-7.826L82.928 66.37h293.73L357.53 222.376l-18.898-16.016a3.938 3.938 0 0 0-4.97-.105l-39.68 30.85a3.99 3.99 0 0 0-1.132 4.89l7.105 14.614H108.58zm262.11 30.66l-8.183 6.36a2.12 2.12 0 0 1-2.987-.388 2.143 2.143 0 0 1-.287-2.097 2.11 2.11 0 0 1 .67-.906l8.182-6.36a2.103 2.103 0 0 1 1.04-.425c.722-.09 1.47.186 1.947.806.72.935.548 2.28-.383 3.003zm-38.76 16.983l-17.817-36.64-5.354-11.01-7.39-15.2 34.6-26.902 20.4 17.287 9.992 8.47 22.905 19.41-57.346 44.584z" fill="#FFF"/></g></svg>