<svg width="460" height="460" viewBox="0 0 460 460" xmlns="http://www.w3.org/2000/svg"><title>Slice 2</title><g fill="none" fill-rule="evenodd"><path fill="#530" d="M0 0h460v460H0z"/><path d="M334.594 90.04c-2.044-1.84-5.39-1.84-7.434 0l-53.028 47.726c-2.044 1.84-2.044 4.85 0 6.69l83.308 74.98c2.044 1.84 1.467 3.345-1.283 3.345h-32.89c-2.75 0-5 2.25-5 5v19.607c0 2.75 2.25 5 5 5h70.838c2.75 0 5-2.25 5-5v-67.97c0-2.75 2.25-5 5-5h19.24c2.75 0 3.326-1.505 1.282-3.345l-90.03-81.03zM97.538 222.78c-2.75 0-3.186-1.33-.968-2.956l95.73-70.2c2.22-1.627 2.355-4.456.302-6.287l-59.75-53.313c-2.05-1.83-5.402-1.824-7.446.016l-90.032 81.03c-2.044 1.838-1.466 3.344 1.284 3.344h19.24c2.75 0 5 2.25 5 5v67.97c0 2.75 2.25 5 5 5h64.53c2.75 0 5-2.25 5-5V227.78c0-2.75-2.25-5-5-5h-32.89z" fill="#FF8F00"/><path d="M227 369.167c0 2.75-1.95 3.875-4.33 2.5l-18.908-10.917c-2.38-1.375-4.33-4.75-4.33-7.5v-81.72c0-2.75 1.95-3.876 4.33-2.5l18.908 10.915c2.38 1.375 4.33 4.75 4.33 7.5v81.722z" fill="#FF9100"/><path d="M194.432 358.345c2.75 0 5-2.25 5-5v-81.722c0-2.75 2.25-5 5-5h51.138c2.75 0 5 2.25 5 5v81.722c0 2.75 2.25 5 5 5h66.428c2.75 0 5-2.25 5-5v-112.29c0-2.75 2.25-5 5-5h35.847c2.75 0 3.327-1.506 1.283-3.346l-145.41-130.87c-2.044-1.84-5.39-1.84-7.433 0L80.873 232.71c-2.044 1.84-1.466 3.344 1.284 3.344h35.86c2.75 0 5 2.25 5 5v112.29c0 2.75 2.25 5 5 5h66.415z" fill="#FFAB40"/></g></svg>