<?xml version="1.0" encoding="UTF-8" standalone="no"?>
<svg width="460px" height="460px" viewBox="0 0 460 460" version="1.1" xmlns="http://www.w3.org/2000/svg" xmlns:xlink="http://www.w3.org/1999/xlink" xmlns:sketch="http://www.bohemiancoding.com/sketch/ns">
    <!-- Generator: Sketch 3.1.1 (8761) - http://www.bohemiancoding.com/sketch -->
    <title>Slice 2</title>
    <desc>Created with Sketch.</desc>
    <defs></defs>
    <g id="Page-1" stroke="none" stroke-width="1" fill="none" fill-rule="evenodd" sketch:type="MSPage">
        <g id="shire" sketch:type="MSLayerGroup">
            <rect id="Rectangle-path" fill="#553300" sketch:type="MSShapeGroup" x="0" y="0" width="460" height="460"></rect>
            <g id="Group" transform="translate(34.000000, 89.000000)" sketch:type="MSShapeGroup">
                <path d="M300.594,1.04 C298.55,-0.799 295.204,-0.799 293.16,1.04 L240.132,48.766 C238.088,50.605 238.088,53.616 240.132,55.455 L323.44,130.436 C325.484,132.276 324.907,133.781 322.157,133.781 L289.268,133.781 C286.518,133.781 284.268,136.031 284.268,138.781 L284.268,158.384 C284.268,161.134 286.518,163.384 289.268,163.384 L311.371,163.384 L321.371,163.384 L360.103,163.384 C362.853,163.384 365.103,161.134 365.103,158.384 L365.103,90.414 C365.103,87.664 367.353,85.414 370.103,85.414 L389.342,85.414 C392.092,85.414 392.669,83.909 390.625,82.069 L300.594,1.04 L300.594,1.04 Z" id="Shape" fill="#FF8F00"></path>
                <path d="M63.538,133.781 C60.788,133.781 60.352,132.451 62.57,130.824 L158.301,60.623 C160.519,58.997 160.655,56.168 158.602,54.337 L98.853,1.024 C96.801,-0.807 93.45,-0.8 91.406,1.04 L1.374,82.069 C-0.67,83.908 -0.092,85.414 2.658,85.414 L21.897,85.414 C24.647,85.414 26.897,87.664 26.897,90.414 L26.897,158.384 C26.897,161.134 29.147,163.384 31.897,163.384 L70.629,163.384 L80.629,163.384 L96.428,163.384 C99.178,163.384 101.428,161.134 101.428,158.384 L101.428,138.781 C101.428,136.031 99.178,133.781 96.428,133.781 L63.538,133.781 L63.538,133.781 Z" id="Shape" fill="#FF8F00"></path>
                <path d="M193,280.167 C193,282.917 191.051,284.042 188.67,282.667 L169.762,271.75 C167.381,270.375 165.432,267 165.432,264.25 L165.432,182.529 C165.432,179.779 167.381,178.654 169.762,180.029 L188.67,190.945 C191.051,192.32 193,195.695 193,198.445 L193,280.167 L193,280.167 Z" id="Shape" fill="#FF9100"></path>
                <path d="M160.432,269.345 C163.182,269.345 165.432,267.095 165.432,264.345 L165.432,182.623 C165.432,179.873 167.682,177.623 170.432,177.623 L221.57,177.623 C224.32,177.623 226.57,179.873 226.57,182.623 L226.57,264.345 C226.57,267.095 228.82,269.345 231.57,269.345 L297.998,269.345 C300.748,269.345 302.998,267.095 302.998,264.345 L302.998,152.054 C302.998,149.304 305.248,147.054 307.998,147.054 L343.845,147.054 C346.595,147.054 347.172,145.549 345.128,143.709 L199.718,12.844 C197.674,11.005 194.329,11.005 192.285,12.844 L46.873,143.709 C44.829,145.549 45.407,147.054 48.157,147.054 L84.018,147.054 C86.768,147.054 89.018,149.304 89.018,152.054 L89.018,264.345 C89.018,267.095 91.268,269.345 94.018,269.345 L160.432,269.345 L160.432,269.345 Z" id="Shape" fill="#FFAB40"></path>
            </g>
        </g>
    </g>
</svg>