<svg width="460" height="460" viewBox="0 0 460 460" xmlns="http://www.w3.org/2000/svg" xmlns:xlink="http://www.w3.org/1999/xlink"><defs><path id="a" d="M0 0h460v460H0z"/><path id="b" d="M0 0h460v460H0z"/></defs><g fill="none" fill-rule="evenodd"><use stroke="#000" xlink:href="#a"/><mask id="c" fill="#fff"><use xlink:href="#b"/></mask><use stroke="#000" fill="#001A4A" xlink:href="#b"/><g transform="translate(27 27)" mask="url(#c)"><ellipse fill="#84B9CD" cx="325.468" cy="366.06" rx="5.284" ry="5.282"/><ellipse fill="#8798BB" cx="78.725" cy="80.29" rx="5.284" ry="5.282"/><ellipse fill="#DECD45" cx="246.215" cy="57.048" rx="5.284" ry="5.282"/><ellipse fill="#598EBD" cx="214.513" cy="237.173" rx="5.284" ry="5.282"/><ellipse fill="#A14631" cx="219.797" cy="162.693" rx="5.284" ry="5.282"/><ellipse fill="#E8AF7B" cx="133.675" cy="309.012" rx="5.284" ry="5.282"/><ellipse fill="#D97F86" cx="231.949" cy="208.121" rx="5.284" ry="5.282"/><ellipse fill="#C7B9B3" cx="188.624" cy="192.274" rx="5.284" ry="5.282"/><ellipse fill="#F6C651" cx="203.946" cy="202.838" rx="5.284" ry="5.282"/><ellipse stroke="#C7B9B3" stroke-width="2" cx="203.873" cy="203.367" rx="19.477" ry="18.488"/><ellipse stroke="#D97F86" stroke-width="2" cx="203.796" cy="203.102" rx="28.91" ry="28.788"/><ellipse stroke="#5A8FBE" stroke-width="2" cx="204.025" cy="202.838" rx="37.064" ry="36.976"/><ellipse stroke="#A14631" stroke-width="2" cx="203.8" cy="203.102" rx="43.179" ry="43.05"/><ellipse stroke="#E8AF7B" stroke-width="2" cx="203.803" cy="204.541" rx="126.135" ry="125.836"/><ellipse stroke="#DFCE47" stroke-width="2" cx="203.917" cy="203.262" rx="153.195" ry="152.552"/><ellipse stroke="#8898BC" stroke-width="2" cx="203.906" cy="201.9" rx="174.847" ry="174.432"/><ellipse stroke="#84B9CD" stroke-width="2" cx="203.696" cy="203.089" rx="203.696" ry="203.089"/></g></g></svg>