<?xml version="1.0" encoding="UTF-8" standalone="no"?>
<svg width="460px" height="460px" viewBox="0 0 460 460" version="1.1" xmlns="http://www.w3.org/2000/svg" xmlns:xlink="http://www.w3.org/1999/xlink">
    <!-- Generator: Sketch 3.6.1 (26313) - http://www.bohemiancoding.com/sketch -->
    <title>Rectangle 1</title>
    <desc>Created with Sketch.</desc>
    <defs>
        <linearGradient x1="50%" y1="0%" x2="50%" y2="100%" id="linearGradient-1">
            <stop stop-color="#000000" stop-opacity="0" offset="0%"></stop>
            <stop stop-color="#000000" offset="100%"></stop>
        </linearGradient>
        <linearGradient x1="50%" y1="0%" x2="50%" y2="100%" id="linearGradient-2">
            <stop stop-color="#009688" stop-opacity="0.994451993" offset="0%"></stop>
            <stop stop-color="#004D40" offset="100%"></stop>
        </linearGradient>
        <rect id="path-3" x="0" y="0" width="460" height="460"></rect>
    </defs>
    <g id="Page-1" stroke="none" stroke-width="1" fill="none" fill-rule="evenodd">
        <g id="Rectangle-1">
            <use fill="#009688" xlink:href="#path-3"></use>
            <use fill-opacity="0.5" fill="url(#linearGradient-1)" style="mix-blend-mode: darken;" xlink:href="#path-3"></use>
            <use fill="url(#linearGradient-2)" xlink:href="#path-3"></use>
        </g>
        <path d="M247.26994,58 C229.916726,58 215.809418,72.1073035 215.809418,89.4605223 C215.809418,106.813741 229.916726,120.921045 247.26994,120.921045 C264.623153,120.921045 278.730462,106.813741 278.730462,89.4605223 C278.730462,72.1073035 264.623153,58 247.26994,58 L247.26994,58 Z M175.655856,124.646633 C165.949457,124.755917 153.514272,129.912131 145.851151,137.893169 C130.524909,153.868491 112.860654,178.798471 110.251086,197.502579 C107.86671,214.670089 122.881658,220.746938 137.572066,225.237513 C152.262474,229.714842 162.740484,222.929304 165.720954,213.23284 C168.701425,203.536376 188.488438,142.860619 188.488438,142.860619 C192.32331,129.766419 185.362255,124.537349 175.655856,124.646633 L175.655856,124.646633 Z M212.083829,132.511763 C208.383701,133.70333 204.679016,138.121671 203.804745,144.102482 L181.451216,224.409605 C177.998007,241.075085 178.028029,253.351736 193.041934,267.046892 C193.247203,267.314458 193.191461,267.60579 193.455889,267.8748 C194.139768,268.482406 194.780158,268.916839 195.52566,269.530617 L248.925757,314.651629 L242.716443,374.674994 C242.266061,389.484621 243.246305,398.118051 252.651345,399.098295 C261.433798,400.012306 265.397824,381.781761 266.311835,377.15872 C266.311835,377.15872 277.366069,319.446875 278.730462,311.339995 C280.094855,303.219869 281.005555,293.87775 275.004874,287.744604 L231.953633,245.107317 L248.511803,176.804867 L280.800233,200.400259 C285.012632,203.433716 291.374281,204.937197 296.11654,202.883984 C296.11654,202.883984 308.843587,195.234097 319.297978,188.80954 L319.297978,394.130844 C318.777583,397.102994 320.073272,400.100144 322.594906,401.757205 C325.11654,403.414265 328.381769,403.414265 330.903403,401.757205 C333.425036,400.100144 334.720725,397.102994 334.200331,394.130844 L334.200331,179.702547 C334.512816,179.501663 335.175077,179.048714 335.442193,178.874638 C344.092181,173.205121 352.854764,165.671154 349.516637,159.418789 C345.959943,152.682926 340.394742,153.644541 334.200331,156.107155 L334.200331,142.446665 C334.281598,140.408397 333.53622,138.423699 332.133297,136.942837 C330.730375,135.461975 328.788837,134.610482 326.749154,134.581535 C324.709471,134.610482 322.767933,135.461975 321.365011,136.942837 C319.962089,138.423699 319.21671,140.408397 319.297978,142.446665 L319.297978,163.144377 L294.874678,174.321142 L253.479254,144.102482 C252.449508,143.356024 251.300013,142.892015 250.16762,142.446665 C249.696692,142.028675 249.07478,141.779371 248.511803,141.618757 L215.809418,132.511763 C214.68015,132.197158 213.317201,132.114574 212.083829,132.511763 L212.083829,132.511763 Z M175.655856,271.600388 L170.274451,310.512087 C170.274451,310.512087 155.786053,344.992819 145.851151,365.154047 C138.340365,380.427302 134.475688,391.375564 139.641837,394.130844 C147.563266,398.343242 158.29296,389.170016 169.446543,371.777315 C188.150651,342.608443 197.717961,327.94784 201.321019,320.860943 L207.116379,302.233002 C207.116379,302.246249 179.3119,284.038885 175.655856,271.600388 L175.655856,271.600388 Z" id="Shape" fill="#FFFFFF"></path>
    </g>
</svg>