<svg id="ui-design" width="100%" height="100%" xmlns="http://www.w3.org/2000/svg" xmlns:xlink="http://www.w3.org/1999/xlink"><defs><linearGradient id="Gradient1" x1="0" y1="0" x2="0" y2="100%"><stop offset="0%" stop-color="#1D60A3" /><stop offset="100%" stop-color="#03152A" /></linearGradient><clipPath id="crop-circle"><circle cx="95" cy="95" r="88" /></clipPath><symbol id="phone"><rect fill="#fff" width="100" height="175" rx="10" /><circle cx="50" cy="10" fill="#323232" r="2" /><rect x="37.5" y="15" fill="#323232" width="25" height="5" rx="5" /><rect x="5" y="25" fill="#f0f0f0" width="90" height="150" rx="5" /></symbol><symbol id="phone-card"><rect fill="#ffffff" width="70" height="40" rx="2" /></symbol><symbol id="grid-line"><line x1="0" x2="0" y1="0" y2="150" stroke="#aaa" /></symbol></defs><circle cx="95" cy="95" r="90" fill="url(#Gradient1)" stroke="#efefef" stroke-width="6" /><svg clip-path="url(#crop-circle)"><svg x="45" y="45"><use xlink:href="#phone" /><rect x="5" y="25" fill="#af3232" width="90" height="20" rx="2" /><g><use xlink:href="#phone-card" x="15" y="50" /><use xlink:href="#phone-card" x="15" y="95" /></g><g><use xlink:href="#grid-line" x="15" y="25" /><use xlink:href="#grid-line" x="25" y="25" /><use xlink:href="#grid-line" x="35" y="25" /><use xlink:href="#grid-line" x="45" y="25" /><use xlink:href="#grid-line" x="55" y="25" /><use xlink:href="#grid-line" x="65" y="25" /><use xlink:href="#grid-line" x="75" y="25" /><use xlink:href="#grid-line" x="85" y="25" /></g></svg></svg></svg>