<svg id="umsi" width="100%" height="100%" viewBox="0 0 160 160" xmlns="http://www.w3.org/2000/svg" xmlns:xlink="http://www.w3.org/1999/xlink">
    <rect fill="#041E41" width="160" height="160" />
    <g transform="translate(5)">
        <path fill="#F5C400" d="M75.622,83.747L53.504,53.518v21.989H62.3v21.714H21.62V75.507h8.246V41.699H21.62V19.986h31.954 l22.048,30.45l22.047-30.45h31.951v21.713h-8.246v33.808h8.246v21.714H88.944V75.507h8.793V53.518L75.622,83.747z" />
        <g>
            <path fill="#FFFFFF" d="M40.126,118.158c-1.417,0-2.5-0.347-3.247-1.04c-0.747-0.692-1.164-1.64-1.252-2.84l2.25-0.469 c0.111,1.874,0.861,2.812,2.249,2.812c1.125,0,1.687-0.469,1.687-1.406c0-0.278-0.045-0.535-0.136-0.772 c-0.091-0.236-0.23-0.454-0.417-0.651s-0.357-0.356-0.51-0.476c-0.152-0.12-0.36-0.268-0.624-0.443l-2.812-1.874 c-0.516-0.337-0.927-0.766-1.234-1.285s-0.461-1.111-0.461-1.775c0-0.967,0.36-1.735,1.081-2.307 c0.72-0.57,1.675-0.856,2.864-0.856c1.277,0,2.292,0.26,3.044,0.78c0.752,0.52,1.217,1.256,1.393,2.207 c0.018,0.103,0.038,0.244,0.062,0.425l-2.25,0.469c-0.006-0.083-0.021-0.208-0.044-0.374c-0.1-0.595-0.323-1.072-0.672-1.431 c-0.349-0.359-0.859-0.538-1.533-0.538c-0.539,0-0.955,0.125-1.248,0.377c-0.293,0.251-0.439,0.602-0.439,1.051 c0,0.736,0.375,1.354,1.125,1.852l2.811,1.875c1.5,1.01,2.25,2.218,2.25,3.624c0,0.961-0.356,1.713-1.068,2.255 C42.283,117.888,41.327,118.158,40.126,118.158z" />
            <path fill="#FFFFFF" d="M50.016,118.158c-0.662,0-1.245-0.078-1.749-0.234s-0.917-0.372-1.239-0.647 c-0.322-0.276-0.584-0.62-0.786-1.033c-0.202-0.412-0.344-0.853-0.426-1.321s-0.123-0.998-0.123-1.589v-3.741 c0-0.59,0.041-1.12,0.123-1.588c0.082-0.469,0.224-0.909,0.426-1.322c0.202-0.412,0.464-0.755,0.786-1.028s0.735-0.488,1.239-0.645 s1.086-0.234,1.749-0.234c0.732,0,1.365,0.091,1.897,0.271c0.533,0.181,0.959,0.446,1.278,0.798s0.56,0.759,0.721,1.223 s0.256,1.006,0.285,1.625c0.006,0.093,0.009,0.237,0.009,0.433h-2.249v-0.418c-0.006-0.259-0.018-0.479-0.035-0.662 c-0.018-0.184-0.05-0.372-0.097-0.567s-0.116-0.357-0.206-0.487c-0.091-0.129-0.205-0.249-0.343-0.358 c-0.138-0.11-0.312-0.19-0.523-0.242c-0.211-0.051-0.457-0.076-0.738-0.076c-0.363,0-0.675,0.049-0.936,0.146 c-0.261,0.098-0.464,0.223-0.611,0.377c-0.146,0.153-0.259,0.359-0.338,0.618s-0.13,0.512-0.154,0.758 c-0.023,0.247-0.035,0.551-0.035,0.912v4.686c0,0.312,0.016,0.596,0.048,0.849c0.032,0.254,0.095,0.507,0.189,0.758 c0.094,0.252,0.215,0.463,0.365,0.634s0.349,0.309,0.598,0.413c0.249,0.105,0.54,0.158,0.874,0.158s0.621-0.054,0.861-0.161 s0.429-0.244,0.567-0.41c0.137-0.166,0.246-0.378,0.325-0.637c0.079-0.259,0.13-0.511,0.154-0.755s0.035-0.526,0.035-0.849v-0.469 h2.249v0.469c0,0.678-0.072,1.273-0.215,1.786c-0.144,0.513-0.375,0.965-0.694,1.358c-0.319,0.393-0.752,0.691-1.3,0.896 C51.45,118.056,50.789,118.158,50.016,118.158z" />
            <path fill="#FFFFFF" d="M55.97,118.026v-13.12h2.249v5.623h3.936v-5.623h2.249v13.12h-2.249v-6.092h-3.936v6.092H55.97z" />
            <path fill="#FFFFFF" d="M70.982,118.158c-0.791,0-1.469-0.101-2.034-0.3c-0.565-0.2-1.015-0.493-1.348-0.879 c-0.334-0.386-0.577-0.838-0.729-1.358c-0.152-0.52-0.229-1.124-0.229-1.812v-4.759c0-0.688,0.076-1.289,0.229-1.802 c0.152-0.512,0.396-0.957,0.729-1.336c0.333-0.378,0.783-0.662,1.348-0.853c0.565-0.19,1.243-0.286,2.034-0.286 c1.534,0,2.642,0.366,3.321,1.099c0.68,0.732,1.019,1.791,1.019,3.178v4.759c0,0.678-0.078,1.277-0.232,1.797 c-0.155,0.521-0.4,0.974-0.734,1.362c-0.334,0.388-0.783,0.683-1.349,0.886C72.442,118.057,71.767,118.158,70.982,118.158z  M69.344,116.027c0.302,0.396,0.848,0.594,1.639,0.594c0.791,0,1.337-0.198,1.639-0.594c0.301-0.396,0.452-0.979,0.452-1.749 v-5.696c0-0.762-0.149-1.33-0.448-1.706c-0.299-0.376-0.847-0.563-1.643-0.563c-0.797,0-1.344,0.188-1.643,0.563 s-0.448,0.944-0.448,1.706v5.696C68.892,115.049,69.042,115.632,69.344,116.027z" />
            <path fill="#FFFFFF" d="M81.619,118.158c-0.791,0-1.469-0.101-2.034-0.3c-0.565-0.2-1.015-0.493-1.348-0.879 c-0.334-0.386-0.577-0.838-0.729-1.358c-0.152-0.52-0.229-1.124-0.229-1.812v-4.759c0-0.688,0.076-1.289,0.229-1.802 c0.152-0.512,0.396-0.957,0.729-1.336c0.333-0.378,0.783-0.662,1.348-0.853c0.565-0.19,1.243-0.286,2.034-0.286 c1.534,0,2.642,0.366,3.321,1.099c0.679,0.732,1.019,1.791,1.019,3.178v4.759c0,0.678-0.077,1.277-0.232,1.797 c-0.155,0.521-0.4,0.974-0.733,1.362c-0.334,0.388-0.784,0.683-1.349,0.886C83.079,118.057,82.404,118.158,81.619,118.158z  M79.98,116.027c0.302,0.396,0.848,0.594,1.639,0.594s1.337-0.198,1.639-0.594s0.452-0.979,0.452-1.749v-5.696 c0-0.762-0.149-1.33-0.448-1.706s-0.846-0.563-1.643-0.563s-1.344,0.188-1.643,0.563s-0.448,0.944-0.448,1.706v5.696 C79.528,115.049,79.679,115.632,79.98,116.027z" />
            <path fill="#FFFFFF" d="M88.197,118.026v-13.12h2.249v11.715h3.936v1.405H88.197z" />
            <path fill="#FFFFFF" d="M103.682,118.158c-0.791,0-1.469-0.101-2.034-0.3c-0.565-0.2-1.015-0.493-1.349-0.879 s-0.577-0.838-0.729-1.358c-0.152-0.52-0.229-1.124-0.229-1.812v-4.759c0-0.688,0.076-1.289,0.229-1.802 c0.151-0.512,0.395-0.957,0.729-1.336c0.334-0.378,0.783-0.662,1.349-0.853s1.243-0.286,2.034-0.286 c1.534,0,2.642,0.366,3.321,1.099c0.679,0.732,1.019,1.791,1.019,3.178v4.759c0,0.678-0.077,1.277-0.232,1.797 c-0.155,0.521-0.4,0.974-0.733,1.362c-0.334,0.388-0.784,0.683-1.349,0.886C105.142,118.057,104.467,118.158,103.682,118.158z  M102.043,116.027c0.302,0.396,0.848,0.594,1.639,0.594s1.337-0.198,1.639-0.594s0.452-0.979,0.452-1.749v-5.696 c0-0.762-0.149-1.33-0.448-1.706s-0.846-0.563-1.643-0.563s-1.345,0.188-1.643,0.563c-0.299,0.376-0.448,0.944-0.448,1.706v5.696 C101.591,115.049,101.741,115.632,102.043,116.027z" />
            <path fill="#FFFFFF" d="M110.26,118.026v-13.12h6.185v1.406h-3.936v4.217h2.812v1.405h-2.812v6.092H110.26z" />
            <path fill="#FFFFFF" d="M21.92,139.026v-17.873h2.553v17.873H21.92z" />
            <path fill="#FFFFFF" d="M27.207,139.026v-17.873h1.915l4.468,11.051v-11.051h2.553v17.873h-1.815l-4.568-11.889v11.889H27.207z" />
            <path fill="#FFFFFF" d="M38.696,139.026v-17.873h7.021v1.915h-4.468v5.745h3.191v1.915h-3.191v8.298H38.696z" />
            <path fill="#FFFFFF" d="M51.492,139.206c-0.897,0-1.667-0.137-2.309-0.409c-0.642-0.272-1.152-0.672-1.531-1.196 c-0.379-0.525-0.655-1.143-0.828-1.851s-0.259-1.531-0.259-2.469v-6.482c0-0.938,0.086-1.756,0.259-2.453 c0.173-0.698,0.449-1.306,0.828-1.82c0.379-0.516,0.889-0.903,1.531-1.162c0.642-0.26,1.411-0.389,2.309-0.389 c1.742,0,2.999,0.498,3.77,1.495c0.771,0.998,1.157,2.44,1.157,4.329v6.482c0,0.925-0.088,1.74-0.265,2.449 c-0.176,0.708-0.454,1.326-0.833,1.854c-0.379,0.529-0.89,0.932-1.531,1.207S52.383,139.206,51.492,139.206z M49.632,136.304 c0.342,0.538,0.962,0.808,1.86,0.808c0.898,0,1.518-0.27,1.86-0.808c0.342-0.539,0.514-1.333,0.514-2.384v-7.76 c0-1.037-0.17-1.812-0.509-2.323c-0.339-0.513-0.961-0.769-1.865-0.769s-1.526,0.256-1.865,0.769 c-0.339,0.512-0.509,1.286-0.509,2.323v7.76C49.118,134.971,49.289,135.765,49.632,136.304z" />
            <path fill="#FFFFFF" d="M58.653,139.026v-17.873h3.191c1.901,0,3.334,0.369,4.298,1.107c0.964,0.738,1.446,1.965,1.446,3.681 c0,1.063-0.189,1.954-0.568,2.673c-0.379,0.718-0.934,1.21-1.666,1.476l2.872,8.937h-2.533l-2.573-8.298h-1.915v8.298H58.653z  M61.207,128.813h0.638c1.063,0,1.861-0.225,2.394-0.673c0.532-0.449,0.798-1.183,0.798-2.199c0-1.018-0.266-1.751-0.798-2.199 c-0.532-0.449-1.33-0.674-2.394-0.674h-0.638V128.813z" />
            <path fill="#FFFFFF" d="M69.704,139.026v-17.873h3.53l2.533,13.685l2.534-13.685h3.53v17.873h-2.553v-14.103l-2.553,14.103h-1.915 l-2.553-14.103v14.103H69.704z" />
            <path fill="#FFFFFF" d="M83.268,139.026l3.83-17.873h2.554l3.829,17.873h-2.553l-0.957-4.468h-3.192l-0.957,4.468H83.268z  M87.098,132.644h2.554l-1.277-7.66L87.098,132.644z" />
            <path fill="#FFFFFF" d="M96.323,139.026v-15.599h-3.191v-2.274h8.937v2.274h-3.192v15.599H96.323z" />
            <path fill="#FFFFFF" d="M103.454,139.026v-17.873h2.553v17.873H103.454z" />
            <path fill="#FFFFFF" d="M113.349,139.206c-0.898,0-1.668-0.137-2.31-0.409s-1.151-0.672-1.53-1.196 c-0.379-0.525-0.655-1.143-0.828-1.851s-0.26-1.531-0.26-2.469v-6.482c0-0.938,0.087-1.756,0.26-2.453 c0.173-0.698,0.449-1.306,0.828-1.82c0.379-0.516,0.889-0.903,1.53-1.162c0.642-0.26,1.411-0.389,2.31-0.389 c1.741,0,2.998,0.498,3.77,1.495c0.771,0.998,1.157,2.44,1.157,4.329v6.482c0,0.925-0.088,1.74-0.265,2.449 c-0.176,0.708-0.453,1.326-0.833,1.854c-0.379,0.529-0.889,0.932-1.53,1.207S114.239,139.206,113.349,139.206z M111.488,136.304 c0.343,0.538,0.962,0.808,1.86,0.808c0.897,0,1.518-0.27,1.859-0.808c0.343-0.539,0.514-1.333,0.514-2.384v-7.76 c0-1.037-0.169-1.812-0.509-2.323c-0.339-0.513-0.96-0.769-1.864-0.769s-1.526,0.256-1.865,0.769 c-0.339,0.512-0.509,1.286-0.509,2.323v7.76C110.975,134.971,111.146,135.765,111.488,136.304z" />
            <path fill="#FFFFFF" d="M120.509,139.026v-17.873h1.915l4.469,11.051v-11.051h2.553v17.873h-1.815l-4.567-11.889v11.889H120.509z" />
        </g>
    </g>
</svg>
