<svg viewBox="0 0 160 160" xmlns="http://www.w3.org/2000/svg"><path fill="#041E41" d="M0 0h160v160H0z"/><path fill="#F5C400" d="M80.622 83.747l-22.118-30.23v21.99H67.3V97.22H26.62V75.508h8.246V41.7H26.62V19.985h31.954l22.048 30.45 22.047-30.45h31.95V41.7h-8.25v33.807h8.24V97.22H93.94V75.508h8.793v-21.99L80.62 83.748z"/><path d="M45.126 118.158c-1.417 0-2.5-.347-3.247-1.04-.75-.692-1.17-1.64-1.26-2.84l2.25-.47c.11 1.875.86 2.813 2.25 2.813 1.122 0 1.684-.46 1.684-1.4a1.974 1.974 0 0 0-.553-1.42 4.875 4.875 0 0 0-.51-.475 9.628 9.628 0 0 0-.624-.443L42.314 111c-.517-.338-.928-.767-1.235-1.286s-.46-1.11-.46-1.775c0-.97.36-1.74 1.08-2.31.72-.57 1.672-.86 2.86-.86 1.278 0 2.293.26 3.045.78.752.52 1.217 1.253 1.393 2.204.02.103.04.244.07.425l-2.25.47a6.394 6.394 0 0 0-.046-.375c-.1-.593-.323-1.07-.672-1.43-.35-.36-.86-.54-1.532-.54-.54 0-.953.128-1.246.38-.294.25-.44.603-.44 1.05 0 .738.375 1.356 1.125 1.854l2.81 1.875c1.5 1.01 2.25 2.214 2.25 3.62 0 .96-.357 1.713-1.07 2.255-.71.54-1.666.81-2.87.81zm9.89 0c-.662 0-1.245-.078-1.75-.234s-.916-.372-1.238-.647a3.18 3.18 0 0 1-.786-1.033c-.202-.412-.344-.853-.426-1.32s-.123-1-.123-1.59v-3.74c0-.59.04-1.12.123-1.59.082-.468.224-.908.426-1.32.202-.413.464-.756.786-1.03s.735-.487 1.24-.644 1.085-.234 1.748-.234c.732 0 1.365.09 1.897.27.533.182.96.447 1.278.8s.56.758.73 1.222.257 1.006.286 1.625c.006.093.01.237.01.433h-2.25v-.418a9.7 9.7 0 0 0-.035-.662c-.02-.184-.05-.372-.097-.567s-.115-.36-.205-.49a1.705 1.705 0 0 0-.342-.36 1.34 1.34 0 0 0-.523-.24 3.166 3.166 0 0 0-.74-.08c-.363 0-.675.05-.936.144a1.61 1.61 0 0 0-.612.38c-.145.15-.26.356-.337.615s-.13.512-.156.76a9.68 9.68 0 0 0-.035.91v4.687c0 .312.015.596.05.85.03.253.092.506.186.76.094.25.215.46.365.63s.35.31.6.414c.25.106.54.16.875.16s.62-.055.86-.16.43-.246.566-.41a1.85 1.85 0 0 0 .324-.64c.08-.26.13-.51.155-.754s.034-.526.034-.85v-.468h2.25v.47c0 .675-.073 1.27-.216 1.783a3.723 3.723 0 0 1-.693 1.356c-.32.392-.752.69-1.3.895-.55.203-1.21.305-1.98.305zm5.954-.132v-13.12h2.25v5.623h3.935v-5.63h2.25v13.12h-2.25v-6.096H63.22v6.093h-2.25zm15.012.132c-.79 0-1.47-.1-2.034-.3-.565-.2-1.015-.493-1.348-.88a3.58 3.58 0 0 1-.73-1.357c-.15-.52-.228-1.12-.228-1.81v-4.76c0-.68.076-1.29.23-1.8a3.51 3.51 0 0 1 .728-1.33c.333-.38.783-.66 1.348-.852.565-.19 1.243-.286 2.034-.286 1.534 0 2.642.366 3.32 1.1.68.73 1.02 1.79 1.02 3.177v4.76c0 .677-.078 1.276-.232 1.796-.155.52-.4.975-.734 1.363-.334.386-.783.68-1.35.884-.564.205-1.24.306-2.024.306zm-1.638-2.13c.302.395.848.593 1.64.593.79 0 1.336-.19 1.638-.59.3-.39.452-.98.452-1.75v-5.69c0-.76-.15-1.33-.448-1.705-.3-.376-.847-.563-1.643-.563-.797 0-1.344.188-1.643.563s-.448.942-.448 1.704v5.695c0 .77.15 1.354.452 1.75zm12.276 2.13c-.792 0-1.47-.1-2.035-.3-.565-.2-1.015-.493-1.348-.88a3.58 3.58 0 0 1-.73-1.357c-.15-.52-.228-1.12-.228-1.81v-4.76c0-.68.07-1.29.22-1.8a3.51 3.51 0 0 1 .73-1.33c.33-.38.78-.66 1.346-.852.565-.19 1.243-.286 2.034-.286 1.534 0 2.64.366 3.32 1.1.68.73 1.02 1.79 1.02 3.177v4.76c0 .677-.077 1.276-.232 1.796-.155.52-.4.975-.733 1.363-.335.386-.785.68-1.35.884-.566.205-1.24.306-2.026.306zm-1.64-2.13c.302.395.848.593 1.64.593s1.336-.19 1.638-.59.452-.98.452-1.75v-5.69c0-.76-.15-1.33-.448-1.705s-.846-.563-1.643-.563-1.35.188-1.65.563-.45.942-.45 1.704v5.695c0 .77.15 1.354.45 1.75zm8.217 1.998v-13.12h2.25v11.715h3.935v1.41h-6.185zm15.485.132c-.79 0-1.47-.1-2.034-.3-.565-.2-1.015-.493-1.35-.88s-.576-.837-.728-1.357c-.152-.52-.23-1.12-.23-1.81v-4.76c0-.68.077-1.29.23-1.8a3.46 3.46 0 0 1 .73-1.33c.333-.38.782-.66 1.348-.852s1.243-.286 2.034-.286c1.534 0 2.642.366 3.32 1.1.68.73 1.02 1.79 1.02 3.177v4.76c0 .677-.077 1.276-.232 1.796-.155.52-.4.975-.733 1.363-.334.386-.784.68-1.35.884-.565.205-1.24.306-2.025.306zm-1.64-2.13c.303.395.85.593 1.64.593s1.337-.19 1.64-.59.45-.98.45-1.75v-5.69c0-.76-.148-1.33-.447-1.705s-.846-.563-1.643-.563-1.345.188-1.643.563c-.3.374-.45.942-.45 1.704v5.695c0 .77.15 1.354.45 1.75zm8.218 1.998v-13.12h6.185v1.406h-3.936v4.217h2.81v1.4h-2.81v6.09h-2.25zm-88.34 21v-17.873h2.553v17.873H26.92zm5.287 0v-17.873h1.915l4.468 11.05v-11.05h2.553v17.873h-1.815l-4.568-11.89v11.89h-2.553zm11.49 0v-17.873h7.02v1.915H46.25v5.745h3.19v1.915h-3.19v8.298h-2.554zm12.795.18c-.897 0-1.667-.137-2.31-.41a3.556 3.556 0 0 1-1.53-1.195c-.38-.52-.655-1.14-.828-1.85s-.26-1.53-.26-2.47v-6.48c0-.94.087-1.75.26-2.45a5.1 5.1 0 0 1 .828-1.82 3.5 3.5 0 0 1 1.53-1.16c.643-.26 1.412-.39 2.31-.39 1.742 0 3 .5 3.77 1.5s1.157 2.44 1.157 4.33v6.48c0 .926-.09 1.74-.27 2.45a5.362 5.362 0 0 1-.838 1.854c-.38.53-.89.93-1.53 1.207s-1.408.416-2.3.416zm-1.86-2.902c.342.538.962.808 1.86.808.898 0 1.518-.27 1.86-.808.342-.54.514-1.333.514-2.384v-7.76c0-1.037-.17-1.812-.51-2.323-.338-.513-.96-.77-1.864-.77s-1.526.257-1.865.77c-.34.512-.51 1.286-.51 2.323v7.76c0 1.05.172 1.845.515 2.384zm9.02 2.722v-17.873h3.19c1.903 0 3.336.37 4.3 1.107.964.738 1.446 1.965 1.446 3.68 0 1.064-.19 1.955-.568 2.674-.38.718-.934 1.21-1.666 1.476l2.872 8.937h-2.533l-2.573-8.298h-1.915v8.29h-2.552zm2.555-10.213h.638c1.063 0 1.86-.225 2.394-.673.53-.45.79-1.183.79-2.2 0-1.017-.268-1.75-.8-2.198-.533-.45-1.33-.674-2.395-.674H66.2v5.745zm8.497 10.213v-17.873h3.53l2.533 13.685 2.534-13.685h3.53v17.873h-2.55v-14.103l-2.55 14.103h-1.92l-2.55-14.103v14.103h-2.55zm13.564 0l3.83-17.873h2.554l3.83 17.873h-2.554l-.957-4.468h-3.19l-.95 4.468h-2.56zm3.83-6.382h2.554l-1.277-7.66-1.277 7.66zm9.225 6.382v-15.6h-3.19v-2.273h8.936v2.274h-3.2v15.6h-2.556zm7.13 0v-17.873h2.554v17.873h-2.553zm9.897.18c-.9 0-1.67-.137-2.31-.41s-1.152-.67-1.53-1.195c-.38-.52-.656-1.14-.83-1.85s-.26-1.53-.26-2.47v-6.48c0-.94.088-1.75.26-2.45a5.1 5.1 0 0 1 .83-1.82c.378-.51.888-.9 1.53-1.16.64-.26 1.41-.39 2.31-.39 1.74 0 2.997.5 3.77 1.5.77 1 1.156 2.44 1.156 4.33v6.48c0 .926-.088 1.74-.265 2.45a5.344 5.344 0 0 1-.83 1.854c-.38.53-.89.93-1.53 1.207s-1.41.416-2.3.416zm-1.862-2.902c.343.538.962.808 1.86.808.897 0 1.518-.27 1.86-.808.342-.54.513-1.333.513-2.384v-7.76c0-1.037-.16-1.812-.5-2.323-.34-.513-.96-.77-1.863-.77s-1.526.257-1.865.77c-.34.512-.51 1.286-.51 2.323v7.76c0 1.05.173 1.845.515 2.384zm9.022 2.722v-17.873h1.914l4.47 11.05v-11.05h2.552v17.873h-1.815l-4.56-11.89v11.89h-2.552z" fill="#FFF"/></svg>