<svg xmlns="http://www.w3.org/2000/svg" xmlns:xlink="http://www.w3.org/1999/xlink"><defs><symbol id="c"><circle cx="25" cy="25" r="25"/><rect y="55" width="50" height="110" rx="25"/></symbol><clipPath id="b"><circle cx="95" cy="95" r="88"/></clipPath><linearGradient id="a" x2="0" y2="100%"><stop offset="0%" stop-color="#386C8C"/><stop offset="100%" stop-color="#0A2245"/></linearGradient></defs><circle cx="95" cy="95" r="90" fill="url(#a)" stroke="#efefef" stroke-width="6"/><svg clip-path="url(#b)"><use xlink:href="#c" fill="#efefef" x="20" y="80" transform="scale(.75)"/><use xlink:href="#c" fill="#efefef" x="185" y="80" transform="scale(.75)"/><path stroke="#efefef" stroke-width="12" stroke-linecap="round" d="M45 120l30 10"/><path stroke="#efefef" stroke-width="4" stroke-linecap="round" d="M65 115l13 22m-18 0h30"/><rect x="57.5" y="140" width="75" height="10" fill="#efefef" rx="3"/><rect x="87.5" y="140" width="15" height="50" fill="#efefef" rx="3"/><path stroke="#efefef" stroke-width="12" stroke-linecap="round" d="M120 130l30-10"/><path stroke="#efefef" stroke-width="4" stroke-linecap="round" d="M100 135l-10-33m12 35h28"/><g fill="#efefcf"><rect x="57" y="50" width="40" height="30" rx="5"/><path d="M60 90l5-15h20"/></g><g fill="#efcfef"><rect x="100" y="60" width="35" height="25" rx="18" ry="13"/><path d="M135 85l-5-10-20 5"/></g></svg></svg>