<svg width="100%" height="100%" id="xd">
    <rect width="100%" height="100%" fill="#323232" />
    <g fill="#f3f3f3" transform="translate(23,177),scale(0.9)">
        <g display="none">
            <g display="inline">
                <path fill-rule="evenodd" clip-rule="evenodd" d="M148.441,26.943c-2.89,0-5.778,0.002-8.667,0.002 c-2.766,0-5.537,0.173-8.3-0.038c-1.159-0.088-2.389-0.338-3.506,0.107c-1.117,0.445-1.943,1.428-2.739,2.287 c-1.897,2.047-3.942,3.972-5.915,5.946c-4.026,4.029-8.021,8.09-12.126,12.037c-2,1.922-3.959,3.881-5.881,5.882 c-0.899,0.936-1.822,1.828-2.793,2.689c-0.98,0.868-2.134,1.749-2.813,2.887c-1.5,2.513,1.406,4.293,3.016,5.771 c2.074,1.905,4.079,3.894,6.086,5.868c4.054,3.988,8.049,8.035,12.069,12.056c8.109,8.107,16.273,16.161,24.31,24.34 c1.92,1.954,3.835,3.912,5.803,5.817c1.553,1.503,3.201,2.893,4.782,4.361c1,0.928,2.232,2.965-0.093,3.028 c-2.477,0.067-4.996-0.101-7.479-0.116c-5.783-0.032-11.567-0.067-17.35-0.124c-1.39-0.014-2.776-0.029-4.164-0.045 c-1.338-0.016-2.822,0.147-4.131-0.166c-2.062-0.493-3.479-2.273-4.886-3.724c-1.917-1.974-3.904-3.883-5.889-5.789 c-1.932-1.855-3.697-3.873-5.634-5.723c-4.057-3.872-7.924-7.926-11.88-11.9c-1.931-1.942-3.958-3.785-5.869-5.747 c-1.96-2.012-3.886-4.057-5.882-6.034c-1.915-1.897-3.936-3.686-5.804-5.629c-1.929-2.009-3.847-4.03-5.864-5.95 c-2.015-1.919-4.008-3.86-5.97-5.833c-1.348-1.356-3.657-2.918-1.708-4.816c3.927-3.819,7.861-7.637,11.798-11.449 c3.922-3.797,7.743-7.698,11.622-11.538c4.018-3.977,7.972-8.019,11.984-12.001c3.995-3.964,7.888-8.03,11.856-12.022 c2.003-2.015,4.016-4.021,6.047-6.008c0.936-0.915,1.873-1.829,2.812-2.74c0.774-0.752,1.478-1.652,2.412-2.215 c1.052-0.633,2.128-0.201,3.268-0.19c1.486,0.014,2.975-0.017,4.46-0.017c2.883,0,5.767-0.001,8.65-0.002 c5.766-0.001,11.532-0.002,17.3,0c5.688,0.003,11.472-0.283,17.146,0.173c5.375,0.432,10.623,2.06,15.521,4.265 c8.584,3.864,15.817,10.214,21.21,17.894c12.158,17.316,14.247,40.292,8.07,60.26c-3.073,9.935-8.491,18.948-16.037,26.118 c-3.667,3.484-7.831,6.395-12.497,8.379c-2.153,0.917-4.644,1.95-6.995,2.165c-1.211,0.11-2.015-0.604-2.829-1.404 c-0.938-0.922-1.816-1.908-2.746-2.84c-4.016-4.028-8.014-8.071-12.022-12.107c-1.918-1.931-3.797-4.064-5.923-5.769 c-0.794-0.636-1.768-1.153-2.338-2.025c-0.251-0.384-0.295-0.908-0.065-1.314c0.257-0.453,0.833-0.412,1.279-0.405 c2.892,0.053,5.784,0.092,8.676,0.143c2.715,0.047,5.467,0.177,8.107-0.58c4.781-1.37,8.686-4.033,11.816-7.89 c12.108-14.924,11.824-40.057-3.413-52.854c-3.696-3.104-8.053-4.967-12.876-5.339c-2.769-0.214-5.559-0.129-8.332-0.129 C154.231,26.946,151.335,26.943,148.441,26.943z" />
                <path fill-rule="evenodd" clip-rule="evenodd" d="M0.686,0.209c5.775,0,11.552,0.041,17.328,0.039 c2.887-0.001,5.774-0.013,8.662-0.046c1.386-0.016,2.771-0.037,4.157-0.064c1.288-0.024,2.568-0.028,3.738,0.589 c2.06,1.087,3.489,3.115,5.109,4.728c1.984,1.974,4.056,3.856,6.037,5.834c4.06,4.051,8.115,8.108,12.169,12.164 c0.949,0.95,1.916,1.885,2.844,2.855c0.867,0.906,1.687,1.902,2.688,2.666c0.728,0.556,1.457,1.037,1.173,2.078 c-0.285,1.042-1.272,1.761-2.011,2.48c-3.902,3.795-7.984,7.464-11.628,11.514c-1.033,1.146-2.11,2.911-3.714,3.292 c-0.916,0.218-1.548-0.339-2.178-0.922c-1.038-0.959-2.028-1.968-3.012-2.983c-3.976-4.103-8.055-8.108-12.093-12.149 c-5.367-5.37-10.723-10.753-16.091-16.123c-2.675-2.676-5.343-5.359-8.037-8.017c-1.34-1.322-2.702-2.621-4.063-3.921 c-1.148-1.096-2.326-2.197-3.01-3.659C-0.624,0.316,0.001,0,0.687,0C0.684,0.511,5.306,0.07,5.306,0.193 C5.306,0.179,0.686,0.13,0.686,0.209c0.434,0,4.62,0.01,4.62-0.016C5.306,0.179,0.686,0.142,0.686,0.209 c0.191,0,4.62,0.005,4.62-0.016C5.306,0.179,0.686,0.152,0.686,0.209C11.082,0.209,0.686,0.139,0.686,0.209 C6.461,0.209,0.686,0.139,0.686,0.209z" />
                <path fill-rule="evenodd" clip-rule="evenodd" d="M18.165,119.706c-5.689,0-11.387-0.196-17.071,0.171 c-0.558,0.036-1.523,0.177-1.852-0.424c-0.491-0.899,0.587-1.986,1.191-2.504c1.981-1.699,3.862-3.45,5.705-5.3 c8.161-8.196,16.369-16.346,24.55-24.522c4.017-4.013,8.023-8.037,11.987-12.102c0.951-0.976,1.899-1.954,2.844-2.935 c0.906-0.939,1.67-0.821,2.567,0.068c1.934,1.915,3.833,3.868,5.761,5.789c1.965,1.959,3.897,3.952,5.866,5.909 c0.933,0.926,1.876,1.844,2.846,2.732c0.779,0.712,2.24,1.631,2.061,2.872c-0.156,1.081-1.471,2-2.234,2.669 c-1.033,0.906-2.003,1.875-2.958,2.862c-1.947,2.012-3.905,4.01-5.903,5.971c-5.271,5.177-10.483,10.408-15.729,15.607 c-1.034,1.025-2.063,2.151-3.431,2.728c-1.505,0.636-3.178,0.44-4.767,0.409C25.791,119.63,21.975,119.706,18.165,119.706z" />
                <path fill-rule="evenodd" clip-rule="evenodd" d="M395.004,47.481c1.533-0.117,3.126-0.503,4.36,0.646 c0.944,0.878,1.47,2.139,1.935,3.315c0.64,1.617,1.188,3.268,1.819,4.888c0.739,1.9,1.607,3.427,3.241,4.667 c0.258-0.422,0.692-0.779,0.83-1.265c0.157-0.552,0.012-1.312-0.001-1.884c-0.032-1.451-0.077-2.902-0.147-4.351 c-0.101-2.045-0.886-5.42,1.776-6.213c0.519-0.155,1.024,0.085,1.539,0.127c0.499,0.041,0.954-0.03,1.44,0.146 c1.172,0.425,1.425,1.615,1.305,2.732c-0.292,2.712-0.3,5.342-0.227,8.069c0.075,2.855,0.021,5.712,0.126,8.567 c0.073,1.981,0.825,5.214-1.83,5.757c-1.118,0.229-2.33,0.128-3.46,0.065c-1.116-0.061-2.212-0.129-2.995-1.035 c-0.748-0.866-1.242-2.072-1.719-3.102c-0.563-1.215-1.057-2.463-1.52-3.721c-0.437-1.183-0.788-2.402-1.31-3.55 c-0.263-0.579-0.556-1.144-0.855-1.705c-0.292-0.546-0.567-1.374-1.005-1.812c-0.252-0.251-0.677-0.457-0.993-0.217 c-0.503,0.38-0.479,0.887-0.49,1.459c-0.029,1.481-0.025,2.961-0.022,4.441c0.003,1.338,0.002,2.675,0.011,4.013 c0.008,1.264,0.26,2.848-0.081,4.073c-0.287,1.029-1.292,1.098-2.191,1.112c-0.889,0.014-2.295,0.273-3.006-0.422 c-0.984-0.962-0.595-2.821-0.567-4.042c0.064-2.795,0.006-5.599,0.003-8.396c-0.002-1.365-0.007-2.731,0.006-4.098 c0.012-1.352,0.135-2.751-0.017-4.096c-0.113-0.995-0.408-2.132-0.005-3.096c0.446-1.069,1.678-1.095,2.668-1.178 c0.561-0.048,1.182,0.154,1.712,0.073C395.295,47.459,395.003,47.454,395.004,47.481c0.111-0.007,0.221-0.017,0.33-0.029 C395.305,47.458,395.003,47.459,395.004,47.481C395.759,47.423,395.003,47.462,395.004,47.481 C395.759,47.423,395.003,47.462,395.004,47.481z" />
                <path fill-rule="evenodd" clip-rule="evenodd" d="M363.6,101.197c0-1.361-0.075-2.721-0.088-4.081 c-0.01-1.09-0.153-2.236,0.188-3.293c0.561-1.742,2.837-1.801,4.326-1.423c1.678,0.427,1.798,2.253,1.731,3.711 c-0.095,2.046-0.333,4.068-0.358,6.123c-0.034,2.816,0.021,5.63,0.19,8.442c0.084,1.376,0.168,2.754,0.173,4.133 c0.003,0.866-0.155,1.998-1.036,2.413c-0.98,0.462-2.282,0.266-3.325,0.213c-1.222-0.062-2.543,0.103-3.63-0.583 c-0.896-0.566-1.346-1.535-1.759-2.47c-0.57-1.291-1.16-2.578-1.775-3.848c-0.747-1.544-0.854-3.252-1.562-4.817 c-0.467-1.035-1.127-2.661-2.235-3.167c-1.837-0.839-1.209,3.204-1.167,3.896c0.08,1.305,0.076,2.616,0.123,3.922 c0.05,1.44,0.237,2.887,0.235,4.326c-0.002,2.125-1.221,2.916-3.228,2.745c-0.742-0.063-1.627-0.114-2.304-0.447 c-0.939-0.464-0.949-1.639-0.875-2.547c0.101-1.252,0.28-2.456,0.289-3.717c0.009-1.477,0.021-2.954,0.029-4.43 c0.015-2.842,0.04-5.692-0.101-8.533c-0.062-1.243-0.335-2.603-0.017-3.832c0.327-1.264,1.326-1.573,2.524-1.566 c0.877,0.004,1.753,0.097,2.631,0.061c0.745-0.031,1.487-0.129,2.219,0.083c1.408,0.411,2.278,1.867,2.863,3.112 c1.327,2.825,2.035,5.95,3.474,8.721c0.462,0.891,1.888,2.365,2.529,0.724C363.83,104.653,364.107,101.193,363.6,101.197 c0-0.275,0.099-0.763,0.017-1.029C363.646,100.265,363.659,101.196,363.6,101.197c0-0.024-0.006-0.928,0.015-0.928 C363.627,100.269,363.658,101.196,363.6,101.197C363.6,98.86,363.669,101.196,363.6,101.197 C363.6,98.932,363.669,101.196,363.6,101.197C363.6,99.835,363.669,101.196,363.6,101.197z" />
                <path fill-rule="evenodd" clip-rule="evenodd" d="M318.889,13.885c0-2.827,0.065-5.654-0.007-8.48 c-0.027-1.045-0.133-2.076,0.844-2.736c0.965-0.652,2.443-0.346,3.537-0.337c2.764,0.021,5.583-0.054,8.335,0.234 c1.856,0.194,3.724,1.22,5.011,2.549c1.432,1.48,1.98,3.864,1.246,5.821c-0.372,0.992-1.298,1.781-1.198,2.922 c0.103,1.152,1.135,2.132,1.678,3.109c1.187,2.132,1.076,4.769-0.274,6.807c-1.158,1.75-3.073,2.803-5.068,3.314 c-2.215,0.568-4.581,0.577-6.854,0.56c-1.239-0.008-2.478-0.046-3.717-0.066c-0.962-0.015-2.074,0.14-2.901-0.467 c-0.579-0.424-0.835-1.12-0.813-1.822c0.016-0.487,0.165-0.953,0.177-1.442c0.016-0.664,0.005-1.329,0.006-1.992 C318.891,19.2,318.889,16.542,318.889,13.885z M325.15,19.855c-0.163,3.889,5.183,3.802,6.943,1.268 c1.654-2.38-1.819-4.059-3.685-4.31c-1.081-0.146-2.169,0.021-2.797,0.993c-0.504,0.778-0.771,1.884-0.505,2.792 c-0.128-0.433-0.113-1.058,0.03-1.485c-0.109,0.329,0.265,0.946-0.016,1.212c0.149-0.143,0.105-1.116,0.019-1.297 c0.239,0.495-0.02,1.549-0.047,2.104c-0.002,0.046-0.08,0.707-0.045,0.726c-0.104-0.057,0.021-1.148,0.025-1.272 c0.005-0.123,0.144-1.192,0.064-1.248C325.197,19.378,325.15,19.797,325.15,19.855C324.988,23.72,325.15,17.277,325.15,19.855z  M327.471,12.323c1.749,0,4.2,0.337,4.338-2.082c0.093-1.635-1.587-2.662-2.979-2.988c-1.796-0.419-3.473,0.186-3.683,2.201 c-0.088,0.846,0.101,1.728,0.769,2.303c0.275,0.237,1.409,0.865,1.775,0.562c-0.05,0.041-0.897,0.022-0.943-0.021 C326.836,12.382,327.365,12.32,327.471,12.323C328.509,12.323,325.411,12.265,327.471,12.323 C328.509,12.323,325.411,12.265,327.471,12.323C328.509,12.323,325.411,12.265,327.471,12.323z" />
                <path fill-rule="evenodd" clip-rule="evenodd" d="M238.872,106.445c0-2.824,0.055-5.655-0.04-8.478 c-0.058-1.744-0.622-5.285,1.869-5.605c1.216-0.156,2.497,0.097,3.715,0.155c1.422,0.069,2.824-0.075,4.242-0.059 c2.448,0.028,4.977,0.626,7.061,1.947c3.792,2.403,5.694,6.541,5.404,10.958c-0.279,4.243-2.419,8.112-6.138,10.273 c-1.987,1.154-4.137,1.569-6.413,1.632c-2.601,0.073-5.275,0.27-7.873,0.116c-2.097-0.125-1.891-2.151-1.808-3.707 c0.144-2.703-0.02-5.408-0.02-8.111c0,0.332,0,0.663,0,0.995c0-0.546,0-1.199,0-1.704c0,0.545,0,1.09,0,1.635 c0-0.362,0-0.874,0-1.182c0,0.416,0,0.832,0,1.248C238.872,106.521,238.872,106.483,238.872,106.445 C238.872,104.175,238.872,107.245,238.872,106.445z M245.341,104.774c0,2.102-0.713,5.357,0.936,7.039 c1.01,1.031,2.687,0.605,3.838,0.082c1.733-0.787,3.031-2.304,3.732-4.053c1.371-3.419,0.319-7.775-3.174-9.458 c-1.324-0.639-3.5-1.069-4.677,0.099c-0.757,0.749-0.72,1.991-0.7,2.975c0.025,1.255,0.045,2.507,0.045,3.763 c0-0.29,0-0.58,0-0.869c0,0.428,0,0.909,0,1.316c0-0.403,0-0.842,0-1.224C245.341,104.553,245.341,104.664,245.341,104.774 C245.341,107.316,245.341,103.278,245.341,104.774z" />
                <path fill-rule="evenodd" clip-rule="evenodd" d="M264.152,15.561c0-2.852,0.129-5.736-0.072-8.582 c-0.075-1.059-0.346-2.248,0.01-3.284c0.379-1.104,1.493-1.451,2.564-1.48c1.188-0.033,2.389,0.128,3.576,0.184 c1.399,0.065,2.799-0.013,4.197,0.06c2.351,0.124,4.73,0.809,6.735,2.055c1.954,1.215,3.631,3.186,4.37,5.379 c0.394,1.167,0.318,2.342,0.291,3.554c-0.031,1.391-0.009,2.786-0.063,4.175c-0.179,4.57-4.302,8.048-8.467,9.18 c-2.384,0.648-4.873,0.738-7.33,0.75c-1.628,0.008-4.515,0.674-5.601-0.936c-0.524-0.779-0.391-1.643-0.271-2.513 c0.179-1.31,0.061-2.696,0.062-4.016c0.004-1.73-0.001-3.556-0.001-5.242c0,0.423,0,0.875,0,1.282 C264.152,15.939,264.152,15.75,264.152,15.561C264.152,13.159,264.152,17.65,264.152,15.561 C264.152,13.159,264.152,17.65,264.152,15.561z M273.134,7.723c-1.909-0.001-2.826,1.372-2.711,3.148 c0.166,2.561,0.151,5.131,0.134,7.695c-0.011,1.377-0.001,3.453,1.641,3.916c1.258,0.355,2.691-0.269,3.759-0.895 c3.044-1.783,4.537-5.481,3.467-8.88c-0.49-1.557-1.477-3.012-2.817-3.957c-0.678-0.477-1.451-0.815-2.27-0.957 c-0.268-0.046-1.415,0.101-1.583-0.082c0.184,0.201,1.358-0.167,1.676-0.07C274.1,7.543,273.472,7.706,273.134,7.723 C271.31,7.722,276.809,7.537,273.134,7.723C271.31,7.722,276.809,7.537,273.134,7.723C271.31,7.722,276.809,7.537,273.134,7.723z" />
                <path fill-rule="evenodd" clip-rule="evenodd" d="M331.216,60.804c0-2.82-0.004-5.64,0.001-8.458 c0.002-1.129-0.247-2.539,0.115-3.624c0.3-0.903,1.25-1.212,2.108-1.312c2.496-0.292,5.191-0.104,7.68,0.179 c2.438,0.275,5.426,0.395,7.264,2.182c1.746,1.698,2.686,3.492,2.407,6c-0.127,1.139-0.525,2.245-1.241,3.148 c-0.67,0.847-1.772,1.393-2.338,2.295c-0.524,0.836-0.324,1.875,0.178,2.669c0.756,1.193,1.622,2.326,2.393,3.515 c0.521,0.802,4.015,5.214,1.46,5.286c-1.203,0.034-2.407,0.087-3.609,0.032c-1.033-0.047-2.108-0.198-2.728-1.142 c-1.326-2.023-2.316-4.244-3.629-6.279c-0.479-0.745-0.896-1.759-1.91-1.815c-0.99-0.055-1.588,0.774-1.753,1.662 c-0.298,1.591,0.207,3.264,0.154,4.873c-0.053,1.629-0.748,2.38-2.333,2.596c-1.236,0.167-3.245,0.401-3.966-0.921 c-0.463-0.85-0.253-1.985-0.253-2.911c-0.001-1.386-0.001-2.774-0.001-4.16c0.001-1.58,0.001-3.194,0.001-4.757 c0,0.617,0,1.269,0,1.869C331.216,61.42,331.216,61.112,331.216,60.804z M340.131,58.499c1.82,0.001,4.272-1.055,4.238-3.185 c-0.033-2.015-2.295-3.07-4.055-3.081c-2.338-0.014-2.995,1.916-2.811,3.944c0.177,1.94,1.626,2.317,3.312,2.321 c-0.404,0-0.808,0-1.212,0C339.781,58.499,339.957,58.499,340.131,58.499C341.835,58.5,338.195,58.499,340.131,58.499 C341.525,58.5,338.195,58.499,340.131,58.499C341.855,58.5,338.195,58.499,340.131,58.499z" />
                <path fill-rule="evenodd" clip-rule="evenodd" d="M314.361,14.323c-0.15,4.283-1.227,8.666-4.873,11.318 c-3.901,2.838-9.763,3.091-13.979,0.786c-1.871-1.023-3.609-2.813-4.523-4.747c-1.042-2.202-1.089-4.916-1.066-7.306 c0.022-2.47,0.394-5.023,1.799-7.111c1.202-1.785,2.972-3.188,4.936-4.051c4.029-1.77,9.139-1.57,12.743,1.06 c1.736,1.268,3.091,3.004,3.819,5.031c0.42,1.167,0.664,2.385,0.887,3.601c0.115,0.629,0.21,1.257,0.223,1.898 c0.002,0.146-0.176,1.182-0.063,1.311c-0.09-0.102-0.089-1.754,0.083-1.826c0.066-0.028-0.177,1.719-0.083,1.826 c-0.135-0.154-0.011-0.878-0.005-1.07C314.26,14.938,314.321,14.107,314.361,14.323C314.207,18.729,314.211,13.519,314.361,14.323 C314.207,18.729,314.211,13.519,314.361,14.323z M302,22.772c1.612,0,3.251-1.261,4.236-2.439c1.145-1.367,1.484-3.39,1.531-5.125 c0.097-3.615-2.143-7.962-6.298-7.784c-3.965,0.17-5.529,5.013-5.281,8.328c0.151,2.025,1.042,3.808,2.419,5.279 c0.599,0.641,1.289,1.279,2.114,1.612C301.125,22.807,301.573,22.883,302,22.772c0.092,0,0.532-0.055,0.608,0.035 c-0.005-0.006-0.844,0.166-0.836,0.054C301.776,22.815,301.981,22.778,302,22.772C303.783,22.773,300.99,23.034,302,22.772 C303.783,22.773,300.99,23.034,302,22.772C303.783,22.773,300.99,23.034,302,22.772z" />
                <path fill-rule="evenodd" clip-rule="evenodd" d="M319.502,104.824c0.214-1.215,0.257-2.458,0.542-3.662 c0.259-1.097,0.788-2.142,1.357-3.109c1.037-1.762,2.487-3.258,4.394-4.064c1.086-0.459,2.19-0.954,3.306-1.337 c1.283-0.441,2.603-0.499,3.945-0.52c1.389-0.021,2.776-0.017,4.164-0.005c1.134,0.009,2.203-0.071,3.158,0.636 c1.343,0.995,2.275,3.395,0.983,4.803c-0.746,0.812-1.824,0.642-2.778,0.394c-1.296-0.338-2.607-0.785-3.964-0.749 c-2.081,0.054-4.218,0.515-5.802,1.95c-1.737,1.574-2.999,3.876-2.729,6.248c0.258,2.26,1.308,4.22,3.066,5.659 c1.366,1.118,3.686,2.513,5.448,1.448c1.512-0.911,1.689-3.092,0.007-3.894c-0.938-0.445-1.989-0.702-2.441-1.749 c-0.39-0.902-0.261-2.165,0.305-2.972c0.979-1.396,3.172-0.839,4.603-0.855c1.228-0.014,2.575-0.258,3.789-0.018 c1.066,0.211,1.277,1.293,1.337,2.216c0.081,1.267-0.041,2.538-0.033,3.805c0.009,1.402,0.065,2.804,0.084,4.207 c0.013,0.971,0.075,2.308-0.702,3.035c-0.723,0.676-2.03,0.785-2.946,0.991c-4.759,1.071-9.953,0.979-14.087-1.945 c-1.852-1.309-3.403-3.189-4.128-5.354c-0.164-0.491-1.194-5.572-0.747-5.59c0.109-0.003,0.098,1.04,0.006,1.035 C319.546,105.423,319.508,104.873,319.502,104.824C319.786,103.215,319.754,106.78,319.502,104.824 C319.786,103.215,319.754,106.78,319.502,104.824C319.786,103.215,319.754,106.78,319.502,104.824z" />
                <path fill-rule="evenodd" clip-rule="evenodd" d="M246.651,47.426c1.376,0,2.753,0.04,4.128-0.002 c1.248-0.038,2.652-0.296,3.82,0.284c1.443,0.714,2.46,2.839,1.373,4.253c-0.666,0.866-1.747,0.978-2.764,0.934 c-1.404-0.062-2.797-0.263-4.197-0.343c-1.122-0.064-2.326,0.097-3.086,1.012c-0.654,0.787-0.725,1.921-0.098,2.747 c2.206,2.908,8.155-1.647,9.561,1.966c0.31,0.796,0.322,1.864,0.174,2.698c-0.213,1.192-1.32,1.46-2.39,1.479 c-1.761,0.033-3.521-0.417-5.279-0.227c-1.973,0.213-3.291,1.847-2.254,3.802c0.5,0.945,1.386,1.197,2.39,1.213 c1.331,0.021,2.668,0.015,3.995-0.083c1.857-0.134,4.618-0.569,4.718,2.071c0.07,1.852-1.11,3.304-2.941,3.537 c-2.007,0.255-4.188-0.17-6.207-0.218c-1.363-0.031-2.728-0.037-4.088,0.07c-0.974,0.076-1.978,0.245-2.943,0.024 c-0.983-0.223-1.594-0.916-1.683-1.925c-0.117-1.333-0.007-2.72-0.006-4.057c0.001-2.876,0.002-5.751,0-8.627 c-0.002-1.645,0.045-3.298-0.026-4.942c-0.062-1.431-0.601-3.184,0.164-4.51c0.605-1.051,1.879-1.251,2.988-1.245 c1.722,0.012,3.443,0.084,5.166,0.087c-0.354,0-0.71-0.001-1.064,0c0.298,0,0.595,0.002,0.893,0c-0.314,0.002-0.63,0-0.945,0 c0.337,0,0.672,0,1.009,0c-0.33,0-0.659,0-0.988,0C246.262,47.425,246.458,47.426,246.651,47.426 C248.373,47.425,244.77,47.426,246.651,47.426C248.027,47.425,244.77,47.426,246.651,47.426z" />
                <path fill-rule="evenodd" clip-rule="evenodd" d="M260.382,25.761c0.008,2.582-3.154,2.11-4.918,1.739 c-0.941-0.198-1.79-0.718-2.178-1.63c-0.428-1.004-0.446-2.208-1.361-2.941c-0.785-0.628-1.844-0.708-2.809-0.685 c-1.1,0.028-2.248,0.03-3.341,0.147c-1.099,0.118-1.911,0.692-2.371,1.696c-0.427,0.931-0.582,1.99-1.368,2.713 c-1.086,1-4.348,1.586-5.433,0.313c-0.937-1.1,0.211-3.083,0.729-4.122c1.002-2.003,1.65-4.164,2.326-6.294 c0.848-2.672,1.708-5.335,2.651-7.975c0.586-1.637,1.216-3.254,1.631-4.945c0.399-1.629,2.098-1.539,3.427-1.414 c1.402,0.132,2.847-0.49,4.107,0.415c1.188,0.854,1.559,2.501,1.982,3.813c1.066,3.295,2.435,6.492,3.508,9.789 c0.545,1.675,1.024,3.373,1.631,5.027c0.303,0.827,0.636,1.646,0.996,2.449c0.329,0.731,0.996,1.63,0.778,2.476 C260.406,26.2,260.434,25.891,260.382,25.761c0.003,0.088,0.001,0.176-0.009,0.264C260.386,25.979,260.391,25.786,260.382,25.761 c0.007,0.069,0.003,0.137-0.012,0.204C260.337,25.959,260.348,25.67,260.382,25.761C260.385,26.72,260.316,25.584,260.382,25.761 C260.384,26.553,260.316,25.584,260.382,25.761z M248.064,17.132c0.801,0,1.821-0.174,2.285-0.915 c0.417-0.668,0.081-1.592-0.06-2.302c-0.24-1.215-0.573-2.851-1.647-3.625c-1.8-1.295-2.414,2.075-2.684,3.147 c-0.214,0.849-0.608,2.044-0.138,2.875C246.255,17.081,247.285,17.132,248.064,17.132z" />
                <path fill-rule="evenodd" clip-rule="evenodd" d="M380.142,67.369c1.375-0.1,2.75-0.188,4.124-0.305 c1.04-0.087,1.818,0.603,1.888,1.625c0.062,0.907,0.053,1.917-0.296,2.771c-0.389,0.954-1.398,1.222-2.345,1.22 c-1.207-0.003-2.417-0.197-3.628-0.217c-1.453-0.024-2.906,0.022-4.359,0.046c-1.368,0.022-2.73,0.08-4.099,0.139 c-0.971,0.042-2.039,0.058-2.617-0.874c-0.62-0.996-0.377-2.334-0.308-3.436c0.093-1.467,0.095-2.945,0.105-4.414 c0.022-2.842-0.033-5.684,0.006-8.527c0.018-1.312,0.097-2.635-0.055-3.944c-0.123-1.07-0.411-2.326,0.379-3.225 c0.677-0.771,1.708-0.859,2.67-0.83c1.401,0.043,2.8,0.033,4.201,0.028c1.356-0.005,2.715-0.001,4.072-0.001 c1.277,0,2.665-0.146,3.904,0.237c1.813,0.561,3.177,3.076,1.492,4.563c-1.256,1.107-3.331,0.585-4.818,0.43 c-1.409-0.146-3.135-0.352-4.442,0.313c-1.891,0.962-1.373,3.739,0.659,4.152c1.112,0.226,2.368,0.049,3.486-0.043 c1.149-0.094,2.674-0.576,3.713,0.11c1.271,0.837,1.812,3.316,0.789,4.526c-0.645,0.762-1.74,0.756-2.654,0.769 c-1.24,0.017-2.484-0.041-3.722-0.099c-1.165-0.055-2.589-0.049-3.183,1.149c-0.492,0.994-0.474,2.566,0.474,3.297 c0.812,0.627,1.972,0.43,2.935,0.432c0.171,0,2.231-0.036,2.238,0.055C380.751,67.306,380.14,67.342,380.142,67.369 c-0.021,0.002,0.611-0.042,0.61-0.051C380.751,67.309,380.14,67.345,380.142,67.369C381.517,67.269,380.139,67.337,380.142,67.369 C381.517,67.269,380.139,67.337,380.142,67.369C381.517,67.269,380.139,67.337,380.142,67.369z" />
                <path fill-rule="evenodd" clip-rule="evenodd" d="M351.822,27.57c-1.346,0-2.691-0.015-4.038-0.013 c-1.184,0.002-2.471,0.268-3.597-0.22c-1.759-0.764-0.861-3.359-0.859-4.816c0.006-2.856-0.013-5.714,0.012-8.57 c0.023-2.767,0.117-5.518-0.183-8.275c-0.107-0.996-0.159-2.221,0.724-2.903c0.794-0.613,1.908-0.562,2.854-0.524 c2.733,0.11,5.486,0.423,8.223,0.231c1.572-0.11,3.788-0.65,4.915,0.824c0.86,1.125,1.056,3.265-0.148,4.235 c-0.796,0.641-2.051,0.513-2.999,0.453c-1.312-0.083-2.621-0.325-3.938-0.324c-1.814,0.001-3.952,1.142-2.997,3.262 c1.807,4.006,9.132-1.603,9.995,3.34c0.336,1.927-1.157,3.157-2.943,3.247c-1.77,0.09-3.558-0.597-5.316-0.284 c-1.901,0.337-2.469,2.562-1.49,4.09c0.527,0.824,1.348,1.019,2.271,1.05c1.367,0.045,2.76-0.074,4.123-0.165 c1.21-0.081,3.419-0.569,4.281,0.582c0.636,0.851,0.499,2.199,0.071,3.108C359.396,28.843,354.276,27.57,351.822,27.57z" />
                <path fill-rule="evenodd" clip-rule="evenodd" d="M453.211,67.371c1.444-0.104,2.855-0.562,4.317-0.396 c1.759,0.201,2.22,1.646,1.909,3.244c-0.156,0.801-0.537,1.617-1.232,2.085c-0.945,0.64-2.252,0.457-3.323,0.377 c-2.714-0.201-5.52-0.247-8.239-0.141c-1.032,0.039-2.163,0.316-3.188,0.104c-1.033-0.214-1.535-1.11-1.693-2.083 c-0.146-0.897-0.062-1.811-0.022-2.712c0.062-1.363,0.047-2.733,0.064-4.098c0.037-2.836,0.132-5.674,0.145-8.511 c0.006-1.379-0.023-2.758-0.138-4.131c-0.085-1.02-0.209-2.202,0.577-3.001c0.764-0.777,1.888-0.76,2.896-0.699 c1.399,0.084,2.805,0.06,4.206,0.037c1.375-0.022,2.75-0.058,4.126-0.064c1.147-0.003,2.46-0.163,3.572,0.177 c1.549,0.475,2.671,2.75,1.762,4.218c-0.636,1.025-2.11,1.108-3.187,1.1c-1.346-0.008-2.673-0.241-4.012-0.332 c-1.497-0.102-3.546,0.575-3.651,2.356c-0.179,3.016,3.7,2.235,5.487,2.061c1.048-0.103,2.241-0.28,3.245,0.14 c1.025,0.429,1.519,1.522,1.645,2.571c0.512,4.256-5.562,2.288-7.945,2.585c-1.676,0.209-2.921,1.461-2.423,3.251 c0.244,0.878,0.983,1.482,1.854,1.687c1.137,0.266,2.733,0.372,3.873,0.124C453.775,67.332,453.208,67.33,453.211,67.371 c0.21-0.016,0.446-0.01,0.653-0.054C453.805,67.33,453.208,67.333,453.211,67.371C454.063,67.309,453.208,67.338,453.211,67.371 C454.626,67.269,453.208,67.338,453.211,67.371C454.813,67.255,453.208,67.338,453.211,67.371z" />
                <path fill-rule="evenodd" clip-rule="evenodd" d="M317.3,47.426c1.325,0,2.648-0.084,3.974-0.091 c1.187-0.005,2.543-0.1,3.597,0.554c1.456,0.906,2.002,3.382,0.494,4.5c-0.941,0.698-2.221,0.493-3.307,0.426 c-1.376-0.086-2.752-0.168-4.13-0.158c-1.017,0.007-1.892,0.271-2.396,1.221c-0.511,0.961-0.518,2.237,0.487,2.877 c0.83,0.53,1.913,0.472,2.857,0.457c1.433-0.023,2.865-0.083,4.296-0.16c0.78-0.042,1.766-0.058,2.118,0.798 c0.372,0.9,0.373,2.013,0.251,2.964c-0.11,0.871-0.401,1.52-1.353,1.625c-1.11,0.124-2.305-0.075-3.414-0.127 c-1.71-0.079-4.485-0.466-5.441,1.435c-0.773,1.537,0.123,3.113,1.72,3.422c1.442,0.279,2.904-0.054,4.347-0.141 c1.334-0.081,2.792-0.251,4.074,0.222c1.812,0.668,1.369,2.797,0.619,4.171c-0.532,0.975-1.386,1.33-2.468,1.278 c-1.397-0.068-2.772-0.219-4.178-0.204c-2.244,0.022-4.482,0.141-6.722,0.27c-1.478,0.085-3.295-0.037-3.744-1.745 c-0.307-1.165-0.169-2.423-0.153-3.611c0.019-1.456-0.045-2.912,0.056-4.365c0.067-0.967,0.247-1.919,0.327-2.884 c0.093-1.11,0.025-2.224-0.014-3.334c-0.073-2.11-0.247-4.211-0.351-6.32c-0.077-1.579,0.526-2.928,2.25-3.085 C313.131,47.235,315.257,47.426,317.3,47.426z" />
                <path fill-rule="evenodd" clip-rule="evenodd" d="M262.412,47.428c2.18,0,4.631-0.479,5.869,1.764 c0.92,1.668,0.894,4.04,2.471,5.295c0.734,0.583,1.706,0.486,2.327-0.209c0.793-0.887,0.908-2.391,1.303-3.481 c0.365-1.008,0.864-2.319,1.811-2.921c0.842-0.537,2.104-0.605,3.077-0.693c0.87-0.079,2.072-0.004,2.509,0.904 c0.413,0.862-0.16,1.93-0.595,2.667c-1.277,2.165-2.634,4.316-3.998,6.427c-0.57,0.882-1.306,1.878-0.96,2.985 c0.358,1.149,1.298,2.229,1.945,3.229c1.45,2.236,2.776,4.477,3.788,6.946c0.364,0.888,0.647,1.851-0.426,2.351 c-0.907,0.424-1.993,0.128-2.941,0.04c-0.931-0.087-1.821,0.148-2.649-0.427c-0.96-0.666-1.41-2.02-1.854-3.046 c-0.446-1.031-0.671-2.351-1.343-3.257c-0.492-0.665-1.579-1.309-2.408-0.94c-1.05,0.466-0.99,1.779-1.318,2.712 c-0.423,1.207-1.081,2.309-1.717,3.412c-0.462,0.801-0.899,1.335-1.834,1.564c-0.89,0.219-1.835,0.16-2.739,0.08 c-0.667-0.06-1.56-0.013-2.135-0.406c-0.949-0.649,0.393-2.322,0.771-2.97c1.373-2.343,2.793-4.648,4.248-6.94 c0.595-0.938,1.136-2.01,0.94-3.156c-0.221-1.289-1.108-2.515-1.789-3.599c-0.62-0.991-1.188-2.005-1.762-3.022 c-0.535-0.946-1.195-1.791-1.763-2.712c-0.399-0.647-0.778-1.587-0.168-2.24c0.226-0.24,0.545-0.361,0.867-0.384 c0.2-0.014,0.617,0.126,0.802,0.008c-0.082,0.052-0.652-0.211-0.73-0.075C262.003,47.349,262.408,47.427,262.412,47.428 C263.614,47.428,261.074,47.202,262.412,47.428C263.614,47.428,261.074,47.202,262.412,47.428 C263.614,47.428,261.074,47.202,262.412,47.428z" />
                <path fill-rule="evenodd" clip-rule="evenodd" d="M268.242,92.554c2.855,0,5.71,0.013,8.564-0.004 c1.301-0.009,2.665-0.362,3.959-0.205c1.025,0.125,1.578,1.047,1.803,1.968c0.405,1.661-0.019,3.631-2.048,3.71 c-1.25,0.048-2.489-0.178-3.737-0.212c-1.182-0.031-2.703-0.27-3.853,0.067c-1.611,0.474-1.567,2.894-0.518,3.892 c0.746,0.709,1.971,0.636,2.921,0.607c1.361-0.043,2.721-0.255,4.083-0.255c1.974,0,2.993,1.478,2.618,3.39 c-0.408,2.078-2.204,2.024-3.934,1.864c-1.494-0.139-3.072-0.375-4.551,0c-1.45,0.369-2.314,1.72-1.835,3.208 c0.808,2.517,5.291,1.835,7.24,1.599c1.592-0.194,4.243-0.421,4.482,1.791c0.208,1.934-1.585,3.413-3.356,3.491 c-2.746,0.124-5.542-0.062-8.294-0.059c-1.292,0.002-2.585,0.016-3.878,0.003c-1.04-0.011-2.182-0.256-2.473-1.416 c-0.218-0.865,0.147-1.748,0.191-2.613c0.058-1.135-0.018-2.282-0.017-3.419c0.002-2.423,0.026-4.847-0.002-7.271 c-0.026-2.366-0.149-4.728-0.121-7.095c0.009-0.815-0.012-1.759,0.469-2.462c0.509-0.745,1.465-0.787,2.283-0.787 c0,0.459,1.37,0.108,1.371,0.194C269.612,92.515,268.242,92.497,268.242,92.554c0.053,0,1.371,0.002,1.37-0.016 C269.612,92.518,268.242,92.503,268.242,92.554C271.325,92.554,268.242,92.484,268.242,92.554 C271.325,92.554,268.242,92.484,268.242,92.554C271.097,92.554,268.242,92.484,268.242,92.554z" />
                <path fill-rule="evenodd" clip-rule="evenodd" d="M286.088,59.433c0-2.814-0.088-5.625-0.104-8.437 c-0.005-0.96,0.015-2.244,0.727-2.988c0.587-0.613,1.541-0.593,2.324-0.59c2.733,0.014,5.48-0.134,8.205,0.158 c2.276,0.243,4.761,0.855,6.37,2.604c3.044,3.307,2.387,9.439-1.054,12.175c-1.896,1.509-4.048,2.026-6.421,1.986 c-1.026-0.018-2.21,0.035-2.997,0.792c-0.825,0.791-0.584,2.21-0.529,3.23c0.057,1.046,0.24,2.471-0.329,3.415 c-0.536,0.89-1.702,0.929-2.624,1.004c-0.862,0.07-2.034,0.177-2.741-0.437c-0.586-0.508-0.736-1.356-0.79-2.091 c-0.138-1.894-0.023-3.861-0.036-5.76c-0.013-1.885-0.001-3.815-0.001-5.681c0,0.528,0,1.109,0,1.606 C286.088,60.09,286.088,59.762,286.088,59.433C286.088,57.249,286.088,62.583,286.088,59.433z M292.348,56.445 c-0.012,2.152,1.51,3.467,3.679,2.905c0.973-0.252,2.082-0.456,2.726-1.296c0.532-0.695,0.801-1.655,0.684-2.526 c-0.254-1.89-2.883-3.624-4.702-3.319c-0.956,0.16-1.921,0.825-2.125,1.822c-0.142,0.69-0.171,1.397-0.231,2.098 c-0.022,0.262-0.109,0.701-0.021,0.967c-0.036-0.11-0.028-0.726,0.017-0.82C292.351,56.319,292.352,56.4,292.348,56.445 C292.337,58.271,292.435,55.593,292.348,56.445C292.337,58.271,292.435,55.593,292.348,56.445 C292.337,58.271,292.435,55.593,292.348,56.445z" />
                <path fill-rule="evenodd" clip-rule="evenodd" d="M293.897,118.235c-1.261-0.303-2.527-0.578-3.785-0.891 c-1.201-0.298-2.6-0.393-3.188-1.624c-0.458-0.959-0.452-2.289-0.416-3.332c0.032-0.877,0.615-1.554,1.53-1.472 c1.184,0.107,2.268,0.959,3.368,1.355c1.286,0.462,2.66,0.655,4.022,0.519c0.947-0.094,1.983-0.228,2.386-1.214 c0.333-0.818,0.165-1.869-0.502-2.471c-0.819-0.738-2.13-1.011-3.121-1.442c-1.152-0.501-2.36-0.907-3.466-1.509 c-1.916-1.044-3.805-3.147-4.135-5.367c-0.304-2.037,0.668-4.265,2.002-5.76c1.567-1.757,3.775-2.636,6.078-2.916 c1.237-0.149,2.486-0.133,3.728-0.046c1.074,0.075,2.429,0.01,3.425,0.466c1.353,0.618,1.725,2.587,1.501,3.914 c-0.104,0.616-0.386,1.246-0.963,1.548c-1.054,0.552-2.234-0.18-3.237-0.496c-1.562-0.492-3.814-0.624-5.235,0.379 c-2.229,1.575,1.111,3.361,2.373,3.899c2.051,0.872,4.179,1.465,5.965,2.86c0.761,0.594,1.453,1.317,1.871,2.194 c0.496,1.039,0.463,2.234,0.498,3.358c0.031,0.971-0.024,1.948-0.413,2.855c-0.397,0.926-1.274,1.676-1.968,2.388 c-1.046,1.074-2.088,1.494-3.535,1.782c-0.774,0.155-1.545,0.32-2.316,0.488c-0.694,0.151-1.938,0.682-2.616,0.497 C292.418,117.835,295.747,117.843,293.897,118.235C291.983,117.775,295.943,117.801,293.897,118.235 C291.983,117.775,295.943,117.801,293.897,118.235C291.983,117.775,295.943,117.801,293.897,118.235z" />
                <path fill-rule="evenodd" clip-rule="evenodd" d="M432.223,73.192c-2.507-0.437-5.14-0.562-7.503-1.58 c-1.832-0.788-3.409-2.085-4.576-3.701c-2.342-3.244-3.04-7.644-1.932-11.477c1.098-3.797,3.982-6.86,7.646-8.306 c2.384-0.942,4.957-1.121,7.495-1.122c1.046,0,2.003-0.083,2.827,0.661c0.74,0.668,1.341,1.779,1.3,2.795 c-0.102,2.494-2.748,2.146-4.502,1.929c-2.141-0.264-4.089,0.184-5.803,1.527c-3.235,2.534-3.784,7.025-1.354,10.318 c1.181,1.601,2.952,2.773,4.932,3.086c1.294,0.206,2.603,0.031,3.879-0.21c0.81-0.151,1.679,0.078,2.067,0.86 c0.558,1.127,0.35,3.645-0.65,4.491c-0.807,0.683-2.044,0.535-3.019,0.476C432.721,72.919,432.296,72.757,432.223,73.192 c-0.248-0.042-0.712-0.041-0.935-0.183C431.363,73.056,432.243,73.076,432.223,73.192 C430.11,72.823,432.239,73.097,432.223,73.192C430.11,72.823,432.239,73.097,432.223,73.192 C430.11,72.823,432.239,73.097,432.223,73.192z" />
                <path fill-rule="evenodd" clip-rule="evenodd" d="M358.977,47.217c1.012,0.001,2.204,0.235,2.825,1.119 c0.64,0.91,0.39,2.143,0.327,3.174c-0.172,2.805,0.003,5.617-0.008,8.424c-0.011,2.811,0.106,5.598,0.165,8.404 c0.041,1.957-0.258,4.647-2.77,4.591c-1.023-0.022-2.363-0.134-3.119-0.913c-0.785-0.808-0.732-2.013-0.676-3.053 c0.156-2.815,0.146-5.62,0.155-8.439c0.009-2.778,0.09-5.578-0.08-8.353c-0.064-1.045-0.335-2.262-0.001-3.284 c0.395-1.205,1.768-1.448,2.866-1.608c0.349-0.051,1.071,0.105,1.37-0.047C359.701,47.403,359.316,47.15,358.977,47.217 c0.11,0,0.274-0.017,0.389,0.009C359.327,47.218,358.833,47.245,358.977,47.217C360.009,47.218,358.642,47.282,358.977,47.217 C360.289,47.218,358.642,47.282,358.977,47.217C359.836,47.218,358.642,47.282,358.977,47.217z" />
                <path fill-rule="evenodd" clip-rule="evenodd" d="M314.912,95.358c0,5.7-0.022,11.4,0.127,17.1 c0.049,1.841,0.766,4.533-1.687,5.042c-1.368,0.284-3.734,0.267-4.383-1.253c-0.293-0.688-0.254-1.481-0.198-2.21 c0.089-1.183,0.175-2.36,0.182-3.549c0.016-2.844-0.12-5.685-0.091-8.529c0.015-1.369,0.029-2.739,0.002-4.109 c-0.023-1.212-0.233-2.494-0.056-3.7c0.34-2.306,2.993-2.245,4.785-1.751c0.856,0.236,1.391,0.847,1.569,1.713 c0.131,0.639-0.203,1.002-0.274,1.599c-0.072,0.595-0.138,1.24,0.039,1.824C314.865,97.325,315.024,95.358,314.912,95.358 c0,0.403,0.138,1.076,0.017,1.467C314.97,96.689,314.957,95.358,314.912,95.358c0,0.544-0.146,1.342,0.016,1.873 C314.876,97.064,315.014,95.358,314.912,95.358C314.912,101.061,314.982,95.358,314.912,95.358 C314.912,101.058,314.982,95.358,314.912,95.358z" />
            </g>
        </g>
        <g>
            <g>
                <g>
                    <path d="M253.225,22.293c-0.166-0.524-0.752-0.953-1.302-0.953h-6.646c-0.55,0-1.135,0.43-1.299,0.955 l-0.91,2.911c-0.164,0.525-0.749,0.955-1.299,0.955h-4.74c-0.55,0-0.843-0.422-0.651-0.938l8.899-23.931 c0.191-0.516,0.799-0.938,1.349-0.938h3.933c0.55,0,1.158,0.421,1.351,0.937l8.968,23.933c0.192,0.515-0.1,0.937-0.649,0.937 h-4.777c-0.55,0-1.136-0.429-1.302-0.953L253.225,22.293z M246.087,15.582c-0.164,0.525,0.151,0.954,0.701,0.954h3.625 c0.55,0,0.864-0.429,0.699-0.954l-2.221-7.043c-0.165-0.524-0.436-0.524-0.6,0L246.087,15.582z" />
                </g>
                <g>
                    <path d="M264.998,26.16c-0.55,0-1-0.45-1-1V1.354c0-0.55,0.45-1,1-1h6.428c0.55,0,1.448,0.04,1.996,0.088 c0,0,2.408,0.213,3.892,0.816c1.487,0.603,2.767,1.45,3.837,2.543c1.072,1.093,1.91,2.399,2.51,3.917 c0.598,1.518,0.896,3.188,0.896,5.007v0.081c0,0.55-0.038,1.448-0.085,1.997c0,0-0.214,2.507-0.812,4.019 c-0.6,1.513-1.438,2.812-2.51,3.9c-1.07,1.087-2.343,1.933-3.818,2.533c-1.473,0.604-3.085,0.904-4.833,0.904H264.998z M271.305,5.158c-0.55,0-1,0.45-1,1v14.217c0,0.55,0.45,1,1,1h0.193c0.55,0,1.441-0.087,1.981-0.194c0,0,2.219-0.439,3.188-1.71 c0.969-1.271,1.454-3.158,1.454-5.664V13.69c0-0.55-0.05-1.447-0.11-1.994c0,0-0.375-3.378-1.344-4.642 c-0.97-1.265-2.385-1.896-4.243-1.896H271.305z" />
                </g>
                <g>
                    <path d="M312.549,12.79c0,0.55-0.033,1.449-0.074,1.997c0,0-0.205,2.748-0.771,4.319 c-0.563,1.57-1.35,2.906-2.362,4.006c-1.012,1.099-2.217,1.94-3.611,2.526c-1.397,0.584-2.926,0.876-4.593,0.876 c-1.688,0-3.238-0.292-4.646-0.876c-1.406-0.586-2.618-1.428-3.629-2.526c-1.013-1.1-1.8-2.436-2.365-4.006 c-0.563-1.571-0.845-3.344-0.845-5.316v-0.047c0-0.55,0.033-1.449,0.074-1.997c0,0,0.204-2.748,0.762-4.319 c0.559-1.571,1.342-2.907,2.354-4.006c1.014-1.1,2.219-1.943,3.622-2.535C297.867,0.296,299.413,0,301.103,0 c1.664,0,3.199,0.296,4.6,0.886c1.402,0.592,2.608,1.436,3.622,2.535c1.013,1.099,1.803,2.435,2.372,4.006 s0.853,3.344,0.853,5.316V12.79z M306.133,13.708c0-0.55-0.043-1.448-0.096-1.996c0,0-0.338-3.514-1.206-4.844 c-0.868-1.329-2.112-1.994-3.729-1.994c-1.69,0-2.951,0.665-3.782,1.994c-0.835,1.33-1.252,3.276-1.252,5.84v0.082 c0,0.55,0.043,1.448,0.095,1.996c0,0,0.331,3.476,1.183,4.835c0.85,1.358,2.114,2.037,3.792,2.037 c1.604,0,2.839-0.675,3.701-2.029c0.863-1.353,1.294-3.299,1.294-5.839V13.708z" />
                </g>
                <g>
                    <path d="M319.402,26.16c-0.55,0-1-0.45-1-1V1.354c0-0.55,0.45-1,1-1h7.398c0.55,0,1.449,0.021,1.999,0.047 c0,0,2.066,0.098,3.343,0.386c1.276,0.29,2.355,0.73,3.242,1.321s1.563,1.332,2.033,2.225c0.466,0.892,0.698,1.94,0.698,3.146 c0,0.592-0.064,1.161-0.198,1.71c-0.131,0.55-0.342,1.067-0.639,1.552c-0.291,0.484-0.672,0.919-1.14,1.303 c-0.467,0.384-1.037,0.699-1.705,0.947c0.776,0.201,1.438,0.491,1.975,0.869c0.539,0.378,0.975,0.815,1.312,1.312 s0.577,1.031,0.729,1.604c0.15,0.572,0.226,1.154,0.226,1.745c0,2.554-0.826,4.465-2.48,5.733 c-1.654,1.271-4.104,1.905-7.35,1.905H319.402z M324.71,10.113c0,0.55,0.45,1,1,1H327c0.55,0,1.447-0.049,1.994-0.11 c0,0,1.365-0.151,1.952-0.634c0.588-0.485,0.882-1.199,0.882-2.146c0-1.087-0.317-1.87-0.953-2.348 c-0.636-0.479-1.659-0.718-3.074-0.718h-2.09c-0.55,0-1,0.45-1,1V10.113z M325.71,15.189c-0.55,0-1,0.45-1,1v4.186 c0,0.55,0.45,1,1,1h2.134c0.55,0,1.449-0.029,1.998-0.064c0,0,0.178-0.012,0.627-0.165c0.449-0.154,0.815-0.364,1.096-0.63 c0.282-0.266,0.488-0.576,0.622-0.931c0.133-0.354,0.196-0.739,0.196-1.152c0-0.495-0.059-0.945-0.18-1.347 s-0.311-0.741-0.576-1.02c-0.263-0.277-0.604-0.493-1.022-0.646c-0.42-0.153-0.929-0.23-1.53-0.23H325.71z" />
                </g>
                <g>
                    <path d="M358.373,14.225c0,0.55-0.45,1-1,1h-7.922c-0.55,0-1,0.45-1,1v4.15c0,0.55,0.45,1,1,1h9.718 c0.55,0,1,0.45,1,1v2.785c0,0.55-0.45,1-1,1H343.14c-0.55,0-1-0.45-1-1V1.354c0-0.55,0.45-1,1-1h16.065c0.55,0,1,0.45,1,1v2.804 c0,0.55-0.45,1-1,1h-9.755c-0.55,0-1,0.45-1,1V9.6c0,0.55,0.45,1,1,1h7.922c0.55,0,1,0.45,1,1V14.225z" />
                </g>
                <g>
                    <path d="M255.156,61.397c0,0.55-0.45,1-1,1h-7.922c-0.55,0-1,0.45-1,1v4.15c0,0.55,0.45,1,1,1h9.717 c0.55,0,1,0.45,1,1v2.785c0,0.55-0.45,1-1,1h-16.025c-0.55,0-1-0.45-1-1V48.526c0-0.55,0.45-1,1-1h16.062c0.55,0,1,0.45,1,1 v2.806c0,0.55-0.45,1-1,1h-9.754c-0.55,0-1,0.45-1,1v3.439c0,0.55,0.45,1,1,1h7.922c0.55,0,1,0.45,1,1V61.397z" />
                </g>
                <g>
                    <path d="M270.568,55.21c0.245,0.492,0.647,0.492,0.893,0l3.385-6.789c0.245-0.492,0.896-0.895,1.446-0.895h5.206 c0.55,0,0.776,0.391,0.504,0.868l-6.322,11.062c-0.272,0.478-0.271,1.258,0.004,1.734l6.512,11.276 c0.275,0.477,0.05,0.866-0.5,0.866h-5.277c-0.55,0-1.202-0.402-1.45-0.893l-3.503-6.952c-0.248-0.491-0.652-0.491-0.9,0 l-3.504,6.952c-0.248,0.491-0.9,0.893-1.45,0.893h-5.261c-0.55,0-0.775-0.39-0.501-0.867l6.497-11.275 c0.274-0.477,0.276-1.258,0.004-1.735l-6.307-11.061c-0.272-0.478-0.045-0.869,0.505-0.869h5.19c0.55,0,1.201,0.403,1.446,0.895 L270.568,55.21z" />
                </g>
                <g>
                    <path d="M292.917,64.578c-0.55,0-1,0.45-1,1v6.755c0,0.55-0.45,1-1,1h-4.309c-0.55,0-1-0.45-1-1V48.526 c0-0.55,0.45-1,1-1h8.443c0.55,0,1.449,0.033,1.997,0.073c0,0,1.987,0.146,3.244,0.584c1.259,0.438,2.324,1.046,3.2,1.825 c0.873,0.778,1.544,1.704,2.013,2.773c0.466,1.07,0.701,2.236,0.701,3.501c0,1.252-0.235,2.387-0.701,3.403 c-0.469,1.017-1.14,1.887-2.013,2.613c-0.876,0.727-1.941,1.289-3.2,1.685c-1.257,0.396-2.671,0.594-4.241,0.594H292.917z M291.917,58.774c0,0.55,0.45,1,1,1h2.135c0.55,0,1.449-0.031,1.997-0.07c0,0,0.229-0.016,0.702-0.187 c0.471-0.172,0.862-0.41,1.168-0.717c0.305-0.309,0.529-0.676,0.674-1.101c0.144-0.427,0.216-0.885,0.216-1.383 c0-0.53-0.072-1.035-0.216-1.515c-0.145-0.479-0.369-0.899-0.674-1.266c-0.306-0.367-0.697-0.66-1.168-0.878 c-0.474-0.219-1.04-0.327-1.699-0.327h-3.135c-0.55,0-1,0.45-1,1V58.774z" />
                </g>
                <g>
                    <path d="M324.93,61.397c0,0.55-0.45,1-1,1h-7.921c-0.55,0-1,0.45-1,1v4.15c0,0.55,0.45,1,1,1h9.719 c0.55,0,1,0.45,1,1v2.785c0,0.55-0.45,1-1,1h-16.027c-0.55,0-1-0.45-1-1V48.526c0-0.55,0.45-1,1-1h16.063c0.55,0,1,0.45,1,1 v2.806c0,0.55-0.45,1-1,1h-9.755c-0.55,0-1,0.45-1,1v3.439c0,0.55,0.45,1,1,1h7.921c0.55,0,1,0.45,1,1V61.397z" />
                </g>
                <g>
                    <path d="M341.203,65.116c-0.248-0.49-0.902-0.892-1.452-0.892h-1.413c-0.55,0-1,0.45-1,1v7.108c0,0.55-0.45,1-1,1 h-4.309c-0.55,0-1-0.45-1-1V48.526c0-0.55,0.45-1,1-1h8.298c0.55,0,1.449,0.026,1.998,0.059c0,0,1.877,0.111,3.1,0.447 c1.223,0.337,2.266,0.832,3.129,1.488c0.862,0.656,1.524,1.47,1.984,2.438c0.462,0.97,0.692,2.09,0.692,3.367 c0,0.991-0.108,1.876-0.323,2.648c-0.217,0.774-0.527,1.454-0.926,2.04c-0.401,0.584-0.884,1.092-1.447,1.523 c-0.562,0.43-1.186,0.807-1.867,1.125l4.995,9.519c0.256,0.487,0.465,0.945,0.465,1.018s-0.45,0.133-1,0.133h-4.755 c-0.55,0-1.204-0.401-1.452-0.892L341.203,65.116z M337.337,58.421c0,0.55,0.45,1,1,1h1.989c0.55,0,1.445-0.066,1.989-0.147 c0,0,1.109-0.165,1.718-0.784c0.604-0.621,0.906-1.485,0.906-2.598c0-1.109-0.306-1.981-0.917-2.614 c-0.611-0.632-1.509-0.946-2.696-0.946h-2.989c-0.55,0-1,0.45-1,1V58.421z" />
                </g>
                <g>
                    <path d="M361.761,72.333c0,0.55-0.45,1-1,1h-4.29c-0.55,0-1-0.45-1-1V48.526c0-0.55,0.45-1,1-1h4.29 c0.55,0,1,0.45,1,1V72.333z" />
                </g>
                <g>
                    <path d="M384.108,61.397c0,0.55-0.45,1-1,1h-7.922c-0.55,0-1,0.45-1,1v4.15c0,0.55,0.45,1,1,1h9.719 c0.55,0,1,0.45,1,1v2.785c0,0.55-0.45,1-1,1h-16.025c-0.55,0-1-0.45-1-1V48.526c0-0.55,0.45-1,1-1h16.061c0.55,0,1,0.45,1,1 v2.806c0,0.55-0.45,1-1,1h-9.754c-0.55,0-1,0.45-1,1v3.439c0,0.55,0.45,1,1,1h7.922c0.55,0,1,0.45,1,1V61.397z" />
                </g>
                <g>
                    <path d="M412.062,72.333c0,0.55-0.45,1-1,1h-4.273c-0.55,0-1.225-0.39-1.5-0.866l-8.272-14.327 c-0.275-0.477-0.5-0.416-0.5,0.134v14.06c0,0.55-0.45,1-1,1h-4.31c-0.55,0-1-0.45-1-1V48.526c0-0.55,0.45-1,1-1h4.31 c0.55,0,1.225,0.39,1.499,0.866l8.257,14.326c0.274,0.477,0.499,0.416,0.499-0.134V48.526c0-0.55,0.45-1,1-1h4.291 c0.55,0,1,0.45,1,1V72.333z" />
                </g>
                <g>
                    <path d="M437.955,64.595c0.55,0,0.938,0.446,0.864,0.991c0,0-0.218,1.589-0.745,2.707 c-0.528,1.115-1.258,2.072-2.193,2.872c-0.934,0.797-2.055,1.416-3.36,1.858c-1.307,0.444-2.768,0.665-4.383,0.665 c-1.75,0-3.312-0.288-4.684-0.868c-1.373-0.579-2.534-1.409-3.488-2.49c-0.951-1.081-1.675-2.398-2.174-3.952 c-0.498-1.555-0.745-3.299-0.745-5.238v-0.399c0-0.55,0.031-1.449,0.07-1.998c0,0,0.189-2.686,0.713-4.241 c0.521-1.554,1.263-2.873,2.226-3.961c0.967-1.087,2.125-1.923,3.479-2.508c1.354-0.584,2.864-0.877,4.531-0.877 c1.699,0,3.206,0.233,4.519,0.699c1.311,0.467,2.423,1.115,3.333,1.941c0.91,0.828,1.624,1.809,2.141,2.942 c0.514,1.134,0.832,2.368,0.948,3.704h-5.288c-0.55,0-1.04-0.448-1.089-0.996c0,0-0.032-0.363-0.207-0.918 c-0.175-0.556-0.446-1.016-0.817-1.383c-0.371-0.366-0.844-0.643-1.421-0.833c-0.573-0.188-1.282-0.283-2.118-0.283 c-0.781,0-1.459,0.142-2.033,0.426c-0.573,0.283-1.054,0.732-1.438,1.347c-0.382,0.614-0.667,1.409-0.853,2.384 c-0.184,0.975-0.278,2.148-0.278,3.518v0.436c0,0.55,0.015,1.45,0.032,2c0,0,0.051,1.542,0.221,2.511 c0.166,0.969,0.433,1.763,0.798,2.384c0.366,0.62,0.846,1.073,1.439,1.355c0.591,0.283,1.32,0.425,2.185,0.425 c1.447,0,2.556-0.336,3.322-1.01c0.768-0.673,1.175-1.744,1.223-3.209H437.955z" />
                </g>
                <g>
                    <path d="M458.167,61.397c0,0.55-0.45,1-1,1h-7.921c-0.55,0-1,0.45-1,1v4.15c0,0.55,0.45,1,1,1h9.717 c0.55,0,1,0.45,1,1v2.785c0,0.55-0.45,1-1,1h-16.026c-0.55,0-1-0.45-1-1V48.526c0-0.55,0.45-1,1-1H459c0.55,0,1,0.45,1,1v2.806 c0,0.55-0.45,1-1,1h-9.753c-0.55,0-1,0.45-1,1v3.439c0,0.55,0.45,1,1,1h7.921c0.55,0,1,0.45,1,1V61.397z" />
                </g>
                <g>
                    <path d="M239.65,119.646c-0.55,0-1-0.45-1-1V94.841c0-0.55,0.45-1,1-1h6.43c0.55,0,1.448,0.04,1.996,0.088 c0,0,2.406,0.212,3.894,0.815c1.484,0.602,2.763,1.451,3.837,2.544c1.071,1.093,1.905,2.398,2.506,3.917 c0.6,1.518,0.899,3.187,0.899,5.007v0.08c0,0.55-0.038,1.448-0.085,1.997c0,0-0.215,2.508-0.814,4.019 c-0.601,1.513-1.435,2.812-2.506,3.9c-1.074,1.088-2.345,1.933-3.819,2.534c-1.474,0.603-3.086,0.904-4.834,0.904H239.65z M245.958,98.643c-0.55,0-1,0.45-1,1v14.217c0,0.55,0.45,1,1,1h0.194c0.55,0,1.441-0.087,1.981-0.194 c0,0,2.216-0.438,3.186-1.709c0.972-1.27,1.458-3.159,1.458-5.664v-0.116c0-0.55-0.05-1.447-0.11-1.994 c0,0-0.376-3.377-1.348-4.642c-0.97-1.265-2.383-1.897-4.24-1.897H245.958z" />
                </g>
                <g>
                    <path d="M281.273,107.71c0,0.55-0.45,1-1,1h-7.921c-0.55,0-1,0.45-1,1v4.149c0,0.55,0.45,1,1,1h9.719 c0.55,0,1,0.45,1,1v2.787c0,0.55-0.45,1-1,1h-16.027c-0.55,0-1-0.45-1-1V94.841c0-0.55,0.45-1,1-1h16.062c0.55,0,1,0.45,1,1 v2.802c0,0.55-0.45,1-1,1h-9.754c-0.55,0-1,0.45-1,1v3.442c0,0.55,0.45,1,1,1h7.921c0.55,0,1,0.45,1,1V107.71z" />
                </g>
                <g>
                    <path d="M299.136,112.787c0-0.401-0.057-0.766-0.171-1.09c-0.113-0.324-0.339-0.632-0.674-0.921 c-0.335-0.29-0.806-0.576-1.41-0.861c-0.604-0.283-1.4-0.584-2.382-0.903c-1.15-0.378-2.258-0.804-3.325-1.277 c-1.065-0.472-2.013-1.032-2.839-1.683c-0.826-0.648-1.489-1.407-1.985-2.277c-0.498-0.868-0.746-1.882-0.746-3.039 c0-1.111,0.25-2.112,0.755-3.005c0.504-0.892,1.202-1.65,2.102-2.277c0.899-0.626,1.964-1.11,3.191-1.452 c1.228-0.345,2.566-0.516,4.016-0.516c1.428,0,2.738,0.189,3.938,0.567c1.196,0.379,2.228,0.916,3.091,1.612 c0.862,0.698,1.537,1.539,2.021,2.526c0.485,0.987,0.728,2.089,0.728,3.305h-5.289c-0.55,0-1.034-0.418-1.076-0.93 c0,0,0,0-0.15-0.407c-0.15-0.408-0.377-0.757-0.683-1.046c-0.307-0.289-0.684-0.518-1.133-0.682 c-0.448-0.166-0.979-0.248-1.589-0.248c-0.599,0-1.126,0.067-1.583,0.202c-0.455,0.138-0.836,0.326-1.14,0.567 c-0.306,0.243-0.536,0.521-0.692,0.833c-0.156,0.314-0.234,0.647-0.234,1.001c0,0.391,0.111,0.742,0.334,1.056 c0.221,0.313,0.537,0.608,0.951,0.886c0.413,0.278,0.917,0.538,1.511,0.78c0.591,0.242,1.261,0.481,2.003,0.717 c1.39,0.438,2.629,0.923,3.72,1.454c1.091,0.532,2.01,1.14,2.759,1.825c0.75,0.688,1.317,1.46,1.709,2.323 c0.389,0.861,0.583,1.836,0.583,2.924c0,1.158-0.231,2.188-0.691,3.092c-0.462,0.904-1.114,1.662-1.959,2.277 c-0.845,0.614-1.863,1.082-3.057,1.401c-1.192,0.318-2.52,0.478-3.981,0.478c-0.898,0-1.789-0.073-2.677-0.221 s-1.734-0.375-2.543-0.683c-0.81-0.308-1.563-0.694-2.264-1.16c-0.701-0.468-1.306-1.025-1.816-1.676 c-0.508-0.649-0.911-1.389-1.202-2.216c-0.296-0.825-0.442-1.748-0.442-2.764h5.327c0.55,0,1.033,0.449,1.073,0.998 c0,0,0.028,0.393,0.233,0.908c0.202,0.514,0.501,0.929,0.896,1.248c0.396,0.32,0.88,0.547,1.447,0.683 c0.568,0.137,1.225,0.203,1.967,0.203c0.602,0,1.111-0.066,1.538-0.203c0.426-0.136,0.774-0.318,1.052-0.549 c0.275-0.23,0.478-0.499,0.601-0.808C299.076,113.455,299.136,113.129,299.136,112.787z" />
                </g>
                <g>
                    <path d="M315.403,118.646c0,0.55-0.45,1-1,1h-4.291c-0.55,0-1-0.45-1-1V94.841c0-0.55,0.45-1,1-1h4.291 c0.55,0,1,0.45,1,1V118.646z" />
                </g>
                <g>
                    <path d="M342.077,115.456c0,0.55-0.328,1.308-0.729,1.685c0,0-0.075,0.071-0.674,0.484 c-0.599,0.414-1.33,0.797-2.193,1.152c-0.861,0.354-1.86,0.646-2.99,0.878c-1.134,0.23-2.407,0.345-3.82,0.345 c-1.75,0-3.331-0.276-4.745-0.833c-1.414-0.555-2.624-1.363-3.63-2.428c-1.007-1.062-1.783-2.371-2.327-3.927 c-0.545-1.553-0.818-3.334-0.818-5.343v-0.436c0-0.55,0.033-1.449,0.072-1.998c0,0,0.204-2.795,0.756-4.354 c0.55-1.561,1.32-2.875,2.309-3.945c0.988-1.068,2.165-1.88,3.53-2.437c1.368-0.555,2.865-0.833,4.494-0.833 c1.809,0,3.361,0.216,4.654,0.647c1.294,0.432,2.374,1.037,3.234,1.815c0.863,0.782,1.522,1.708,1.978,2.784 c0.456,1.075,0.749,2.257,0.882,3.544h-5.074c-0.55,0-1.089-0.441-1.198-0.98c0,0-0.045-0.225-0.243-0.72 c-0.197-0.496-0.472-0.916-0.826-1.259c-0.353-0.343-0.792-0.604-1.312-0.781c-0.521-0.178-1.148-0.266-1.878-0.266 c-0.755,0-1.442,0.16-2.058,0.479c-0.616,0.318-1.143,0.8-1.573,1.444s-0.764,1.45-0.998,2.42 c-0.232,0.969-0.349,2.103-0.349,3.402v0.471c0,0.55,0.044,1.448,0.099,1.995c0,0,0.347,3.517,1.238,4.811 c0.893,1.293,2.3,1.94,4.215,1.94c0.504,0,0.953-0.033,1.349-0.099c0.395-0.065,0.741-0.15,1.043-0.258 c0.301-0.104,0.555-0.223,0.763-0.354c0.212-0.129,0.381-0.252,0.513-0.371v-3.006c0-0.55-0.45-1-1-1h-2.385c-0.55,0-1-0.45-1-1 v-2.272c0-0.55,0.45-1,1-1h8.693c0.55,0,1,0.45,1,1V115.456z" />
                </g>
                <g>
                    <path d="M368.461,118.646c0,0.55-0.45,1-1,1h-4.272c-0.55,0-1.225-0.39-1.5-0.866l-8.272-14.326 c-0.275-0.477-0.5-0.416-0.5,0.134v14.059c0,0.55-0.45,1-1,1h-4.31c-0.55,0-1-0.45-1-1V94.841c0-0.55,0.45-1,1-1h4.31 c0.55,0,1.225,0.39,1.499,0.866l8.258,14.325c0.274,0.477,0.499,0.416,0.499-0.134V94.841c0-0.55,0.45-1,1-1h4.289 c0.55,0,1,0.45,1,1V118.646z" />
                </g>
            </g>
        </g>
        <g display="none">
            <g display="inline">
                <path d="M-34.102-7.277c-0.784-0.772-0.525-1.404,0.575-1.404H3.617c1.1,0,2.631,0.641,3.403,1.425l31.679,32.17 c0.772,0.784,0.766,2.06-0.014,2.836l-17.1,17.035c-0.779,0.776-2.058,0.78-2.842,0.008L-34.102-7.277z" />
            </g>
            <g display="inline">
                <path d="M-34.102,126.612c-0.784,0.772-0.525,1.404,0.575,1.404H3.617c1.1,0,2.631-0.641,3.403-1.425l31.679-32.17 c0.772-0.784,0.766-2.06-0.014-2.836l-17.1-17.035c-0.779-0.776-2.058-0.78-2.842-0.008L-34.102,126.612z" />
            </g>
            <g display="inline">
                <path d="M161.482-8.718c-1.096-0.097-2.893-0.176-3.992-0.175l-54.384,0.038c-1.1,0.001-2.633,0.642-3.406,1.423 L34.412,58.584c-0.773,0.782-0.773,2.062,0,2.844l65.288,66.016c0.773,0.782,2.306,1.422,3.406,1.423l37.179,0.026 c1.1,0.001,1.378-0.649,0.617-1.444l-26.466-27.697c-0.761-0.795-1.415-1.445-1.456-1.445c-0.041,0.001-0.705-0.641-1.475-1.427 L76.762,61.435c-0.77-0.786-0.77-2.071,0-2.856l34.743-35.446c0.77-0.786,2.3-1.412,3.399-1.393l40.792,0.217 c1.1,0.006,2.895,0.106,3.988,0.223c0,0,24.865,2.637,24.865,37.828c0,36.466-24.857,37.922-24.857,37.922 c-1.098,0.064-2.896,0.118-3.996,0.119l-14.881,0.029c-1.101,0.003-1.379,0.657-0.619,1.452l25.29,26.465 c0.76,0.795,2.223,1.125,3.251,0.734c0,0,46.092-17.553,46.092-66.721C214.83-3.993,161.482-8.718,161.482-8.718z" />
            </g>
        </g>
        <g>
            <path d="M164.191,0h-46.506L57.687,59.982l0.331,0.328l3.317,3.412L117.685,120h36.99L94.671,60.002L127.469,27.2 h36.739c13.616,0,25.741,14.575,25.741,32.782c0,18.278-10.57,33.63-24.823,33.479l-7.646,0.004h-7.275L176.719,120 c4.664-1.094,9.922-2.908,14.458-5.951c16.526-11.088,25.67-32.286,25.67-54.066C216.847,26.633,192.868,0,164.191,0" />
            <polygon points="-1.246,0 47.827,49.07 66.228,30.662 35.565,0  " />
            <polygon points="35.556,120 66.147,89.411 47.742,71.01 -1.246,120  " />
        </g>
    </g>
</svg>
