<svg width="1282" height="802" viewBox="0 0 1282 802" xmlns="http://www.w3.org/2000/svg" xmlns:xlink="http://www.w3.org/1999/xlink"><title>Screen</title><defs><path d="M642 561c223.675 0 405-72.306 405-161.5S865.675 238 642 238s-405 72.306-405 161.5S418.325 561 642 561zm0-74.538c120.44 0 218.077-38.934 218.077-86.962 0-48.028-97.636-86.962-218.077-86.962-120.44 0-218.077 38.934-218.077 86.962 0 48.028 97.636 86.962 218.077 86.962z" id="a"/></defs><g fill="none" fill-rule="evenodd"><path stroke="#000" fill="#001A4A" d="M1 1h1280v800H1z"/><circle fill="#F6C651" cx="640" cy="401" r="56"/><ellipse stroke="#979797" stroke-width="2" stroke-dasharray="180,10" cx="641.5" cy="401" rx="497.5" ry="207"/><g transform="translate(1095 371)"><ellipse fill="#7B95CA" cx="31.831" cy="31.908" rx="32.265" ry="32.224"/><path d="M31.83 64.132c17.82 0 17.82-64.448 0-64.448C14.013-.316-.433 14.11-.433 31.908c0 17.797 14.446 32.224 32.265 32.224z" fill="#91AFEE"/></g><path d="M1095.053 382.645s-40.014-14.75-34.82-2.492c5.196 12.26 80.104 53.797 117.1 59.76 28.04 4.518 6.112-18.073-14.154-26.675" stroke="#979797" stroke-width="4" stroke-linecap="round" stroke-dasharray="5,6"/><mask id="b" fill="#fff"><use xlink:href="#a"/></mask><path d="M657 210l-17 191m-447-16l448 11m0 6l175 174M475 207l88 128m-300-85l742 291M637 402L413 594m438-370L643 398m385-126L248 522m392-119l-27 166m237.25-167h235.18" stroke-opacity=".25" stroke="#979797" stroke-width="4" stroke-linecap="square" mask="url(#b)"/></g></svg>